{
.appVersion = "1271";
DisplayStrings = (
"Brexit : /lcaron opposition britannique tente /dcaron empêcher une sortie sans accord\012/Lcaron autoroute urbaine qui déchire Bombay\012/Lcaron arrêté antipesticides du maire de Langouët suspendu par la justice\012S/eogonek dziowie oskar/zdotaccent ani o akcj/eogonek  przeciwáwo Ma/lslash glgorzacie Gersdorf /zdotaccent/aogonek daj/aogonek  zado/sacute/cacute uczynienia\012Dlaczego zgin/aogonek/lslash  kolarz Bjorg Lambvrecht. Jest wynik prokuratorskiego /sacute ledztwa\012Deal to develop three high-tech agoqriculture qn \012nnnnnnononooooooooonnnnn \012nnanoaoo\012nnbnoboo\012nncnocoo\012nndnodoo\012nnenoeoo\012nnfnofoo afro\012nngnogoo\012nnhnohoo\012nninoiooa\012nn/jdotless njnojoo\012nnknokoo\012nnlnoloo an\012nnmnomoo\012nnpnopoo\012nnqnoqoo a\012nnrnoroo\012nnsnosoo\012nntnotoo bn\012nnunouoo aun\012nnvnovoo\012nnwnowoo\012nnxnoxoo \012nnynoyoo\012nnznozoo",
"ABCDEFGHIJKLMNOPQRSTSUVWXYZ\012HHHHHHHHOHOHOOOO\012OOOOOOO\012HHAHOAOO H-A-H\012HHBHOBOO\012HHCHOCOO C-C\012HHDHODOO HH-HH\012HHEHOEOO H-E-H\012HHFHOFOO FOSFORO HF-H\012HHGHOGOO\012HHIHOIOO HOLOGRAMA\012HHJHOJOO\012HHKHOKOO HK-H\012HHLHOLOO\012HHMHOMOO\012HHNHONOO\012HHPHO  POO HP-H\012HHQHOQOO\012HHRHOROO ARQUOEO HR-H\012HHSHOSOO ASUSELO H-S-H\012HHTHCOO ALTO ALURO\012HHUHOUOO\012HHVHOVOO H-V/emdash VH\012HHWHOWOO HW/emdash WH Va Vã\012HHYHOYOO H-Y-HPVCZHOZOO H-Z-H\012\012",
"G/Gbreve/Gcircumflex/Gcommaaccent/Gdotaccent/Hbar/Hcircumflex Í/Ibreve ÎÏ/Idotaccent Ì/Imacron/Iogonek/Itilde",
"/Jcircumflex/Kcommaaccent/Lacute/Lcaron/Lcommaaccent LL/Ldot/Lslash/Nacute/Ncaron Ñ/Eng",
"RonRal/Racute R/Rcaron/Rcommaaccent/Sacute/Scaron S/Scedilla/Scircumflex T/Tbar/Tcaron/Tcommaaccent  PRATT",
"/Wacute/Wcircumflex/Wdieresis/Wgrave Ý/Ycircumflex/Ydieresis/Ygrave/Ytilde/Zacute/Zcaron/Zdotaccent",
"L/Lcaron opposite ·L/Ldot l",
"ß/fi i/fl &@*©®MarH/trademark",
"-/endash/emdash _.,:;!¡?¿/ellipsis ·/bullet",

glyphs = (
{
color = 4;
glyphname = A;
lastChange = "2019-11-29 23:24:05 +0000";
layers = (
{
anchors = (
{
name = ogonek;
position = "{460, 0}";
},
{
name = top;
position = "{352, 667}";
}
);
background = {
anchors = (
{
name = ogonek;
position = "{553, 0}";
}
);
paths = (
{
closed = 1;
nodes = (
"204 0 LINE",
"209 37 LINE",
"177 41 OFFCURVE",
"142 47 OFFCURVE",
"114 62 CURVE",
"180 215 LINE",
"366 215 LINE",
"389 63 LINE",
"368 52 OFFCURVE",
"338 42 OFFCURVE",
"294 37 CURVE",
"288 0 LINE",
"553 0 LINE",
"557 37 LINE",
"534 41 OFFCURVE",
"508 46 OFFCURVE",
"486 62 CURVE",
"384 667 LINE",
"319 667 LINE",
"47 60 LINE",
"25 45 OFFCURVE",
"0 41 OFFCURVE",
"-26 37 CURVE",
"-31 0 LINE"
);
},
{
closed = 1;
nodes = (
"318 534 LINE",
"358 267 LINE",
"202 267 LINE"
);
}
);
};
layerId = "CF479DE4-94A2-4865-8D1E-65EA355866D4";
paths = (
{
closed = 1;
nodes = (
"204 0 LINE",
"209 37 LINE",
"177 41 OFFCURVE",
"142 47 OFFCURVE",
"114 62 CURVE",
"180 215 LINE",
"366 215 LINE",
"389 63 LINE",
"368 52 OFFCURVE",
"338 42 OFFCURVE",
"294 37 CURVE",
"288 0 LINE",
"553 0 LINE",
"557 37 LINE",
"534 41 OFFCURVE",
"508 46 OFFCURVE",
"486 62 CURVE",
"384 667 LINE",
"319 667 LINE",
"47 60 LINE",
"25 45 OFFCURVE",
"0 41 OFFCURVE",
"-26 37 CURVE",
"-31 0 LINE"
);
},
{
closed = 1;
nodes = (
"318 534 LINE",
"358 267 LINE",
"202 267 LINE"
);
}
);
width = 578;
},
{
anchors = (
{
name = ogonek;
position = "{494, 0}";
},
{
name = top;
position = "{377, 667}";
}
);
layerId = "0FAD76F5-9F58-4721-BF81-08BC6166EF10";
paths = (
{
closed = 1;
nodes = (
"171 0 LINE",
"176 40 LINE",
"143 44 OFFCURVE",
"113 54 OFFCURVE",
"96 70 CURVE",
"166 208 LINE",
"372 208 LINE",
"396 65 LINE",
"384 52 OFFCURVE",
"359 44 OFFCURVE",
"330 40 CURVE",
"324 0 LINE",
"600 0 LINE",
"604 40 LINE",
"581 44 OFFCURVE",
"559 53 OFFCURVE",
"550 74 CURVE",
"429 667 LINE",
"325 667 LINE",
"16 65 LINE",
"1 48 OFFCURVE",
"-24 42 OFFCURVE",
"-50 40 CURVE",
"-55 0 LINE"
);
},
{
closed = 1;
nodes = (
"321 511 LINE",
"361 271 LINE",
"198 271 LINE"
);
}
);
width = 614;
}
);
leftKerningGroup = A;
rightKerningGroup = A;
unicode = 0041;
},
{
color = 4;
glyphname = B;
lastChange = "2019-11-26 22:23:44 +0000";
layers = (
{
anchors = (
{
name = bottom;
position = "{224, 0}";
},
{
name = top;
position = "{330, 667}";
}
);
background = {
anchors = (
{
name = top;
position = "{342, 705}";
}
);
paths = (
{
closed = 1;
nodes = (
"94 630 LINE",
"126 626 OFFCURVE",
"155 619 OFFCURVE",
"180 604 CURVE",
"94 63 LINE",
"71 49 OFFCURVE",
"45 42 OFFCURVE",
"4 37 CURVE",
"-2 0 LINE",
"241 0 LINE SMOOTH",
"425 0 OFFCURVE",
"504 102 OFFCURVE",
"504 214 CURVE SMOOTH",
"504 281 OFFCURVE",
"461 329 OFFCURVE",
"388 352 CURVE",
"484 375 OFFCURVE",
"538 435 OFFCURVE",
"538 531 CURVE SMOOTH",
"538 618 OFFCURVE",
"472 667 OFFCURVE",
"336 667 CURVE SMOOTH",
"99 667 LINE"
);
},
{
closed = 1;
nodes = (
"368 327 OFFCURVE",
"414 284 OFFCURVE",
"414 214 CURVE SMOOTH",
"414 109 OFFCURVE",
"350 49 OFFCURVE",
"254 49 CURVE SMOOTH",
"201 49 OFFCURVE",
"185 59 OFFCURVE",
"185 81 CURVE SMOOTH",
"185 84 OFFCURVE",
"185 87 OFFCURVE",
"186 90 CURVE SMOOTH",
"224 327 LINE",
"272 327 LINE"
);
},
{
closed = 1;
nodes = (
"411 620 OFFCURVE",
"450 592 OFFCURVE",
"450 530 CURVE SMOOTH",
"450 426 OFFCURVE",
"393 376 OFFCURVE",
"290 376 CURVE SMOOTH",
"231 376 LINE",
"263 578 LINE SMOOTH",
"269 615 OFFCURVE",
"279 619 OFFCURVE",
"327 620 CURVE",
"327 620 LINE"
);
},
{
closed = 1;
nodes = (
"241 0 LINE SMOOTH",
"425 0 OFFCURVE",
"504 102 OFFCURVE",
"504 214 CURVE SMOOTH",
"504 281 OFFCURVE",
"461 329 OFFCURVE",
"388 352 CURVE",
"484 375 OFFCURVE",
"538 435 OFFCURVE",
"538 531 CURVE SMOOTH",
"538 618 OFFCURVE",
"472 667 OFFCURVE",
"336 667 CURVE SMOOTH",
"99 667 LINE",
"94 630 LINE",
"126 626 OFFCURVE",
"155 619 OFFCURVE",
"180 604 CURVE",
"94 63 LINE",
"71 49 OFFCURVE",
"45 42 OFFCURVE",
"4 37 CURVE",
"-2 0 LINE"
);
},
{
closed = 1;
nodes = (
"201 49 OFFCURVE",
"185 59 OFFCURVE",
"185 81 CURVE SMOOTH",
"185 86 OFFCURVE",
"187 97 OFFCURVE",
"188 106 CURVE SMOOTH",
"224 327 LINE",
"272 327 LINE SMOOTH",
"368 327 OFFCURVE",
"414 284 OFFCURVE",
"414 214 CURVE SMOOTH",
"414 109 OFFCURVE",
"350 49 OFFCURVE",
"254 49 CURVE SMOOTH"
);
},
{
closed = 1;
nodes = (
"263 578 LINE SMOOTH",
"269 615 OFFCURVE",
"279 619 OFFCURVE",
"327 620 CURVE SMOOTH",
"411 620 OFFCURVE",
"450 592 OFFCURVE",
"450 530 CURVE SMOOTH",
"450 426 OFFCURVE",
"393 376 OFFCURVE",
"290 376 CURVE SMOOTH",
"231 376 LINE"
);
}
);
};
layerId = "CF479DE4-94A2-4865-8D1E-65EA355866D4";
paths = (
{
closed = 1;
nodes = (
"241 0 LINE SMOOTH",
"425 0 OFFCURVE",
"504 102 OFFCURVE",
"504 214 CURVE SMOOTH",
"504 281 OFFCURVE",
"461 329 OFFCURVE",
"388 352 CURVE",
"484 375 OFFCURVE",
"538 435 OFFCURVE",
"538 531 CURVE SMOOTH",
"538 618 OFFCURVE",
"472 667 OFFCURVE",
"336 667 CURVE SMOOTH",
"99 667 LINE",
"94 630 LINE",
"126 626 OFFCURVE",
"155 619 OFFCURVE",
"180 604 CURVE",
"94 63 LINE",
"71 49 OFFCURVE",
"45 42 OFFCURVE",
"4 37 CURVE",
"-2 0 LINE"
);
},
{
closed = 1;
nodes = (
"201 49 OFFCURVE",
"185 59 OFFCURVE",
"185 81 CURVE SMOOTH",
"185 86 OFFCURVE",
"187 97 OFFCURVE",
"188 106 CURVE SMOOTH",
"224 327 LINE",
"272 327 LINE SMOOTH",
"368 327 OFFCURVE",
"414 284 OFFCURVE",
"414 214 CURVE SMOOTH",
"414 109 OFFCURVE",
"350 49 OFFCURVE",
"254 49 CURVE SMOOTH"
);
},
{
closed = 1;
nodes = (
"263 578 LINE SMOOTH",
"269 615 OFFCURVE",
"279 619 OFFCURVE",
"327 620 CURVE SMOOTH",
"411 620 OFFCURVE",
"450 592 OFFCURVE",
"450 530 CURVE SMOOTH",
"450 426 OFFCURVE",
"393 376 OFFCURVE",
"290 376 CURVE SMOOTH",
"231 376 LINE"
);
}
);
width = 536;
},
{
anchors = (
{
name = bottom;
position = "{270, 0}";
},
{
name = top;
position = "{375, 667}";
}
);
background = {
paths = (
{
closed = 1;
nodes = (
"278 0 LINE SMOOTH",
"472 0 OFFCURVE",
"590 92 OFFCURVE",
"590 221 CURVE SMOOTH",
"590 290 OFFCURVE",
"548 334 OFFCURVE",
"470 359 CURVE",
"566 383 OFFCURVE",
"610 442 OFFCURVE",
"610 526 CURVE SMOOTH",
"610 619 OFFCURVE",
"535 667 OFFCURVE",
"375 667 CURVE SMOOTH",
"95 667 LINE",
"89 626 LINE",
"117 622 OFFCURVE",
"144 610 OFFCURVE",
"155 596 CURVE",
"72 71 LINE",
"51 55 OFFCURVE",
"33 46 OFFCURVE",
"0 41 CURVE",
"-5 0 LINE"
);
},
{
closed = 1;
nodes = (
"235 64 OFFCURVE",
"219 73 OFFCURVE",
"223 96 CURVE SMOOTH",
"258 320 LINE",
"291 320 LINE SMOOTH",
"376 320 OFFCURVE",
"430 293 OFFCURVE",
"430 227 CURVE SMOOTH",
"430 131 OFFCURVE",
"385 65 OFFCURVE",
"273 62 CURVE"
);
},
{
closed = 1;
nodes = (
"299 577 LINE SMOOTH",
"306 600 OFFCURVE",
"317 605 OFFCURVE",
"350 606 CURVE SMOOTH",
"428 603 OFFCURVE",
"461 575 OFFCURVE",
"461 521 CURVE SMOOTH",
"461 426 OFFCURVE",
"399 383 OFFCURVE",
"294 383 CURVE SMOOTH",
"268 383 LINE"
);
}
);
};
layerId = "0FAD76F5-9F58-4721-BF81-08BC6166EF10";
paths = (
{
closed = 1;
nodes = (
"278 0 LINE SMOOTH",
"472 0 OFFCURVE",
"590 92 OFFCURVE",
"590 221 CURVE SMOOTH",
"590 290 OFFCURVE",
"548 334 OFFCURVE",
"470 359 CURVE",
"566 383 OFFCURVE",
"610 442 OFFCURVE",
"610 526 CURVE SMOOTH",
"610 619 OFFCURVE",
"535 667 OFFCURVE",
"375 667 CURVE SMOOTH",
"95 667 LINE",
"89 626 LINE",
"117 622 OFFCURVE",
"144 610 OFFCURVE",
"155 596 CURVE",
"72 71 LINE",
"51 55 OFFCURVE",
"33 46 OFFCURVE",
"0 41 CURVE",
"-5 0 LINE"
);
},
{
closed = 1;
nodes = (
"239 64 OFFCURVE",
"223 71 OFFCURVE",
"223 89 CURVE SMOOTH",
"223 95 OFFCURVE",
"224 104 OFFCURVE",
"226 118 CURVE SMOOTH",
"258 320 LINE",
"291 320 LINE SMOOTH",
"376 320 OFFCURVE",
"430 293 OFFCURVE",
"430 227 CURVE SMOOTH",
"430 131 OFFCURVE",
"385 65 OFFCURVE",
"273 62 CURVE"
);
},
{
closed = 1;
nodes = (
"299 577 LINE SMOOTH",
"306 600 OFFCURVE",
"317 605 OFFCURVE",
"350 606 CURVE SMOOTH",
"428 603 OFFCURVE",
"461 575 OFFCURVE",
"461 521 CURVE SMOOTH",
"461 426 OFFCURVE",
"399 383 OFFCURVE",
"294 383 CURVE SMOOTH",
"268 383 LINE"
);
}
);
width = 608;
}
);
leftKerningGroup = H;
unicode = 0042;
},
{
color = 4;
glyphname = C;
lastChange = "2019-11-26 22:23:40 +0000";
layers = (
{
anchors = (
{
name = cedilla;
position = "{221, 0}";
},
{
name = top;
position = "{356, 667}";
}
);
background = {
anchors = (
{
name = cedilla;
position = "{221, 0}";
},
{
name = top;
position = "{361, 705}";
}
);
paths = (
{
closed = 1;
nodes = (
"402 622 OFFCURVE",
"427 592 OFFCURVE",
"427 560 CURVE SMOOTH",
"427 543 OFFCURVE",
"420 525 OFFCURVE",
"407 511 CURVE",
"409 488 OFFCURVE",
"430 472 OFFCURVE",
"457 472 CURVE SMOOTH",
"503 472 OFFCURVE",
"523 520 OFFCURVE",
"523 559 CURVE SMOOTH",
"523 620 OFFCURVE",
"469 675 OFFCURVE",
"359 675 CURVE SMOOTH",
"140 675 OFFCURVE",
"34 479 OFFCURVE",
"34 229 CURVE SMOOTH",
"34 71 OFFCURVE",
"111 -7 OFFCURVE",
"220 -7 CURVE SMOOTH",
"313 -7 OFFCURVE",
"380 28 OFFCURVE",
"468 98 CURVE",
"436 141 LINE",
"367 86 OFFCURVE",
"304 51 OFFCURVE",
"241 51 CURVE SMOOTH",
"176 51 OFFCURVE",
"131 98 OFFCURVE",
"131 213 CURVE SMOOTH",
"131 422 OFFCURVE",
"200 623 OFFCURVE",
"349 624 CURVE",
"349 624 LINE"
);
}
);
};
layerId = "CF479DE4-94A2-4865-8D1E-65EA355866D4";
paths = (
{
closed = 1;
nodes = (
"313 -7 OFFCURVE",
"380 28 OFFCURVE",
"468 98 CURVE",
"436 141 LINE",
"367 86 OFFCURVE",
"304 51 OFFCURVE",
"241 51 CURVE SMOOTH",
"176 51 OFFCURVE",
"131 98 OFFCURVE",
"131 213 CURVE SMOOTH",
"131 422 OFFCURVE",
"200 623 OFFCURVE",
"349 624 CURVE SMOOTH",
"402 622 OFFCURVE",
"427 592 OFFCURVE",
"427 560 CURVE SMOOTH",
"427 543 OFFCURVE",
"420 525 OFFCURVE",
"407 511 CURVE",
"409 488 OFFCURVE",
"430 472 OFFCURVE",
"457 472 CURVE SMOOTH",
"503 472 OFFCURVE",
"523 520 OFFCURVE",
"523 559 CURVE SMOOTH",
"523 620 OFFCURVE",
"469 675 OFFCURVE",
"359 675 CURVE SMOOTH",
"140 675 OFFCURVE",
"34 479 OFFCURVE",
"34 229 CURVE SMOOTH",
"34 71 OFFCURVE",
"111 -7 OFFCURVE",
"220 -7 CURVE SMOOTH"
);
}
);
width = 495;
},
{
anchors = (
{
name = cedilla;
position = "{275, 0}";
},
{
name = top;
position = "{366, 667}";
}
);
layerId = "0FAD76F5-9F58-4721-BF81-08BC6166EF10";
paths = (
{
closed = 1;
nodes = (
"354 -10 OFFCURVE",
"441 31 OFFCURVE",
"515 101 CURVE",
"487 133 LINE",
"433 84 OFFCURVE",
"376 58 OFFCURVE",
"323 58 CURVE SMOOTH",
"238 58 OFFCURVE",
"202 127 OFFCURVE",
"202 246 CURVE SMOOTH",
"202 407 OFFCURVE",
"245 621 OFFCURVE",
"374 621 CURVE SMOOTH",
"411 621 OFFCURVE",
"433 599 OFFCURVE",
"433 565 CURVE SMOOTH",
"433 544 OFFCURVE",
"423 522 OFFCURVE",
"408 502 CURVE",
"416 475 OFFCURVE",
"445 456 OFFCURVE",
"477 456 CURVE SMOOTH",
"527 456 OFFCURVE",
"572 501 OFFCURVE",
"572 555 CURVE SMOOTH",
"572 626 OFFCURVE",
"499 674 OFFCURVE",
"387 674 CURVE SMOOTH",
"155 674 OFFCURVE",
"37 511 OFFCURVE",
"37 249 CURVE SMOOTH",
"37 81 OFFCURVE",
"120 -10 OFFCURVE",
"279 -10 CURVE SMOOTH"
);
}
);
width = 542;
}
);
leftKerningGroup = O;
rightKerningGroup = C;
unicode = 0043;
},
{
color = 4;
glyphname = D;
lastChange = "2019-11-26 18:33:56 +0000";
layers = (
{
anchors = (
{
name = top;
position = "{357, 667}";
}
);
background = {
anchors = (
{
name = cedilla;
position = "{256, 0}";
},
{
name = top;
position = "{345, 705}";
}
);
paths = (
{
closed = 1;
nodes = (
"94 630 LINE",
"125 626 OFFCURVE",
"154 619 OFFCURVE",
"179 604 CURVE",
"93 62 LINE",
"65 45 OFFCURVE",
"35 41 OFFCURVE",
"3 37 CURVE",
"-2 0 LINE",
"205 0 LINE SMOOTH",
"455 0 OFFCURVE",
"594 159 OFFCURVE",
"594 431 CURVE SMOOTH",
"594 602 OFFCURVE",
"487 667 OFFCURVE",
"310 667 CURVE SMOOTH",
"99 667 LINE"
);
},
{
closed = 1;
nodes = (
"423 617 OFFCURVE",
"496 578 OFFCURVE",
"496 441 CURVE SMOOTH",
"496 274 OFFCURVE",
"426 49 OFFCURVE",
"241 49 CURVE SMOOTH",
"200 49 OFFCURVE",
"184 57 OFFCURVE",
"184 80 CURVE SMOOTH",
"184 83 OFFCURVE",
"184 86 OFFCURVE",
"185 90 CURVE SMOOTH",
"269 617 LINE",
"316 617 LINE"
);
}
);
};
layerId = "CF479DE4-94A2-4865-8D1E-65EA355866D4";
paths = (
{
closed = 1;
nodes = (
"205 0 LINE SMOOTH",
"455 0 OFFCURVE",
"594 159 OFFCURVE",
"594 431 CURVE SMOOTH",
"594 602 OFFCURVE",
"487 667 OFFCURVE",
"310 667 CURVE SMOOTH",
"99 667 LINE",
"94 630 LINE",
"125 626 OFFCURVE",
"154 619 OFFCURVE",
"179 604 CURVE",
"93 62 LINE",
"65 45 OFFCURVE",
"35 41 OFFCURVE",
"3 37 CURVE",
"-2 0 LINE"
);
},
{
closed = 1;
nodes = (
"200 49 OFFCURVE",
"184 59 OFFCURVE",
"184 78 CURVE SMOOTH",
"184 88 OFFCURVE",
"186 97 OFFCURVE",
"188 110 CURVE SMOOTH",
"269 617 LINE",
"316 617 LINE SMOOTH",
"423 617 OFFCURVE",
"496 578 OFFCURVE",
"496 441 CURVE SMOOTH",
"496 274 OFFCURVE",
"426 49 OFFCURVE",
"241 49 CURVE SMOOTH"
);
}
);
width = 598;
},
{
anchors = (
{
name = top;
position = "{392, 667}";
}
);
layerId = "0FAD76F5-9F58-4721-BF81-08BC6166EF10";
paths = (
{
closed = 1;
nodes = (
"220 0 LINE SMOOTH",
"550 0 OFFCURVE",
"650 204 OFFCURVE",
"650 413 CURVE SMOOTH",
"650 608 OFFCURVE",
"504 667 OFFCURVE",
"304 667 CURVE SMOOTH",
"95 667 LINE",
"89 626 LINE",
"117 622 OFFCURVE",
"144 610 OFFCURVE",
"155 596 CURVE",
"71 70 LINE",
"50 55 OFFCURVE",
"32 46 OFFCURVE",
"0 41 CURVE",
"-5 0 LINE"
);
},
{
closed = 1;
nodes = (
"235 63 OFFCURVE",
"224 75 OFFCURVE",
"224 96 CURVE SMOOTH",
"224 107 OFFCURVE",
"225 113 OFFCURVE",
"227 123 CURVE SMOOTH",
"304 605 LINE",
"331 605 LINE SMOOTH",
"436 605 OFFCURVE",
"494 549 OFFCURVE",
"494 429 CURVE SMOOTH",
"494 297 OFFCURVE",
"459 63 OFFCURVE",
"260 63 CURVE SMOOTH"
);
}
);
width = 656;
}
);
leftKerningGroup = H;
rightKerningGroup = O;
unicode = 0044;
},
{
color = 4;
glyphname = E;
lastChange = "2019-11-29 23:23:46 +0000";
layers = (
{
anchors = (
{
name = ogonek;
position = "{425, 0}";
},
{
name = top;
position = "{345, 667}";
}
);
background = {
anchors = (
{
name = cedilla;
position = "{261, 0}";
},
{
name = ogonek;
position = "{382, 0}";
},
{
name = top;
position = "{357, 705}";
}
);
paths = (
{
closed = 1;
nodes = (
"476 169 LINE",
"468 170 OFFCURVE",
"461 171 OFFCURVE",
"455 171 CURVE SMOOTH",
"448 171 OFFCURVE",
"441 170 OFFCURVE",
"435 169 CURVE",
"423 136 OFFCURVE",
"406 92 OFFCURVE",
"375 57 CURVE",
"181 57 LINE",
"222 316 LINE",
"326 312 LINE SMOOTH",
"369 310 OFFCURVE",
"368 262 OFFCURVE",
"372 239 CURVE",
"403 239 LINE",
"434 434 LINE",
"402 434 LINE",
"393 412 OFFCURVE",
"372 371 OFFCURVE",
"337 368 CURVE SMOOTH",
"320 366 OFFCURVE",
"267 364 OFFCURVE",
"230 363 CURVE",
"270 614 LINE",
"454 614 LINE",
"474 583 OFFCURVE",
"478 544 OFFCURVE",
"479 513 CURVE",
"484 512 OFFCURVE",
"489 511 OFFCURVE",
"494 511 CURVE SMOOTH",
"504 511 OFFCURVE",
"514 513 OFFCURVE",
"523 516 CURVE",
"538 667 LINE",
"99 667 LINE",
"94 630 LINE",
"127 626 OFFCURVE",
"155 619 OFFCURVE",
"180 604 CURVE",
"94 63 LINE",
"66 46 OFFCURVE",
"37 41 OFFCURVE",
"4 37 CURVE",
"-1 0 LINE",
"440 0 LINE"
);
}
);
};
layerId = "CF479DE4-94A2-4865-8D1E-65EA355866D4";
paths = (
{
closed = 1;
nodes = (
"440 0 LINE",
"476 169 LINE",
"469 170 OFFCURVE",
"462 171 OFFCURVE",
"455 171 CURVE SMOOTH",
"447 171 OFFCURVE",
"440 170 OFFCURVE",
"435 169 CURVE",
"419 126 OFFCURVE",
"403 87 OFFCURVE",
"375 57 CURVE",
"181 57 LINE",
"222 316 LINE",
"326 312 LINE SMOOTH",
"369 310 OFFCURVE",
"368 262 OFFCURVE",
"372 239 CURVE",
"403 239 LINE",
"434 434 LINE",
"402 434 LINE",
"393 412 OFFCURVE",
"372 371 OFFCURVE",
"337 368 CURVE",
"230 363 LINE",
"270 614 LINE",
"454 614 LINE",
"474 583 OFFCURVE",
"478 544 OFFCURVE",
"479 513 CURVE",
"484 512 OFFCURVE",
"489 511 OFFCURVE",
"497 511 CURVE SMOOTH",
"506 511 OFFCURVE",
"515 512 OFFCURVE",
"523 516 CURVE",
"538 667 LINE",
"99 667 LINE",
"94 630 LINE",
"127 626 OFFCURVE",
"155 619 OFFCURVE",
"180 604 CURVE",
"94 63 LINE",
"66 46 OFFCURVE",
"37 41 OFFCURVE",
"4 37 CURVE",
"-1 0 LINE"
);
}
);
width = 506;
},
{
anchors = (
{
name = ogonek;
position = "{477, 0}";
},
{
name = top;
position = "{353, 667}";
}
);
layerId = "0FAD76F5-9F58-4721-BF81-08BC6166EF10";
paths = (
{
closed = 1;
nodes = (
"495 0 LINE",
"535 188 LINE",
"528 190 OFFCURVE",
"520 191 OFFCURVE",
"513 191 CURVE SMOOTH",
"494 191 OFFCURVE",
"481 188 OFFCURVE",
"467 184 CURVE",
"456 153 OFFCURVE",
"435 101 OFFCURVE",
"404 62 CURVE",
"217 62 LINE",
"257 314 LINE",
"345 310 LINE SMOOTH",
"368 309 OFFCURVE",
"380 290 OFFCURVE",
"390 236 CURVE",
"432 236 LINE",
"465 443 LINE",
"423 443 LINE",
"407 404 OFFCURVE",
"381 377 OFFCURVE",
"357 376 CURVE SMOOTH",
"266 372 LINE",
"304 606 LINE",
"473 606 LINE",
"490 572 OFFCURVE",
"494 528 OFFCURVE",
"495 499 CURVE",
"502 497 OFFCURVE",
"510 496 OFFCURVE",
"517 496 CURVE SMOOTH",
"536 496 OFFCURVE",
"549 499 OFFCURVE",
"563 503 CURVE",
"585 667 LINE",
"95 667 LINE",
"89 626 LINE",
"117 622 OFFCURVE",
"144 610 OFFCURVE",
"155 596 CURVE",
"72 71 LINE",
"51 55 OFFCURVE",
"33 46 OFFCURVE",
"0 41 CURVE",
"-5 0 LINE"
);
}
);
width = 568;
}
);
leftKerningGroup = H;
rightKerningGroup = E;
unicode = 0045;
},
{
color = 4;
glyphname = F;
lastChange = "2019-11-29 22:14:52 +0000";
layers = (
{
background = {
anchors = (
{
name = top;
position = "{360, 705}";
}
);
paths = (
{
closed = 1;
nodes = (
"65 46 OFFCURVE",
"36 41 OFFCURVE",
"3 37 CURVE",
"-3 0 LINE",
"272 0 LINE",
"277 37 LINE",
"245 41 OFFCURVE",
"206 47 OFFCURVE",
"181 63 CURVE",
"220 311 LINE",
"325 307 LINE SMOOTH",
"368 305 OFFCURVE",
"367 257 OFFCURVE",
"371 234 CURVE",
"402 234 LINE",
"433 429 LINE",
"401 429 LINE",
"392 407 OFFCURVE",
"371 365 OFFCURVE",
"336 363 CURVE SMOOTH",
"228 358 LINE",
"269 614 LINE",
"448 614 LINE",
"469 583 OFFCURVE",
"477 544 OFFCURVE",
"478 513 CURVE",
"483 512 OFFCURVE",
"488 511 OFFCURVE",
"493 511 CURVE SMOOTH",
"503 511 OFFCURVE",
"513 513 OFFCURVE",
"522 516 CURVE",
"538 667 LINE",
"99 667 LINE",
"94 630 LINE",
"125 626 OFFCURVE",
"154 619 OFFCURVE",
"179 604 CURVE",
"93 63 LINE"
);
}
);
};
layerId = "CF479DE4-94A2-4865-8D1E-65EA355866D4";
paths = (
{
closed = 1;
nodes = (
"272 0 LINE",
"277 37 LINE",
"245 41 OFFCURVE",
"206 47 OFFCURVE",
"181 63 CURVE",
"220 311 LINE",
"325 307 LINE SMOOTH",
"368 305 OFFCURVE",
"367 257 OFFCURVE",
"371 234 CURVE",
"402 234 LINE",
"433 429 LINE",
"401 429 LINE",
"392 407 OFFCURVE",
"371 365 OFFCURVE",
"336 363 CURVE SMOOTH",
"228 358 LINE",
"269 614 LINE",
"448 614 LINE",
"469 583 OFFCURVE",
"477 544 OFFCURVE",
"478 513 CURVE",
"483 512 OFFCURVE",
"488 511 OFFCURVE",
"493 511 CURVE SMOOTH",
"503 511 OFFCURVE",
"513 513 OFFCURVE",
"522 516 CURVE",
"538 667 LINE",
"99 667 LINE",
"94 630 LINE",
"125 626 OFFCURVE",
"154 619 OFFCURVE",
"179 604 CURVE",
"93 63 LINE",
"65 46 OFFCURVE",
"36 41 OFFCURVE",
"3 37 CURVE",
"-3 0 LINE"
);
}
);
width = 497;
},
{
layerId = "0FAD76F5-9F58-4721-BF81-08BC6166EF10";
paths = (
{
closed = 1;
nodes = (
"301 0 LINE",
"306 41 LINE",
"274 48 OFFCURVE",
"232 57 OFFCURVE",
"219 71 CURVE",
"256 304 LINE",
"344 300 LINE SMOOTH",
"367 299 OFFCURVE",
"379 280 OFFCURVE",
"389 226 CURVE",
"431 226 LINE",
"464 433 LINE",
"422 433 LINE",
"406 394 OFFCURVE",
"380 367 OFFCURVE",
"356 366 CURVE SMOOTH",
"265 362 LINE",
"304 606 LINE",
"474 606 LINE",
"491 572 OFFCURVE",
"495 528 OFFCURVE",
"496 499 CURVE",
"503 497 OFFCURVE",
"511 496 OFFCURVE",
"518 496 CURVE SMOOTH",
"537 496 OFFCURVE",
"550 499 OFFCURVE",
"564 503 CURVE",
"586 667 LINE",
"95 667 LINE",
"89 626 LINE",
"117 622 OFFCURVE",
"144 610 OFFCURVE",
"155 596 CURVE",
"72 71 LINE",
"51 55 OFFCURVE",
"33 46 OFFCURVE",
"0 41 CURVE",
"-5 0 LINE"
);
}
);
width = 538;
}
);
leftKerningGroup = H;
rightKerningGroup = F;
unicode = 0046;
},
{
color = 4;
glyphname = G;
lastChange = "2019-11-29 22:20:42 +0000";
layers = (
{
anchors = (
{
name = bottom;
position = "{251, 0}";
},
{
name = top;
position = "{360, 667}";
}
);
background = {
anchors = (
{
name = bottom;
position = "{251, 0}";
},
{
name = cedilla;
position = "{222, 0}";
},
{
name = top;
position = "{363, 705}";
}
);
paths = (
{
closed = 1;
nodes = (
"348 250 OFFCURVE",
"381 243 OFFCURVE",
"404 236 CURVE",
"383 107 LINE SMOOTH",
"375 59 OFFCURVE",
"289 49 OFFCURVE",
"252 49 CURVE SMOOTH",
"182 49 OFFCURVE",
"130 91 OFFCURVE",
"130 213 CURVE SMOOTH",
"130 424 OFFCURVE",
"199 624 OFFCURVE",
"348 624 CURVE SMOOTH",
"401 624 OFFCURVE",
"426 591 OFFCURVE",
"426 560 CURVE SMOOTH",
"426 543 OFFCURVE",
"419 525 OFFCURVE",
"406 511 CURVE",
"408 488 OFFCURVE",
"429 472 OFFCURVE",
"456 472 CURVE SMOOTH",
"502 472 OFFCURVE",
"522 520 OFFCURVE",
"522 559 CURVE SMOOTH",
"522 620 OFFCURVE",
"468 675 OFFCURVE",
"358 675 CURVE SMOOTH",
"139 675 OFFCURVE",
"33 479 OFFCURVE",
"33 229 CURVE SMOOTH",
"33 55 OFFCURVE",
"126 -8 OFFCURVE",
"238 -8 CURVE SMOOTH",
"308 -8 OFFCURVE",
"387 11 OFFCURVE",
"453 55 CURVE",
"494 296 LINE",
"312 296 LINE",
"306 254 LINE"
);
}
);
};
layerId = "CF479DE4-94A2-4865-8D1E-65EA355866D4";
paths = (
{
closed = 1;
nodes = (
"308 -8 OFFCURVE",
"387 11 OFFCURVE",
"453 55 CURVE",
"494 296 LINE",
"312 296 LINE",
"306 254 LINE",
"348 250 OFFCURVE",
"381 243 OFFCURVE",
"404 236 CURVE",
"383 107 LINE SMOOTH",
"375 59 OFFCURVE",
"289 49 OFFCURVE",
"252 49 CURVE SMOOTH",
"182 49 OFFCURVE",
"130 91 OFFCURVE",
"130 213 CURVE SMOOTH",
"130 424 OFFCURVE",
"199 624 OFFCURVE",
"348 624 CURVE SMOOTH",
"401 624 OFFCURVE",
"426 591 OFFCURVE",
"426 560 CURVE SMOOTH",
"426 543 OFFCURVE",
"419 525 OFFCURVE",
"406 511 CURVE",
"408 488 OFFCURVE",
"429 472 OFFCURVE",
"456 472 CURVE SMOOTH",
"502 472 OFFCURVE",
"522 520 OFFCURVE",
"522 559 CURVE SMOOTH",
"522 620 OFFCURVE",
"468 675 OFFCURVE",
"358 675 CURVE SMOOTH",
"139 675 OFFCURVE",
"33 479 OFFCURVE",
"33 229 CURVE SMOOTH",
"33 55 OFFCURVE",
"126 -8 OFFCURVE",
"238 -8 CURVE SMOOTH"
);
}
);
width = 509;
},
{
anchors = (
{
name = bottom;
position = "{308, 0}";
},
{
name = top;
position = "{391, 667}";
}
);
background = {
paths = (
{
closed = 1;
nodes = (
"348 254 LINE",
"390 250 OFFCURVE",
"423 243 OFFCURVE",
"446 236 CURVE",
"425 107 LINE SMOOTH",
"417 59 OFFCURVE",
"331 49 OFFCURVE",
"294 49 CURVE SMOOTH",
"224 49 OFFCURVE",
"172 91 OFFCURVE",
"172 213 CURVE SMOOTH",
"172 424 OFFCURVE",
"241 624 OFFCURVE",
"390 624 CURVE SMOOTH",
"443 624 OFFCURVE",
"468 591 OFFCURVE",
"468 560 CURVE SMOOTH",
"468 543 OFFCURVE",
"461 525 OFFCURVE",
"448 511 CURVE",
"450 488 OFFCURVE",
"471 472 OFFCURVE",
"498 472 CURVE SMOOTH",
"544 472 OFFCURVE",
"564 520 OFFCURVE",
"564 559 CURVE SMOOTH",
"564 620 OFFCURVE",
"510 675 OFFCURVE",
"400 675 CURVE SMOOTH",
"181 675 OFFCURVE",
"75 479 OFFCURVE",
"75 229 CURVE SMOOTH",
"75 55 OFFCURVE",
"168 -8 OFFCURVE",
"280 -8 CURVE SMOOTH",
"350 -8 OFFCURVE",
"429 11 OFFCURVE",
"495 55 CURVE",
"536 296 LINE",
"354 296 LINE"
);
},
{
closed = 1;
nodes = (
"573 310 LINE",
"346 310 LINE",
"338 252 LINE",
"369 250 OFFCURVE",
"394 244 OFFCURVE",
"413 233 CURVE",
"387 72 LINE",
"371 64 OFFCURVE",
"344 58 OFFCURVE",
"322 58 CURVE SMOOTH",
"234 58 OFFCURVE",
"191 121 OFFCURVE",
"191 249 CURVE SMOOTH",
"191 456 OFFCURVE",
"256 621 OFFCURVE",
"388 621 CURVE SMOOTH",
"438 621 OFFCURVE",
"463 601 OFFCURVE",
"463 564 CURVE SMOOTH",
"463 542 OFFCURVE",
"453 524 OFFCURVE",
"437 502 CURVE",
"445 475 OFFCURVE",
"474 456 OFFCURVE",
"506 456 CURVE SMOOTH",
"556 456 OFFCURVE",
"601 501 OFFCURVE",
"601 555 CURVE SMOOTH",
"601 625 OFFCURVE",
"522 674 OFFCURVE",
"401 674 CURVE SMOOTH",
"160 674 OFFCURVE",
"36 513 OFFCURVE",
"36 249 CURVE SMOOTH",
"36 81 OFFCURVE",
"118 -10 OFFCURVE",
"278 -10 CURVE SMOOTH",
"365 -10 OFFCURVE",
"459 18 OFFCURVE",
"533 66 CURVE"
);
}
);
};
layerId = "0FAD76F5-9F58-4721-BF81-08BC6166EF10";
paths = (
{
closed = 1;
nodes = (
"365 -10 OFFCURVE",
"459 18 OFFCURVE",
"533 66 CURVE",
"573 310 LINE",
"346 310 LINE",
"338 252 LINE",
"369 250 OFFCURVE",
"394 244 OFFCURVE",
"413 233 CURVE",
"390 91 LINE",
"385 70 OFFCURVE",
"358 58 OFFCURVE",
"322 58 CURVE SMOOTH",
"234 58 OFFCURVE",
"191 121 OFFCURVE",
"191 249 CURVE SMOOTH",
"191 456 OFFCURVE",
"256 621 OFFCURVE",
"388 621 CURVE SMOOTH",
"438 621 OFFCURVE",
"463 601 OFFCURVE",
"463 564 CURVE SMOOTH",
"463 542 OFFCURVE",
"453 524 OFFCURVE",
"437 502 CURVE",
"445 475 OFFCURVE",
"474 456 OFFCURVE",
"506 456 CURVE SMOOTH",
"556 456 OFFCURVE",
"601 501 OFFCURVE",
"601 555 CURVE SMOOTH",
"601 625 OFFCURVE",
"522 674 OFFCURVE",
"401 674 CURVE SMOOTH",
"160 674 OFFCURVE",
"36 513 OFFCURVE",
"36 249 CURVE SMOOTH",
"36 81 OFFCURVE",
"118 -10 OFFCURVE",
"278 -10 CURVE SMOOTH"
);
}
);
width = 588;
}
);
leftKerningGroup = O;
rightKerningGroup = G;
unicode = 0047;
},
{
color = 4;
glyphname = H;
lastChange = "2019-11-29 22:19:25 +0000";
layers = (
{
anchors = (
{
name = top;
position = "{400, 667}";
}
);
background = {
anchors = (
{
name = cedilla;
position = "{134, 0}";
},
{
name = top;
position = "{406, 705}";
}
);
paths = (
{
closed = 1;
nodes = (
"263 0 LINE",
"267 37 LINE",
"235 41 OFFCURVE",
"209 47 OFFCURVE",
"182 63 CURVE",
"222 315 LINE",
"477 315 LINE",
"437 63 LINE",
"409 46 OFFCURVE",
"389 41 OFFCURVE",
"357 37 CURVE",
"352 0 LINE",
"611 0 LINE",
"616 37 LINE",
"583 41 OFFCURVE",
"553 47 OFFCURVE",
"525 63 CURVE",
"611 604 LINE",
"638 620 OFFCURVE",
"658 626 OFFCURVE",
"690 630 CURVE",
"696 667 LINE",
"442 667 LINE",
"438 630 LINE",
"470 626 OFFCURVE",
"496 619 OFFCURVE",
"523 604 CURVE",
"485 369 LINE",
"230 369 LINE",
"268 604 LINE",
"295 620 OFFCURVE",
"315 626 OFFCURVE",
"348 630 CURVE",
"353 667 LINE",
"99 667 LINE",
"94 630 LINE",
"127 626 OFFCURVE",
"155 619 OFFCURVE",
"180 604 CURVE",
"94 63 LINE",
"66 46 OFFCURVE",
"41 41 OFFCURVE",
"9 37 CURVE",
"4 0 LINE"
);
}
);
};
layerId = "CF479DE4-94A2-4865-8D1E-65EA355866D4";
paths = (
{
closed = 1;
nodes = (
"263 0 LINE",
"267 37 LINE",
"235 41 OFFCURVE",
"209 47 OFFCURVE",
"182 63 CURVE",
"222 315 LINE",
"477 315 LINE",
"437 63 LINE",
"409 46 OFFCURVE",
"389 41 OFFCURVE",
"357 37 CURVE",
"352 0 LINE",
"611 0 LINE",
"616 37 LINE",
"583 41 OFFCURVE",
"553 47 OFFCURVE",
"525 63 CURVE",
"611 604 LINE",
"638 620 OFFCURVE",
"658 626 OFFCURVE",
"690 630 CURVE",
"696 667 LINE",
"442 667 LINE",
"438 630 LINE",
"470 626 OFFCURVE",
"496 619 OFFCURVE",
"523 604 CURVE",
"485 369 LINE",
"230 369 LINE",
"268 604 LINE",
"295 620 OFFCURVE",
"315 626 OFFCURVE",
"348 630 CURVE",
"353 667 LINE",
"99 667 LINE",
"94 630 LINE",
"127 626 OFFCURVE",
"155 619 OFFCURVE",
"180 604 CURVE",
"94 63 LINE",
"66 46 OFFCURVE",
"41 41 OFFCURVE",
"9 37 CURVE",
"4 0 LINE"
);
}
);
width = 674;
},
{
anchors = (
{
name = top;
position = "{413, 667}";
}
);
layerId = "0FAD76F5-9F58-4721-BF81-08BC6166EF10";
paths = (
{
closed = 1;
nodes = (
"277 0 LINE",
"282 41 LINE",
"250 48 OFFCURVE",
"228 57 OFFCURVE",
"215 71 CURVE",
"253 310 LINE",
"462 310 LINE",
"424 71 LINE",
"403 55 OFFCURVE",
"385 46 OFFCURVE",
"352 41 CURVE",
"347 0 LINE",
"633 0 LINE",
"638 41 LINE",
"606 48 OFFCURVE",
"584 57 OFFCURVE",
"571 71 CURVE",
"654 596 LINE",
"677 613 OFFCURVE",
"694 620 OFFCURVE",
"727 626 CURVE",
"733 667 LINE",
"447 667 LINE",
"441 626 LINE",
"469 622 OFFCURVE",
"496 610 OFFCURVE",
"507 596 CURVE",
"472 373 LINE",
"263 373 LINE",
"298 596 LINE",
"321 613 OFFCURVE",
"338 620 OFFCURVE",
"371 626 CURVE",
"377 667 LINE",
"91 667 LINE",
"85 626 LINE",
"113 622 OFFCURVE",
"140 610 OFFCURVE",
"151 596 CURVE",
"68 71 LINE",
"47 55 OFFCURVE",
"29 46 OFFCURVE",
"-4 41 CURVE",
"-9 0 LINE"
);
}
);
width = 695;
}
);
leftKerningGroup = H;
rightKerningGroup = H;
unicode = 0048;
},
{
color = 4;
glyphname = I;
lastChange = "2019-11-29 23:29:33 +0000";
layers = (
{
anchors = (
{
name = ogonek;
position = "{162, 0}";
},
{
name = top;
position = "{239, 705}";
}
);
background = {
anchors = (
{
name = ogonek;
position = "{139, 0}";
},
{
name = top;
position = "{239, 705}";
}
);
paths = (
{
closed = 1;
nodes = (
"267 0 LINE",
"272 37 LINE",
"240 41 OFFCURVE",
"209 47 OFFCURVE",
"182 63 CURVE",
"268 604 LINE",
"296 620 OFFCURVE",
"321 626 OFFCURVE",
"353 630 CURVE",
"358 667 LINE",
"99 667 LINE",
"94 630 LINE",
"127 626 OFFCURVE",
"155 619 OFFCURVE",
"180 604 CURVE",
"94 63 LINE",
"66 46 OFFCURVE",
"40 41 OFFCURVE",
"8 37 CURVE",
"3 0 LINE"
);
}
);
};
layerId = "CF479DE4-94A2-4865-8D1E-65EA355866D4";
paths = (
{
closed = 1;
nodes = (
"267 0 LINE",
"272 37 LINE",
"240 41 OFFCURVE",
"209 47 OFFCURVE",
"182 63 CURVE",
"268 604 LINE",
"296 620 OFFCURVE",
"321 626 OFFCURVE",
"353 630 CURVE",
"358 667 LINE",
"99 667 LINE",
"94 630 LINE",
"127 626 OFFCURVE",
"155 619 OFFCURVE",
"180 604 CURVE",
"94 63 LINE",
"66 46 OFFCURVE",
"40 41 OFFCURVE",
"8 37 CURVE",
"3 0 LINE"
);
}
);
width = 330;
},
{
anchors = (
{
name = ogonek;
position = "{166, 0}";
},
{
name = top;
position = "{238, 667}";
}
);
layerId = "0FAD76F5-9F58-4721-BF81-08BC6166EF10";
paths = (
{
closed = 1;
nodes = (
"281 0 LINE",
"286 41 LINE",
"254 48 OFFCURVE",
"232 57 OFFCURVE",
"219 71 CURVE",
"302 596 LINE",
"325 613 OFFCURVE",
"342 620 OFFCURVE",
"375 626 CURVE",
"381 667 LINE",
"95 667 LINE",
"89 626 LINE",
"117 622 OFFCURVE",
"144 610 OFFCURVE",
"155 596 CURVE",
"72 71 LINE",
"51 55 OFFCURVE",
"33 46 OFFCURVE",
"0 41 CURVE",
"-5 0 LINE"
);
}
);
width = 345;
}
);
leftKerningGroup = H;
rightKerningGroup = H;
unicode = 0049;
},
{
color = 4;
glyphname = J;
lastChange = "2019-11-29 22:21:03 +0000";
layers = (
{
anchors = (
{
name = top;
position = "{219, 667}";
}
);
background = {
anchors = (
{
name = top;
position = "{229, 705}";
}
);
paths = (
{
closed = 1;
nodes = (
"286 620 OFFCURVE",
"311 626 OFFCURVE",
"343 630 CURVE",
"349 667 LINE",
"89 667 LINE",
"84 630 LINE",
"117 626 OFFCURVE",
"146 619 OFFCURVE",
"171 604 CURVE",
"75 1 LINE SMOOTH",
"60 -96 OFFCURVE",
"-4 -139 OFFCURVE",
"-67 -165 CURVE",
"-61 -195 LINE",
"60 -165 OFFCURVE",
"147 -106 OFFCURVE",
"166 16 CURVE SMOOTH",
"259 604 LINE"
);
}
);
};
layerId = "CF479DE4-94A2-4865-8D1E-65EA355866D4";
paths = (
{
closed = 1;
nodes = (
"60 -165 OFFCURVE",
"147 -106 OFFCURVE",
"166 16 CURVE SMOOTH",
"259 604 LINE",
"286 620 OFFCURVE",
"311 626 OFFCURVE",
"343 630 CURVE",
"349 667 LINE",
"89 667 LINE",
"84 630 LINE",
"117 626 OFFCURVE",
"146 619 OFFCURVE",
"171 604 CURVE",
"75 1 LINE SMOOTH",
"60 -96 OFFCURVE",
"-4 -139 OFFCURVE",
"-67 -165 CURVE",
"-61 -195 LINE"
);
}
);
width = 302;
},
{
anchors = (
{
name = top;
position = "{234, 667}";
}
);
layerId = "0FAD76F5-9F58-4721-BF81-08BC6166EF10";
paths = (
{
closed = 1;
nodes = (
"85 -183 OFFCURVE",
"186 -119 OFFCURVE",
"207 16 CURVE SMOOTH",
"298 596 LINE",
"321 613 OFFCURVE",
"338 620 OFFCURVE",
"371 626 CURVE",
"377 667 LINE",
"91 667 LINE",
"85 626 LINE",
"113 622 OFFCURVE",
"140 610 OFFCURVE",
"151 596 CURVE",
"57 1 LINE SMOOTH",
"42 -95 OFFCURVE",
"-17 -137 OFFCURVE",
"-71 -163 CURVE",
"-59 -218 LINE"
);
}
);
width = 330;
}
);
leftKerningGroup = J;
rightKerningGroup = J;
unicode = 004A;
},
{
color = 4;
glyphname = K;
lastChange = "2019-11-26 22:30:27 +0000";
layers = (
{
anchors = (
{
name = bottom;
position = "{311, 0}";
}
);
background = {
anchors = (
{
name = bottom;
position = "{309, 0}";
},
{
name = cedilla;
position = "{275, 0}";
},
{
name = top;
position = "{376, 705}";
}
);
paths = (
{
closed = 1;
nodes = (
"268 0 LINE",
"272 37 LINE",
"240 41 OFFCURVE",
"210 47 OFFCURVE",
"182 63 CURVE",
"270 612 LINE",
"292 622 OFFCURVE",
"312 627 OFFCURVE",
"339 630 CURVE",
"344 667 LINE",
"99 667 LINE",
"94 630 LINE",
"127 626 OFFCURVE",
"156 619 OFFCURVE",
"180 604 CURVE",
"93 63 LINE",
"66 46 OFFCURVE",
"41 41 OFFCURVE",
"9 37 CURVE",
"3 0 LINE"
);
},
{
closed = 1;
nodes = (
"367 66 LINE SMOOTH",
"391 17 OFFCURVE",
"405 0 OFFCURVE",
"453 0 CURVE SMOOTH",
"546 0 LINE",
"557 38 LINE",
"506 44 OFFCURVE",
"478 58 OFFCURVE",
"466 83 CURVE SMOOTH",
"320 369 LINE",
"541 608 LINE",
"567 627 OFFCURVE",
"597 630 OFFCURVE",
"621 630 CURVE",
"625 667 LINE",
"407 667 LINE",
"402 630 LINE",
"436 629 OFFCURVE",
"451 620 OFFCURVE",
"451 602 CURVE SMOOTH",
"451 596 OFFCURVE",
"449 590 OFFCURVE",
"439 579 CURVE SMOOTH",
"230 347 LINE"
);
},
{
closed = 1;
nodes = (
"546 0 LINE",
"557 38 LINE",
"506 44 OFFCURVE",
"478 58 OFFCURVE",
"466 83 CURVE SMOOTH",
"320 369 LINE",
"541 608 LINE",
"567 627 OFFCURVE",
"597 630 OFFCURVE",
"621 630 CURVE",
"625 667 LINE",
"407 667 LINE",
"402 630 LINE",
"436 629 OFFCURVE",
"451 620 OFFCURVE",
"451 602 CURVE SMOOTH",
"451 596 OFFCURVE",
"449 590 OFFCURVE",
"439 579 CURVE SMOOTH",
"230 347 LINE",
"367 66 LINE SMOOTH",
"391 17 OFFCURVE",
"405 0 OFFCURVE",
"453 0 CURVE SMOOTH"
);
},
{
closed = 1;
nodes = (
"268 0 LINE",
"272 37 LINE",
"240 41 OFFCURVE",
"210 47 OFFCURVE",
"182 63 CURVE",
"270 612 LINE",
"292 622 OFFCURVE",
"312 627 OFFCURVE",
"339 630 CURVE",
"344 667 LINE",
"99 667 LINE",
"94 630 LINE",
"127 626 OFFCURVE",
"156 619 OFFCURVE",
"180 604 CURVE",
"93 63 LINE",
"66 46 OFFCURVE",
"41 41 OFFCURVE",
"9 37 CURVE",
"3 0 LINE"
);
}
);
};
layerId = "CF479DE4-94A2-4865-8D1E-65EA355866D4";
paths = (
{
closed = 1;
nodes = (
"546 0 LINE",
"557 38 LINE",
"506 44 OFFCURVE",
"478 58 OFFCURVE",
"466 83 CURVE SMOOTH",
"320 369 LINE",
"534 600 LINE SMOOTH",
"555 623 OFFCURVE",
"579 628 OFFCURVE",
"621 630 CURVE",
"625 667 LINE",
"407 667 LINE",
"402 630 LINE",
"436 629 OFFCURVE",
"451 620 OFFCURVE",
"451 602 CURVE SMOOTH",
"451 596 OFFCURVE",
"449 590 OFFCURVE",
"439 579 CURVE SMOOTH",
"230 347 LINE",
"371 58 LINE SMOOTH",
"394 10 OFFCURVE",
"414 0 OFFCURVE",
"453 0 CURVE SMOOTH"
);
},
{
closed = 1;
nodes = (
"268 0 LINE",
"272 37 LINE",
"240 41 OFFCURVE",
"210 47 OFFCURVE",
"182 63 CURVE",
"270 612 LINE",
"292 622 OFFCURVE",
"312 627 OFFCURVE",
"339 630 CURVE",
"344 667 LINE",
"99 667 LINE",
"94 630 LINE",
"127 626 OFFCURVE",
"156 619 OFFCURVE",
"180 604 CURVE",
"93 63 LINE",
"66 46 OFFCURVE",
"41 41 OFFCURVE",
"9 37 CURVE",
"3 0 LINE"
);
}
);
width = 586;
},
{
anchors = (
{
name = bottom;
position = "{321, 0}";
}
);
layerId = "0FAD76F5-9F58-4721-BF81-08BC6166EF10";
paths = (
{
closed = 1;
nodes = (
"623 0 LINE",
"628 41 LINE",
"593 48 OFFCURVE",
"574 59 OFFCURVE",
"556 76 CURVE",
"429 391 LINE",
"617 589 LINE SMOOTH",
"649 622 OFFCURVE",
"690 625 OFFCURVE",
"710 626 CURVE",
"716 667 LINE",
"478 667 LINE",
"473 626 LINE",
"499 626 OFFCURVE",
"521 620 OFFCURVE",
"521 603 CURVE SMOOTH",
"521 597 OFFCURVE",
"517 589 OFFCURVE",
"509 581 CURVE SMOOTH",
"276 341 LINE",
"386 58 LINE",
"396 38 OFFCURVE",
"415 0 OFFCURVE",
"466 0 CURVE SMOOTH"
);
},
{
closed = 1;
nodes = (
"281 0 LINE",
"286 41 LINE",
"254 48 OFFCURVE",
"232 57 OFFCURVE",
"219 71 CURVE",
"302 596 LINE",
"325 613 OFFCURVE",
"342 620 OFFCURVE",
"375 626 CURVE",
"381 667 LINE",
"95 667 LINE",
"89 626 LINE",
"117 622 OFFCURVE",
"144 610 OFFCURVE",
"155 596 CURVE",
"72 71 LINE",
"51 55 OFFCURVE",
"33 46 OFFCURVE",
"0 41 CURVE",
"-5 0 LINE"
);
}
);
width = 659;
}
);
leftKerningGroup = H;
rightKerningGroup = K;
unicode = 004B;
},
{
color = 4;
glyphname = L;
lastChange = "2019-11-29 22:12:39 +0000";
layers = (
{
anchors = (
{
name = bottom;
position = "{226, 0}";
},
{
name = center_right;
position = "{383, 346}";
},
{
name = top;
position = "{236, 667}";
},
{
name = top_right;
position = "{415, 649}";
}
);
background = {
anchors = (
{
name = bottom;
position = "{261, 0}";
},
{
name = cedilla;
position = "{217, 0}";
},
{
name = top;
position = "{243, 705}";
}
);
paths = (
{
closed = 1;
nodes = (
"65 46 OFFCURVE",
"40 41 OFFCURVE",
"8 37 CURVE",
"2 0 LINE",
"414 0 LINE",
"451 169 LINE",
"443 170 OFFCURVE",
"436 171 OFFCURVE",
"430 171 CURVE SMOOTH",
"423 171 OFFCURVE",
"416 170 OFFCURVE",
"410 169 CURVE",
"398 136 OFFCURVE",
"380 92 OFFCURVE",
"350 57 CURVE",
"253 57 LINE SMOOTH",
"203 57 OFFCURVE",
"186 64 OFFCURVE",
"186 88 CURVE SMOOTH",
"186 91 OFFCURVE",
"188 104 OFFCURVE",
"190 115 CURVE SMOOTH",
"268 604 LINE",
"295 620 OFFCURVE",
"330 626 OFFCURVE",
"363 630 CURVE",
"368 667 LINE",
"99 667 LINE",
"94 630 LINE",
"126 626 OFFCURVE",
"155 619 OFFCURVE",
"180 604 CURVE",
"93 63 LINE"
);
},
{
closed = 1;
nodes = (
"414 0 LINE",
"451 169 LINE",
"443 170 OFFCURVE",
"436 171 OFFCURVE",
"430 171 CURVE SMOOTH",
"423 171 OFFCURVE",
"416 170 OFFCURVE",
"410 169 CURVE",
"398 136 OFFCURVE",
"380 92 OFFCURVE",
"350 57 CURVE",
"253 57 LINE SMOOTH",
"203 57 OFFCURVE",
"186 64 OFFCURVE",
"186 86 CURVE SMOOTH",
"186 96 OFFCURVE",
"188 103 OFFCURVE",
"190 116 CURVE SMOOTH",
"268 604 LINE",
"295 620 OFFCURVE",
"330 626 OFFCURVE",
"363 630 CURVE",
"368 667 LINE",
"99 667 LINE",
"94 630 LINE",
"126 626 OFFCURVE",
"155 619 OFFCURVE",
"180 604 CURVE",
"93 63 LINE",
"65 46 OFFCURVE",
"40 41 OFFCURVE",
"8 37 CURVE",
"2 0 LINE"
);
}
);
};
guideLines = (
{
angle = 81;
position = "{193, 132}";
},
{
position = "{253, 57}";
}
);
layerId = "CF479DE4-94A2-4865-8D1E-65EA355866D4";
paths = (
{
closed = 1;
nodes = (
"414 0 LINE",
"451 169 LINE",
"443 170 OFFCURVE",
"436 171 OFFCURVE",
"430 171 CURVE SMOOTH",
"423 171 OFFCURVE",
"416 170 OFFCURVE",
"410 169 CURVE",
"398 136 OFFCURVE",
"380 92 OFFCURVE",
"350 57 CURVE",
"253 57 LINE SMOOTH",
"194 57 OFFCURVE",
"183 66 OFFCURVE",
"187 96 CURVE SMOOTH",
"268 604 LINE",
"295 620 OFFCURVE",
"330 626 OFFCURVE",
"363 630 CURVE",
"368 667 LINE",
"99 667 LINE",
"94 630 LINE",
"126 626 OFFCURVE",
"155 619 OFFCURVE",
"180 604 CURVE",
"93 63 LINE",
"65 46 OFFCURVE",
"40 41 OFFCURVE",
"8 37 CURVE",
"2 0 LINE"
);
}
);
width = 474;
},
{
anchors = (
{
name = bottom;
position = "{245, 0}";
},
{
name = center_right;
position = "{436, 377}";
},
{
name = top;
position = "{253, 705}";
},
{
name = top_right;
position = "{437, 648}";
}
);
background = {
paths = (
{
closed = 1;
nodes = (
"455 0 LINE",
"495 188 LINE",
"488 190 OFFCURVE",
"480 191 OFFCURVE",
"473 191 CURVE SMOOTH",
"454 191 OFFCURVE",
"441 188 OFFCURVE",
"427 184 CURVE",
"416 153 OFFCURVE",
"395 101 OFFCURVE",
"364 62 CURVE",
"217 62 LINE",
"302 596 LINE",
"325 613 OFFCURVE",
"352 620 OFFCURVE",
"385 626 CURVE",
"391 667 LINE",
"95 667 LINE",
"89 626 LINE",
"117 622 OFFCURVE",
"144 610 OFFCURVE",
"155 596 CURVE",
"72 71 LINE",
"51 55 OFFCURVE",
"33 46 OFFCURVE",
"0 41 CURVE",
"-5 0 LINE"
);
}
);
};
layerId = "0FAD76F5-9F58-4721-BF81-08BC6166EF10";
paths = (
{
closed = 1;
nodes = (
"455 0 LINE",
"495 188 LINE",
"488 190 OFFCURVE",
"480 191 OFFCURVE",
"473 191 CURVE SMOOTH",
"454 191 OFFCURVE",
"441 188 OFFCURVE",
"427 184 CURVE",
"416 153 OFFCURVE",
"395 101 OFFCURVE",
"364 62 CURVE",
"264 62 LINE SMOOTH",
"225 62 OFFCURVE",
"219 75 OFFCURVE",
"222 96 CURVE SMOOTH",
"302 596 LINE",
"325 613 OFFCURVE",
"352 620 OFFCURVE",
"385 626 CURVE",
"391 667 LINE",
"95 667 LINE",
"89 626 LINE",
"117 622 OFFCURVE",
"144 610 OFFCURVE",
"155 596 CURVE",
"72 71 LINE",
"51 55 OFFCURVE",
"33 46 OFFCURVE",
"0 41 CURVE",
"-5 0 LINE"
);
}
);
width = 516;
}
);
leftKerningGroup = H;
rightKerningGroup = L;
unicode = 004C;
},
{
color = 4;
glyphname = M;
lastChange = "2019-11-27 00:04:37 +0000";
layers = (
{
anchors = (
{
name = bottom;
position = "{382, 0}";
},
{
name = top;
position = "{488, 667}";
}
);
background = {
anchors = (
{
name = top;
position = "{492, 705}";
}
);
paths = (
{
closed = 1;
nodes = (
"676 512 LINE",
"598 63 LINE",
"570 46 OFFCURVE",
"545 41 OFFCURVE",
"513 37 CURVE",
"508 0 LINE",
"772 0 LINE",
"776 37 LINE",
"744 41 OFFCURVE",
"714 47 OFFCURVE",
"686 63 CURVE",
"772 604 LINE",
"800 620 OFFCURVE",
"825 626 OFFCURVE",
"857 630 CURVE",
"862 667 LINE",
"701 667 LINE",
"399 116 LINE",
"272 667 LINE",
"99 667 LINE",
"94 630 LINE",
"127 626 OFFCURVE",
"154 619 OFFCURVE",
"179 604 CURVE",
"93 63 LINE",
"65 46 OFFCURVE",
"41 41 OFFCURVE",
"8 37 CURVE",
"3 0 LINE",
"243 0 LINE",
"247 37 LINE",
"215 41 OFFCURVE",
"185 47 OFFCURVE",
"157 63 CURVE",
"221 512 LINE",
"341 0 LINE",
"395 0 LINE"
);
}
);
};
layerId = "CF479DE4-94A2-4865-8D1E-65EA355866D4";
paths = (
{
closed = 1;
nodes = (
"243 0 LINE",
"247 37 LINE",
"215 41 OFFCURVE",
"185 47 OFFCURVE",
"157 63 CURVE",
"221 512 LINE",
"341 0 LINE",
"395 0 LINE",
"676 512 LINE",
"598 63 LINE",
"570 46 OFFCURVE",
"545 41 OFFCURVE",
"513 37 CURVE",
"508 0 LINE",
"772 0 LINE",
"776 37 LINE",
"744 41 OFFCURVE",
"714 47 OFFCURVE",
"686 63 CURVE",
"772 604 LINE",
"800 620 OFFCURVE",
"825 626 OFFCURVE",
"857 630 CURVE",
"862 667 LINE",
"701 667 LINE",
"399 116 LINE",
"272 667 LINE",
"99 667 LINE",
"94 630 LINE",
"127 626 OFFCURVE",
"154 619 OFFCURVE",
"179 604 CURVE",
"93 63 LINE",
"65 46 OFFCURVE",
"41 41 OFFCURVE",
"8 37 CURVE",
"3 0 LINE"
);
}
);
width = 835;
},
{
anchors = (
{
name = bottom;
position = "{366, 0}";
},
{
name = top;
position = "{471, 667}";
}
);
layerId = "0FAD76F5-9F58-4721-BF81-08BC6166EF10";
paths = (
{
closed = 1;
nodes = (
"221 0 LINE",
"226 41 LINE",
"194 48 OFFCURVE",
"172 57 OFFCURVE",
"159 71 CURVE",
"224 484 LINE",
"317 0 LINE",
"394 0 LINE",
"623 484 LINE",
"558 71 LINE",
"537 55 OFFCURVE",
"519 46 OFFCURVE",
"486 41 CURVE",
"481 0 LINE",
"763 0 LINE",
"768 41 LINE",
"736 48 OFFCURVE",
"714 57 OFFCURVE",
"701 71 CURVE",
"784 596 LINE",
"807 613 OFFCURVE",
"824 620 OFFCURVE",
"857 626 CURVE",
"863 667 LINE",
"627 667 LINE",
"417 217 LINE",
"336 667 LINE",
"95 667 LINE",
"89 626 LINE",
"117 622 OFFCURVE",
"144 610 OFFCURVE",
"155 596 CURVE",
"72 71 LINE",
"51 55 OFFCURVE",
"33 46 OFFCURVE",
"0 41 CURVE",
"-5 0 LINE"
);
}
);
width = 827;
}
);
leftKerningGroup = H;
rightKerningGroup = H;
unicode = 004D;
},
{
color = 4;
glyphname = N;
lastChange = "2019-11-26 22:50:10 +0000";
layers = (
{
anchors = (
{
name = bottom;
position = "{347, 0}";
},
{
name = top;
position = "{398, 667}";
}
);
background = {
anchors = (
{
name = bottom;
position = "{347, 0}";
},
{
name = cedilla;
position = "{299, 0}";
},
{
name = top;
position = "{396, 705}";
}
);
paths = (
{
closed = 1;
nodes = (
"99 667 LINE",
"94 630 LINE",
"126 626 OFFCURVE",
"154 619 OFFCURVE",
"179 604 CURVE",
"92 62 LINE",
"64 46 OFFCURVE",
"40 41 OFFCURVE",
"8 37 CURVE",
"2 0 LINE",
"243 0 LINE",
"247 37 LINE",
"215 41 OFFCURVE",
"185 47 OFFCURVE",
"156 63 CURVE",
"228 510 LINE",
"475 0 LINE",
"516 0 LINE",
"612 604 LINE",
"640 620 OFFCURVE",
"665 626 OFFCURVE",
"697 630 CURVE",
"702 667 LINE",
"466 667 LINE",
"462 630 LINE",
"494 626 OFFCURVE",
"523 619 OFFCURVE",
"547 604 CURVE",
"482 193 LINE",
"253 667 LINE"
);
},
{
closed = 1;
nodes = (
"243 0 LINE",
"247 37 LINE",
"215 41 OFFCURVE",
"185 47 OFFCURVE",
"156 63 CURVE",
"228 510 LINE",
"475 0 LINE",
"516 0 LINE",
"612 604 LINE",
"640 620 OFFCURVE",
"665 626 OFFCURVE",
"697 630 CURVE",
"702 667 LINE",
"466 667 LINE",
"462 630 LINE",
"494 626 OFFCURVE",
"523 619 OFFCURVE",
"547 604 CURVE",
"482 193 LINE",
"253 667 LINE",
"99 667 LINE",
"94 630 LINE",
"126 626 OFFCURVE",
"154 619 OFFCURVE",
"179 604 CURVE",
"92 62 LINE",
"64 46 OFFCURVE",
"40 41 OFFCURVE",
"8 37 CURVE",
"2 0 LINE"
);
}
);
};
layerId = "CF479DE4-94A2-4865-8D1E-65EA355866D4";
paths = (
{
closed = 1;
nodes = (
"243 0 LINE",
"247 37 LINE",
"215 41 OFFCURVE",
"185 47 OFFCURVE",
"156 63 CURVE",
"234 547 LINE",
"216 544 LINE",
"475 0 LINE",
"516 0 LINE",
"612 604 LINE",
"640 620 OFFCURVE",
"665 626 OFFCURVE",
"697 630 CURVE",
"702 667 LINE",
"466 667 LINE",
"462 630 LINE",
"494 626 OFFCURVE",
"523 619 OFFCURVE",
"547 604 CURVE",
"472 127 LINE",
"501 140 LINE",
"253 667 LINE",
"99 667 LINE",
"94 630 LINE",
"126 626 OFFCURVE",
"154 619 OFFCURVE",
"179 604 CURVE",
"92 62 LINE",
"64 46 OFFCURVE",
"40 41 OFFCURVE",
"8 37 CURVE",
"2 0 LINE"
);
}
);
width = 654;
},
{
anchors = (
{
name = bottom;
position = "{325, 0}";
},
{
name = top;
position = "{405, 667}";
}
);
background = {
paths = (
{
closed = 1;
nodes = (
"221 0 LINE",
"226 41 LINE",
"194 48 OFFCURVE",
"172 57 OFFCURVE",
"159 71 CURVE",
"221 460 LINE",
"392 0 LINE",
"544 0 LINE",
"638 596 LINE",
"661 613 OFFCURVE",
"678 620 OFFCURVE",
"711 626 CURVE",
"717 667 LINE",
"491 667 LINE",
"485 626 LINE",
"513 622 OFFCURVE",
"540 610 OFFCURVE",
"551 596 CURVE",
"486 183 LINE",
"307 667 LINE",
"95 667 LINE",
"89 626 LINE",
"117 622 OFFCURVE",
"144 610 OFFCURVE",
"155 596 CURVE",
"72 71 LINE",
"51 55 OFFCURVE",
"33 46 OFFCURVE",
"0 41 CURVE",
"-5 0 LINE"
);
}
);
};
layerId = "0FAD76F5-9F58-4721-BF81-08BC6166EF10";
paths = (
{
closed = 1;
nodes = (
"221 0 LINE",
"226 41 LINE",
"194 48 OFFCURVE",
"172 57 OFFCURVE",
"159 71 CURVE",
"233 545 LINE",
"206 520 LINE",
"401 0 LINE",
"544 0 LINE",
"638 596 LINE",
"661 613 OFFCURVE",
"678 620 OFFCURVE",
"711 626 CURVE",
"717 667 LINE",
"491 667 LINE",
"485 626 LINE",
"513 622 OFFCURVE",
"540 610 OFFCURVE",
"551 596 CURVE",
"471 88 LINE",
"491 154 LINE",
"301 667 LINE",
"95 667 LINE",
"89 626 LINE",
"117 622 OFFCURVE",
"144 610 OFFCURVE",
"155 596 CURVE",
"72 71 LINE",
"51 55 OFFCURVE",
"33 46 OFFCURVE",
"0 41 CURVE",
"-5 0 LINE"
);
}
);
width = 670;
}
);
leftKerningGroup = H;
rightKerningGroup = N;
unicode = 004E;
},
{
color = 4;
glyphname = O;
lastChange = "2019-11-29 22:21:32 +0000";
layers = (
{
anchors = (
{
name = bottom;
position = "{247, 0}";
},
{
name = top;
position = "{373, 667}";
}
);
background = {
anchors = (
{
name = ogonek;
position = "{317, 0}";
},
{
name = top;
position = "{378, 705}";
}
);
paths = (
{
closed = 1;
nodes = (
"980 40 OFFCURVE",
"948 103 OFFCURVE",
"948 216 CURVE SMOOTH",
"948 464 OFFCURVE",
"1047 627 OFFCURVE",
"1182 627 CURVE SMOOTH",
"1265 627 OFFCURVE",
"1296 562 OFFCURVE",
"1296 446 CURVE SMOOTH",
"1296 201 OFFCURVE",
"1195 40 OFFCURVE",
"1062 40 CURVE SMOOTH",
"1062 40 LINE"
);
},
{
closed = 1;
nodes = (
"953 675 OFFCURVE",
"849 457 OFFCURVE",
"849 234 CURVE SMOOTH",
"849 77 OFFCURVE",
"914 -7 OFFCURVE",
"1069 -7 CURVE SMOOTH",
"1290 -7 OFFCURVE",
"1394 210 OFFCURVE",
"1394 433 CURVE SMOOTH",
"1394 591 OFFCURVE",
"1330 675 OFFCURVE",
"1175 675 CURVE SMOOTH",
"1175 675 LINE"
);
},
{
closed = 1;
nodes = (
"1124 -8 OFFCURVE",
"1203 11 OFFCURVE",
"1269 55 CURVE",
"1310 296 LINE",
"1128 296 LINE",
"1122 254 LINE",
"1164 250 OFFCURVE",
"1197 243 OFFCURVE",
"1220 236 CURVE",
"1199 107 LINE SMOOTH",
"1191 59 OFFCURVE",
"1105 49 OFFCURVE",
"1068 49 CURVE SMOOTH",
"998 49 OFFCURVE",
"946 91 OFFCURVE",
"946 213 CURVE SMOOTH",
"946 424 OFFCURVE",
"1015 624 OFFCURVE",
"1164 624 CURVE SMOOTH",
"1217 624 OFFCURVE",
"1242 591 OFFCURVE",
"1242 560 CURVE SMOOTH",
"1242 543 OFFCURVE",
"1235 525 OFFCURVE",
"1222 511 CURVE",
"1224 488 OFFCURVE",
"1245 472 OFFCURVE",
"1272 472 CURVE SMOOTH",
"1318 472 OFFCURVE",
"1338 520 OFFCURVE",
"1338 559 CURVE SMOOTH",
"1338 620 OFFCURVE",
"1284 675 OFFCURVE",
"1174 675 CURVE SMOOTH",
"955 675 OFFCURVE",
"849 479 OFFCURVE",
"849 229 CURVE SMOOTH",
"849 55 OFFCURVE",
"942 -8 OFFCURVE",
"1054 -8 CURVE SMOOTH"
);
},
{
closed = 1;
nodes = (
"1005 0 LINE SMOOTH",
"1255 0 OFFCURVE",
"1394 159 OFFCURVE",
"1394 431 CURVE SMOOTH",
"1394 602 OFFCURVE",
"1287 667 OFFCURVE",
"1110 667 CURVE SMOOTH",
"899 667 LINE",
"894 630 LINE",
"925 626 OFFCURVE",
"954 619 OFFCURVE",
"979 604 CURVE",
"893 62 LINE",
"865 45 OFFCURVE",
"835 41 OFFCURVE",
"803 37 CURVE",
"798 0 LINE"
);
},
{
closed = 1;
nodes = (
"1000 49 OFFCURVE",
"984 59 OFFCURVE",
"984 78 CURVE SMOOTH",
"984 88 OFFCURVE",
"986 97 OFFCURVE",
"988 110 CURVE SMOOTH",
"1069 617 LINE",
"1116 617 LINE SMOOTH",
"1223 617 OFFCURVE",
"1296 578 OFFCURVE",
"1296 441 CURVE SMOOTH",
"1296 274 OFFCURVE",
"1226 49 OFFCURVE",
"1041 49 CURVE SMOOTH"
);
},
{
closed = 1;
nodes = (
"-212 -7 OFFCURVE",
"-110 211 OFFCURVE",
"-110 423 CURVE SMOOTH",
"-110 591 OFFCURVE",
"-174 675 OFFCURVE",
"-319 675 CURVE SMOOTH",
"-552 675 OFFCURVE",
"-655 457 OFFCURVE",
"-655 246 CURVE SMOOTH",
"-655 77 OFFCURVE",
"-589 -7 OFFCURVE",
"-445 -7 CURVE SMOOTH"
);
},
{
closed = 1;
nodes = (
"-526 40 OFFCURVE",
"-556 103 OFFCURVE",
"-556 229 CURVE SMOOTH",
"-556 459 OFFCURVE",
"-457 627 OFFCURVE",
"-322 627 CURVE SMOOTH",
"-238 627 OFFCURVE",
"-208 562 OFFCURVE",
"-208 436 CURVE SMOOTH",
"-208 204 OFFCURVE",
"-309 40 OFFCURVE",
"-443 40 CURVE SMOOTH"
);
},
{
closed = 1;
nodes = (
"-207 -10 OFFCURVE",
"-80 166 OFFCURVE",
"-80 416 CURVE SMOOTH",
"-80 580 OFFCURVE",
"-156 678 OFFCURVE",
"-330 678 CURVE SMOOTH",
"-557 678 OFFCURVE",
"-684 502 OFFCURVE",
"-684 252 CURVE SMOOTH",
"-684 88 OFFCURVE",
"-608 -10 OFFCURVE",
"-434 -10 CURVE SMOOTH"
);
},
{
closed = 1;
nodes = (
"-497 50 OFFCURVE",
"-528 106 OFFCURVE",
"-528 230 CURVE SMOOTH",
"-528 365 OFFCURVE",
"-470 620 OFFCURVE",
"-340 620 CURVE SMOOTH",
"-267 620 OFFCURVE",
"-236 564 OFFCURVE",
"-236 440 CURVE SMOOTH",
"-236 307 OFFCURVE",
"-294 50 OFFCURVE",
"-424 50 CURVE SMOOTH"
);
},
{
closed = 1;
nodes = (
"476 -7 OFFCURVE",
"580 208 OFFCURVE",
"580 423 CURVE SMOOTH",
"580 587 OFFCURVE",
"510 675 OFFCURVE",
"365 675 CURVE SMOOTH",
"138 675 OFFCURVE",
"34 460 OFFCURVE",
"34 245 CURVE SMOOTH",
"34 81 OFFCURVE",
"104 -7 OFFCURVE",
"249 -7 CURVE SMOOTH"
);
},
{
closed = 1;
nodes = (
"177 41 OFFCURVE",
"133 106 OFFCURVE",
"133 239 CURVE SMOOTH",
"133 469 OFFCURVE",
"226 627 OFFCURVE",
"347 627 CURVE SMOOTH",
"436 627 OFFCURVE",
"481 559 OFFCURVE",
"481 426 CURVE SMOOTH",
"481 196 OFFCURVE",
"387 41 OFFCURVE",
"268 41 CURVE SMOOTH"
);
}
);
};
layerId = "CF479DE4-94A2-4865-8D1E-65EA355866D4";
paths = (
{
closed = 1;
nodes = (
"474 -7 OFFCURVE",
"579 211 OFFCURVE",
"579 423 CURVE SMOOTH",
"579 585 OFFCURVE",
"511 675 OFFCURVE",
"370 675 CURVE SMOOTH",
"140 675 OFFCURVE",
"34 457 OFFCURVE",
"34 246 CURVE SMOOTH",
"34 84 OFFCURVE",
"104 -7 OFFCURVE",
"244 -7 CURVE SMOOTH"
);
},
{
closed = 1;
nodes = (
"179 40 OFFCURVE",
"133 103 OFFCURVE",
"133 229 CURVE SMOOTH",
"133 459 OFFCURVE",
"225 627 OFFCURVE",
"354 627 CURVE SMOOTH",
"434 627 OFFCURVE",
"481 562 OFFCURVE",
"481 436 CURVE SMOOTH",
"481 204 OFFCURVE",
"387 40 OFFCURVE",
"259 40 CURVE SMOOTH"
);
}
);
width = 581;
},
{
anchors = (
{
name = bottom;
position = "{284, 0}";
},
{
name = top;
position = "{387, 667}";
}
);
background = {
paths = (
{
closed = 1;
nodes = (
"1768 350 OFFCURVE",
"1829 620 OFFCURVE",
"1959 620 CURVE SMOOTH",
"2046 620 OFFCURVE",
"2060 537 OFFCURVE",
"2060 450 CURVE SMOOTH",
"2060 320 OFFCURVE",
"1999 50 OFFCURVE",
"1869 50 CURVE SMOOTH",
"1782 50 OFFCURVE",
"1768 133 OFFCURVE",
"1768 220 CURVE SMOOTH"
);
},
{
closed = 1;
nodes = (
"1608 85 OFFCURVE",
"1692 -10 OFFCURVE",
"1860 -10 CURVE SMOOTH",
"2102 -10 OFFCURVE",
"2221 155 OFFCURVE",
"2221 413 CURVE SMOOTH",
"2221 584 OFFCURVE",
"2138 678 OFFCURVE",
"1969 678 CURVE SMOOTH",
"1730 678 OFFCURVE",
"1608 516 OFFCURVE",
"1608 257 CURVE SMOOTH"
);
},
{
closed = 1;
nodes = (
"1772 40 OFFCURVE",
"1740 103 OFFCURVE",
"1740 216 CURVE SMOOTH",
"1740 464 OFFCURVE",
"1839 627 OFFCURVE",
"1974 627 CURVE SMOOTH",
"2057 627 OFFCURVE",
"2088 562 OFFCURVE",
"2088 446 CURVE SMOOTH",
"2088 201 OFFCURVE",
"1987 40 OFFCURVE",
"1854 40 CURVE SMOOTH"
);
},
{
closed = 1;
nodes = (
"1745 675 OFFCURVE",
"1641 457 OFFCURVE",
"1641 234 CURVE SMOOTH",
"1641 77 OFFCURVE",
"1706 -7 OFFCURVE",
"1861 -7 CURVE SMOOTH",
"2082 -7 OFFCURVE",
"2186 210 OFFCURVE",
"2186 433 CURVE SMOOTH",
"2186 591 OFFCURVE",
"2122 675 OFFCURVE",
"1967 675 CURVE SMOOTH"
);
},
{
closed = 1;
nodes = (
"364 -10 OFFCURVE",
"458 18 OFFCURVE",
"532 66 CURVE",
"572 310 LINE",
"345 310 LINE",
"337 252 LINE",
"368 250 OFFCURVE",
"393 244 OFFCURVE",
"412 233 CURVE",
"389 91 LINE",
"384 70 OFFCURVE",
"357 58 OFFCURVE",
"321 58 CURVE SMOOTH",
"233 58 OFFCURVE",
"190 121 OFFCURVE",
"190 249 CURVE SMOOTH",
"190 456 OFFCURVE",
"255 621 OFFCURVE",
"387 621 CURVE SMOOTH",
"437 621 OFFCURVE",
"462 601 OFFCURVE",
"462 564 CURVE SMOOTH",
"462 542 OFFCURVE",
"452 524 OFFCURVE",
"436 502 CURVE",
"444 475 OFFCURVE",
"473 456 OFFCURVE",
"505 456 CURVE SMOOTH",
"555 456 OFFCURVE",
"600 501 OFFCURVE",
"600 555 CURVE SMOOTH",
"600 625 OFFCURVE",
"521 674 OFFCURVE",
"400 674 CURVE SMOOTH",
"159 674 OFFCURVE",
"35 513 OFFCURVE",
"35 249 CURVE SMOOTH",
"35 81 OFFCURVE",
"117 -10 OFFCURVE",
"277 -10 CURVE SMOOTH"
);
},
{
closed = 1;
nodes = (
"211 0 LINE SMOOTH",
"541 0 OFFCURVE",
"641 204 OFFCURVE",
"641 413 CURVE SMOOTH",
"641 608 OFFCURVE",
"495 667 OFFCURVE",
"295 667 CURVE SMOOTH",
"86 667 LINE",
"80 626 LINE",
"108 622 OFFCURVE",
"135 610 OFFCURVE",
"146 596 CURVE",
"62 70 LINE",
"41 55 OFFCURVE",
"23 46 OFFCURVE",
"-9 41 CURVE",
"-14 0 LINE"
);
},
{
closed = 1;
nodes = (
"226 63 OFFCURVE",
"215 75 OFFCURVE",
"215 96 CURVE SMOOTH",
"215 107 OFFCURVE",
"216 113 OFFCURVE",
"218 123 CURVE SMOOTH",
"295 605 LINE",
"322 605 LINE SMOOTH",
"427 605 OFFCURVE",
"485 549 OFFCURVE",
"485 429 CURVE SMOOTH",
"485 297 OFFCURVE",
"450 63 OFFCURVE",
"251 63 CURVE SMOOTH"
);
},
{
closed = 1;
nodes = (
"513 -10 OFFCURVE",
"640 156 OFFCURVE",
"640 416 CURVE SMOOTH",
"640 591 OFFCURVE",
"559 678 OFFCURVE",
"393 678 CURVE SMOOTH",
"163 678 OFFCURVE",
"36 512 OFFCURVE",
"36 252 CURVE SMOOTH",
"36 77 OFFCURVE",
"117 -10 OFFCURVE",
"283 -10 CURVE SMOOTH"
);
},
{
closed = 1;
nodes = (
"203 50 OFFCURVE",
"192 130 OFFCURVE",
"192 220 CURVE SMOOTH",
"192 353 OFFCURVE",
"250 620 OFFCURVE",
"383 620 CURVE SMOOTH",
"473 620 OFFCURVE",
"484 540 OFFCURVE",
"484 450 CURVE SMOOTH",
"484 317 OFFCURVE",
"426 50 OFFCURVE",
"293 50 CURVE SMOOTH"
);
}
);
};
guideLines = (
{
angle = 81.5;
position = "{336, 323}";
}
);
layerId = "0FAD76F5-9F58-4721-BF81-08BC6166EF10";
paths = (
{
closed = 1;
nodes = (
"513 -10 OFFCURVE",
"640 166 OFFCURVE",
"640 416 CURVE SMOOTH",
"640 580 OFFCURVE",
"564 678 OFFCURVE",
"390 678 CURVE SMOOTH",
"163 678 OFFCURVE",
"36 502 OFFCURVE",
"36 252 CURVE SMOOTH",
"36 88 OFFCURVE",
"112 -10 OFFCURVE",
"286 -10 CURVE SMOOTH"
);
},
{
closed = 1;
nodes = (
"223 50 OFFCURVE",
"192 106 OFFCURVE",
"192 230 CURVE SMOOTH",
"192 365 OFFCURVE",
"250 620 OFFCURVE",
"380 620 CURVE SMOOTH",
"453 620 OFFCURVE",
"484 564 OFFCURVE",
"484 440 CURVE SMOOTH",
"484 307 OFFCURVE",
"426 50 OFFCURVE",
"296 50 CURVE SMOOTH"
);
}
);
width = 647;
}
);
leftKerningGroup = O;
rightKerningGroup = O;
unicode = 004F;
},
{
color = 4;
glyphname = P;
lastChange = "2019-11-29 21:43:35 +0000";
layers = (
{
background = {
anchors = (
{
name = top;
position = "{341, 705}";
}
);
paths = (
{
closed = 1;
nodes = (
"99 667 LINE",
"94 630 LINE",
"127 626 OFFCURVE",
"155 619 OFFCURVE",
"180 604 CURVE",
"93 63 LINE",
"65 46 OFFCURVE",
"41 41 OFFCURVE",
"8 37 CURVE",
"3 0 LINE",
"268 0 LINE",
"272 37 LINE",
"240 41 OFFCURVE",
"209 47 OFFCURVE",
"182 63 CURVE",
"219 293 LINE",
"254 293 LINE SMOOTH",
"424 293 OFFCURVE",
"541 352 OFFCURVE",
"541 522 CURVE SMOOTH",
"541 623 OFFCURVE",
"473 667 OFFCURVE",
"334 667 CURVE",
"334 667 LINE"
);
},
{
closed = 1;
nodes = (
"411 625 OFFCURVE",
"451 591 OFFCURVE",
"451 520 CURVE SMOOTH",
"451 400 OFFCURVE",
"374 338 OFFCURVE",
"254 338 CURVE SMOOTH",
"226 338 LINE",
"266 589 LINE SMOOTH",
"270 614 OFFCURVE",
"277 621 OFFCURVE",
"310 624 CURVE SMOOTH",
"320 625 OFFCURVE",
"332 625 OFFCURVE",
"342 625 CURVE",
"342 625 LINE"
);
},
{
closed = 1;
nodes = (
"268 0 LINE",
"272 37 LINE",
"240 41 OFFCURVE",
"209 47 OFFCURVE",
"182 63 CURVE",
"219 293 LINE",
"254 293 LINE SMOOTH",
"424 293 OFFCURVE",
"541 352 OFFCURVE",
"541 522 CURVE SMOOTH",
"541 623 OFFCURVE",
"473 667 OFFCURVE",
"334 667 CURVE SMOOTH",
"99 667 LINE",
"94 630 LINE",
"127 626 OFFCURVE",
"155 619 OFFCURVE",
"180 604 CURVE",
"93 63 LINE",
"65 46 OFFCURVE",
"41 41 OFFCURVE",
"8 37 CURVE",
"3 0 LINE"
);
},
{
closed = 1;
nodes = (
"266 589 LINE SMOOTH",
"270 614 OFFCURVE",
"277 621 OFFCURVE",
"310 624 CURVE SMOOTH",
"320 625 OFFCURVE",
"332 625 OFFCURVE",
"342 625 CURVE SMOOTH",
"411 625 OFFCURVE",
"451 591 OFFCURVE",
"451 520 CURVE SMOOTH",
"451 400 OFFCURVE",
"374 338 OFFCURVE",
"254 338 CURVE SMOOTH",
"226 338 LINE"
);
}
);
};
layerId = "CF479DE4-94A2-4865-8D1E-65EA355866D4";
paths = (
{
closed = 1;
nodes = (
"268 0 LINE",
"272 37 LINE",
"240 41 OFFCURVE",
"209 47 OFFCURVE",
"182 63 CURVE",
"219 293 LINE",
"254 293 LINE SMOOTH",
"424 293 OFFCURVE",
"541 352 OFFCURVE",
"541 522 CURVE SMOOTH",
"541 623 OFFCURVE",
"473 667 OFFCURVE",
"334 667 CURVE SMOOTH",
"99 667 LINE",
"94 630 LINE",
"127 626 OFFCURVE",
"155 619 OFFCURVE",
"180 604 CURVE",
"93 63 LINE",
"65 46 OFFCURVE",
"41 41 OFFCURVE",
"8 37 CURVE",
"3 0 LINE"
);
},
{
closed = 1;
nodes = (
"266 589 LINE SMOOTH",
"271 619 OFFCURVE",
"281 625 OFFCURVE",
"342 625 CURVE SMOOTH",
"411 625 OFFCURVE",
"451 591 OFFCURVE",
"451 520 CURVE SMOOTH",
"451 400 OFFCURVE",
"374 338 OFFCURVE",
"254 338 CURVE SMOOTH",
"226 338 LINE"
);
}
);
width = 503;
},
{
background = {
paths = (
{
closed = 1;
nodes = (
"301 0 LINE",
"306 41 LINE",
"274 48 OFFCURVE",
"232 57 OFFCURVE",
"219 71 CURVE",
"251 277 LINE",
"266 277 LINE SMOOTH",
"436 277 OFFCURVE",
"616 340 OFFCURVE",
"616 510 CURVE SMOOTH",
"616 614 OFFCURVE",
"538 667 OFFCURVE",
"382 667 CURVE SMOOTH",
"95 667 LINE",
"89 626 LINE",
"117 622 OFFCURVE",
"144 610 OFFCURVE",
"155 596 CURVE",
"72 71 LINE",
"51 55 OFFCURVE",
"33 46 OFFCURVE",
"0 41 CURVE",
"-5 0 LINE"
);
},
{
closed = 1;
nodes = (
"297 565 LINE SMOOTH",
"302 597 OFFCURVE",
"310 606 OFFCURVE",
"359 606 CURVE SMOOTH",
"441 606 OFFCURVE",
"468 564 OFFCURVE",
"468 507 CURVE SMOOTH",
"468 436 OFFCURVE",
"420 343 OFFCURVE",
"281 343 CURVE SMOOTH",
"262 343 LINE"
);
}
);
};
layerId = "0FAD76F5-9F58-4721-BF81-08BC6166EF10";
paths = (
{
closed = 1;
nodes = (
"301 0 LINE",
"306 41 LINE",
"274 48 OFFCURVE",
"232 57 OFFCURVE",
"219 71 CURVE",
"251 277 LINE",
"266 277 LINE SMOOTH",
"436 277 OFFCURVE",
"616 340 OFFCURVE",
"616 510 CURVE SMOOTH",
"616 614 OFFCURVE",
"538 667 OFFCURVE",
"382 667 CURVE SMOOTH",
"95 667 LINE",
"89 626 LINE",
"117 622 OFFCURVE",
"144 610 OFFCURVE",
"155 596 CURVE",
"72 71 LINE",
"51 55 OFFCURVE",
"33 46 OFFCURVE",
"0 41 CURVE",
"-5 0 LINE"
);
},
{
closed = 1;
nodes = (
"297 565 LINE SMOOTH",
"302 598 OFFCURVE",
"310 607 OFFCURVE",
"359 607 CURVE SMOOTH",
"438 607 OFFCURVE",
"468 565 OFFCURVE",
"468 507 CURVE SMOOTH",
"468 436 OFFCURVE",
"420 343 OFFCURVE",
"281 343 CURVE SMOOTH",
"262 343 LINE"
);
}
);
width = 578;
}
);
leftKerningGroup = H;
rightKerningGroup = P;
unicode = 0050;
},
{
color = 4;
glyphname = Q;
lastChange = "2019-11-27 00:05:32 +0000";
layers = (
{
background = {
anchors = (
{
name = top;
position = "{408, 705}";
}
);
paths = (
{
closed = 1;
nodes = (
"165 675 OFFCURVE",
"61 457 OFFCURVE",
"61 234 CURVE SMOOTH",
"61 85 OFFCURVE",
"119 2 OFFCURVE",
"256 -6 CURVE",
"281 -81 OFFCURVE",
"336 -148 OFFCURVE",
"451 -168 CURVE",
"461 -161 OFFCURVE",
"465 -151 OFFCURVE",
"466 -138 CURVE",
"400 -114 OFFCURVE",
"350 -64 OFFCURVE",
"336 -2 CURVE",
"519 31 OFFCURVE",
"606 229 OFFCURVE",
"606 433 CURVE SMOOTH",
"606 591 OFFCURVE",
"542 675 OFFCURVE",
"387 675 CURVE SMOOTH",
"387 675 LINE"
);
},
{
closed = 1;
nodes = (
"192 40 OFFCURVE",
"160 103 OFFCURVE",
"160 216 CURVE SMOOTH",
"160 464 OFFCURVE",
"259 627 OFFCURVE",
"394 627 CURVE SMOOTH",
"477 627 OFFCURVE",
"508 562 OFFCURVE",
"508 446 CURVE SMOOTH",
"508 201 OFFCURVE",
"407 40 OFFCURVE",
"274 40 CURVE SMOOTH",
"274 40 LINE"
);
}
);
};
layerId = "CF479DE4-94A2-4865-8D1E-65EA355866D4";
paths = (
{
closed = 1;
nodes = (
"461 -161 OFFCURVE",
"465 -151 OFFCURVE",
"466 -138 CURVE",
"400 -114 OFFCURVE",
"350 -64 OFFCURVE",
"336 -2 CURVE",
"519 31 OFFCURVE",
"606 229 OFFCURVE",
"606 433 CURVE SMOOTH",
"606 591 OFFCURVE",
"542 675 OFFCURVE",
"387 675 CURVE SMOOTH",
"165 675 OFFCURVE",
"61 457 OFFCURVE",
"61 234 CURVE SMOOTH",
"61 85 OFFCURVE",
"119 2 OFFCURVE",
"256 -6 CURVE",
"281 -81 OFFCURVE",
"336 -148 OFFCURVE",
"451 -168 CURVE"
);
},
{
closed = 1;
nodes = (
"192 40 OFFCURVE",
"160 103 OFFCURVE",
"160 216 CURVE SMOOTH",
"160 464 OFFCURVE",
"259 627 OFFCURVE",
"394 627 CURVE SMOOTH",
"477 627 OFFCURVE",
"508 562 OFFCURVE",
"508 446 CURVE SMOOTH",
"508 201 OFFCURVE",
"407 40 OFFCURVE",
"274 40 CURVE SMOOTH"
);
}
);
width = 622;
},
{
background = {
paths = (
{
closed = 1;
nodes = (
"38 85 OFFCURVE",
"122 -10 OFFCURVE",
"290 -10 CURVE SMOOTH",
"532 -10 OFFCURVE",
"651 155 OFFCURVE",
"651 413 CURVE SMOOTH",
"651 584 OFFCURVE",
"568 678 OFFCURVE",
"399 678 CURVE SMOOTH",
"160 678 OFFCURVE",
"38 516 OFFCURVE",
"38 257 CURVE SMOOTH"
);
}
);
};
layerId = "0FAD76F5-9F58-4721-BF81-08BC6166EF10";
paths = (
{
closed = 1;
nodes = (
"467 -168 OFFCURVE",
"475 -153 OFFCURVE",
"475 -138 CURVE",
"416 -114 OFFCURVE",
"369 -66 OFFCURVE",
"360 -5 CURVE",
"555 24 OFFCURVE",
"651 181 OFFCURVE",
"651 413 CURVE SMOOTH",
"651 584 OFFCURVE",
"568 678 OFFCURVE",
"399 678 CURVE SMOOTH",
"160 678 OFFCURVE",
"38 516 OFFCURVE",
"38 257 CURVE SMOOTH",
"38 105 OFFCURVE",
"103 13 OFFCURVE",
"234 -6 CURVE",
"261 -84 OFFCURVE",
"323 -153 OFFCURVE",
"457 -174 CURVE"
);
},
{
closed = 1;
nodes = (
"209 50 OFFCURVE",
"198 130 OFFCURVE",
"198 220 CURVE SMOOTH",
"198 353 OFFCURVE",
"256 620 OFFCURVE",
"389 620 CURVE SMOOTH",
"479 620 OFFCURVE",
"490 540 OFFCURVE",
"490 450 CURVE SMOOTH",
"490 317 OFFCURVE",
"432 50 OFFCURVE",
"299 50 CURVE SMOOTH"
);
}
);
width = 659;
}
);
leftKerningGroup = O;
rightKerningGroup = O;
unicode = 0051;
},
{
color = 4;
glyphname = R;
lastChange = "2019-11-29 22:11:09 +0000";
layers = (
{
anchors = (
{
name = bottom;
position = "{331, 0}";
},
{
name = top;
position = "{356, 667}";
}
);
background = {
anchors = (
{
name = bottom;
position = "{331, 0}";
},
{
name = cedilla;
position = "{299, 0}";
},
{
name = top;
position = "{356, 705}";
}
);
paths = (
{
closed = 1;
nodes = (
"94 630 LINE",
"127 626 OFFCURVE",
"155 619 OFFCURVE",
"180 604 CURVE",
"94 63 LINE",
"66 46 OFFCURVE",
"40 41 OFFCURVE",
"8 37 CURVE",
"3 0 LINE",
"267 0 LINE",
"272 37 LINE",
"240 41 OFFCURVE",
"209 47 OFFCURVE",
"182 62 CURVE",
"220 306 LINE",
"239 306 LINE SMOOTH",
"322 306 OFFCURVE",
"330 299 OFFCURVE",
"349 219 CURVE SMOOTH",
"384 69 LINE SMOOTH",
"398 9 OFFCURVE",
"417 0 OFFCURVE",
"464 0 CURVE SMOOTH",
"551 0 LINE",
"562 38 LINE",
"526 42 OFFCURVE",
"485 54 OFFCURVE",
"478 80 CURVE SMOOTH",
"434 236 LINE SMOOTH",
"421 280 OFFCURVE",
"407 307 OFFCURVE",
"382 322 CURVE",
"483 349 OFFCURVE",
"541 417 OFFCURVE",
"541 523 CURVE SMOOTH",
"541 619 OFFCURVE",
"472 667 OFFCURVE",
"339 667 CURVE SMOOTH",
"99 667 LINE"
);
},
{
closed = 1;
nodes = (
"266 592 LINE",
"272 620 OFFCURVE",
"283 625 OFFCURVE",
"332 625 CURVE SMOOTH",
"411 625 OFFCURVE",
"450 590 OFFCURVE",
"450 521 CURVE SMOOTH",
"450 392 OFFCURVE",
"349 352 OFFCURVE",
"244 352 CURVE SMOOTH",
"228 352 LINE"
);
}
);
};
layerId = "CF479DE4-94A2-4865-8D1E-65EA355866D4";
paths = (
{
closed = 1;
nodes = (
"267 0 LINE",
"272 37 LINE",
"240 41 OFFCURVE",
"209 47 OFFCURVE",
"182 62 CURVE",
"220 306 LINE",
"239 306 LINE SMOOTH",
"322 306 OFFCURVE",
"330 299 OFFCURVE",
"349 219 CURVE SMOOTH",
"384 69 LINE SMOOTH",
"398 9 OFFCURVE",
"417 0 OFFCURVE",
"464 0 CURVE SMOOTH",
"551 0 LINE",
"562 38 LINE",
"526 42 OFFCURVE",
"485 54 OFFCURVE",
"478 80 CURVE SMOOTH",
"434 236 LINE SMOOTH",
"421 280 OFFCURVE",
"407 307 OFFCURVE",
"382 322 CURVE",
"483 349 OFFCURVE",
"541 417 OFFCURVE",
"541 523 CURVE SMOOTH",
"541 619 OFFCURVE",
"472 667 OFFCURVE",
"339 667 CURVE SMOOTH",
"99 667 LINE",
"94 630 LINE",
"127 626 OFFCURVE",
"155 619 OFFCURVE",
"180 604 CURVE",
"94 63 LINE",
"66 46 OFFCURVE",
"40 41 OFFCURVE",
"8 37 CURVE",
"3 0 LINE"
);
},
{
closed = 1;
nodes = (
"266 592 LINE",
"272 620 OFFCURVE",
"283 625 OFFCURVE",
"332 625 CURVE SMOOTH",
"411 625 OFFCURVE",
"450 590 OFFCURVE",
"450 521 CURVE SMOOTH",
"450 392 OFFCURVE",
"349 352 OFFCURVE",
"244 352 CURVE SMOOTH",
"228 352 LINE"
);
}
);
width = 574;
},
{
anchors = (
{
name = bottom;
position = "{344, 0}";
},
{
name = top;
position = "{378, 667}";
}
);
layerId = "0FAD76F5-9F58-4721-BF81-08BC6166EF10";
paths = (
{
closed = 1;
nodes = (
"281 0 LINE",
"286 41 LINE",
"254 48 OFFCURVE",
"232 57 OFFCURVE",
"219 71 CURVE",
"256 302 LINE",
"264 302 LINE SMOOTH",
"293 302 OFFCURVE",
"321 295 OFFCURVE",
"330 262 CURVE SMOOTH",
"382 66 LINE SMOOTH",
"391 22 OFFCURVE",
"426 0 OFFCURVE",
"470 0 CURVE SMOOTH",
"596 0 LINE",
"601 41 LINE",
"571 46 OFFCURVE",
"541 59 OFFCURVE",
"536 76 CURVE SMOOTH",
"484 252 LINE SMOOTH",
"474 287 OFFCURVE",
"452 311 OFFCURVE",
"425 324 CURVE",
"528 353 OFFCURVE",
"607 415 OFFCURVE",
"607 519 CURVE SMOOTH",
"607 617 OFFCURVE",
"533 667 OFFCURVE",
"377 667 CURVE SMOOTH",
"95 667 LINE",
"89 626 LINE",
"117 622 OFFCURVE",
"144 610 OFFCURVE",
"155 596 CURVE",
"72 71 LINE",
"51 55 OFFCURVE",
"33 46 OFFCURVE",
"0 41 CURVE",
"-5 0 LINE"
);
},
{
closed = 1;
nodes = (
"298 566 LINE SMOOTH",
"304 600 OFFCURVE",
"312 606 OFFCURVE",
"360 606 CURVE SMOOTH",
"436 606 OFFCURVE",
"459 568 OFFCURVE",
"459 515 CURVE SMOOTH",
"459 448 OFFCURVE",
"411 363 OFFCURVE",
"272 363 CURVE SMOOTH",
"265 363 LINE"
);
}
);
width = 631;
}
);
leftKerningGroup = H;
rightKerningGroup = R;
unicode = 0052;
},
{
color = 4;
glyphname = S;
lastChange = "2019-11-29 22:13:09 +0000";
layers = (
{
anchors = (
{
name = bottom;
position = "{176, 0}";
},
{
name = cedilla;
position = "{162, 0}";
},
{
name = top;
position = "{298, 667}";
}
);
background = {
anchors = (
{
name = bottom;
position = "{227, 0}";
},
{
name = cedilla;
position = "{160, 0}";
},
{
name = top;
position = "{298, 705}";
}
);
paths = (
{
closed = 1;
nodes = (
"331 622 OFFCURVE",
"354 597 OFFCURVE",
"354 569 CURVE SMOOTH",
"354 555 OFFCURVE",
"348 539 OFFCURVE",
"336 525 CURVE",
"338 506 OFFCURVE",
"358 492 OFFCURVE",
"385 492 CURVE SMOOTH",
"428 492 OFFCURVE",
"449 532 OFFCURVE",
"449 565 CURVE SMOOTH",
"449 622 OFFCURVE",
"403 675 OFFCURVE",
"300 675 CURVE SMOOTH",
"195 675 OFFCURVE",
"84 607 OFFCURVE",
"84 476 CURVE SMOOTH",
"84 342 OFFCURVE",
"291 252 OFFCURVE",
"291 147 CURVE SMOOTH",
"291 87 OFFCURVE",
"243 46 OFFCURVE",
"183 46 CURVE SMOOTH",
"143 46 OFFCURVE",
"101 61 OFFCURVE",
"79 83 CURVE",
"76 96 OFFCURVE",
"74 114 OFFCURVE",
"74 132 CURVE SMOOTH",
"74 154 OFFCURVE",
"76 178 OFFCURVE",
"80 201 CURVE",
"34 208 LINE",
"-10 44 LINE",
"37 15 OFFCURVE",
"89 -7 OFFCURVE",
"161 -7 CURVE SMOOTH",
"249 -7 OFFCURVE",
"382 36 OFFCURVE",
"382 182 CURVE SMOOTH",
"382 333 OFFCURVE",
"172 413 OFFCURVE",
"172 521 CURVE SMOOTH",
"172 581 OFFCURVE",
"220 624 OFFCURVE",
"280 624 CURVE",
"280 624 LINE"
);
},
{
closed = 1;
nodes = (
"249 -7 OFFCURVE",
"382 36 OFFCURVE",
"382 182 CURVE SMOOTH",
"382 259 OFFCURVE",
"328 317 OFFCURVE",
"275 370 CURVE SMOOTH",
"223 421 OFFCURVE",
"172 468 OFFCURVE",
"172 521 CURVE SMOOTH",
"172 581 OFFCURVE",
"220 624 OFFCURVE",
"280 624 CURVE SMOOTH",
"331 622 OFFCURVE",
"354 597 OFFCURVE",
"354 569 CURVE SMOOTH",
"354 555 OFFCURVE",
"348 539 OFFCURVE",
"336 525 CURVE",
"338 506 OFFCURVE",
"358 492 OFFCURVE",
"385 492 CURVE SMOOTH",
"428 492 OFFCURVE",
"449 532 OFFCURVE",
"449 565 CURVE SMOOTH",
"449 622 OFFCURVE",
"403 675 OFFCURVE",
"300 675 CURVE SMOOTH",
"195 675 OFFCURVE",
"84 607 OFFCURVE",
"84 476 CURVE SMOOTH",
"84 414 OFFCURVE",
"128 361 OFFCURVE",
"176 312 CURVE SMOOTH",
"231 255 OFFCURVE",
"291 203 OFFCURVE",
"291 147 CURVE SMOOTH",
"291 87 OFFCURVE",
"243 46 OFFCURVE",
"183 46 CURVE SMOOTH",
"143 46 OFFCURVE",
"101 61 OFFCURVE",
"79 83 CURVE",
"76 96 OFFCURVE",
"74 114 OFFCURVE",
"74 132 CURVE SMOOTH",
"74 154 OFFCURVE",
"76 178 OFFCURVE",
"80 201 CURVE",
"34 208 LINE",
"-10 44 LINE",
"37 15 OFFCURVE",
"89 -7 OFFCURVE",
"161 -7 CURVE SMOOTH"
);
}
);
};
layerId = "CF479DE4-94A2-4865-8D1E-65EA355866D4";
paths = (
{
closed = 1;
nodes = (
"249 -7 OFFCURVE",
"382 36 OFFCURVE",
"382 182 CURVE SMOOTH",
"382 259 OFFCURVE",
"323 316 OFFCURVE",
"270 369 CURVE SMOOTH",
"218 420 OFFCURVE",
"172 468 OFFCURVE",
"172 521 CURVE SMOOTH",
"172 581 OFFCURVE",
"220 624 OFFCURVE",
"280 624 CURVE SMOOTH",
"331 622 OFFCURVE",
"354 597 OFFCURVE",
"354 569 CURVE SMOOTH",
"354 555 OFFCURVE",
"348 539 OFFCURVE",
"336 525 CURVE",
"338 506 OFFCURVE",
"358 492 OFFCURVE",
"385 492 CURVE SMOOTH",
"428 492 OFFCURVE",
"449 532 OFFCURVE",
"449 565 CURVE SMOOTH",
"449 627 OFFCURVE",
"396 675 OFFCURVE",
"300 675 CURVE SMOOTH",
"195 675 OFFCURVE",
"84 607 OFFCURVE",
"84 483 CURVE SMOOTH",
"84 415 OFFCURVE",
"130 364 OFFCURVE",
"178 315 CURVE SMOOTH",
"233 258 OFFCURVE",
"291 204 OFFCURVE",
"291 147 CURVE SMOOTH",
"291 87 OFFCURVE",
"243 46 OFFCURVE",
"183 46 CURVE SMOOTH",
"143 46 OFFCURVE",
"101 61 OFFCURVE",
"79 83 CURVE",
"76 96 OFFCURVE",
"74 114 OFFCURVE",
"74 132 CURVE SMOOTH",
"74 154 OFFCURVE",
"76 178 OFFCURVE",
"80 201 CURVE",
"34 208 LINE",
"-10 44 LINE",
"37 15 OFFCURVE",
"89 -7 OFFCURVE",
"161 -7 CURVE SMOOTH"
);
}
);
width = 414;
},
{
anchors = (
{
name = bottom;
position = "{225, 0}";
},
{
name = cedilla;
position = "{220, 0}";
},
{
name = top;
position = "{310, 667}";
}
);
background = {
paths = (
{
closed = 1;
nodes = (
"48 221 LINE",
"-2 44 LINE",
"56 11 OFFCURVE",
"130 -7 OFFCURVE",
"204 -7 CURVE SMOOTH",
"351 -7 OFFCURVE",
"458 82 OFFCURVE",
"458 222 CURVE SMOOTH",
"458 305 OFFCURVE",
"415 363 OFFCURVE",
"310 412 CURVE SMOOTH",
"233 447 OFFCURVE",
"204 476 OFFCURVE",
"204 524 CURVE SMOOTH",
"204 584 OFFCURVE",
"249 621 OFFCURVE",
"311 621 CURVE SMOOTH",
"361 621 OFFCURVE",
"391 601 OFFCURVE",
"391 568 CURVE SMOOTH",
"391 547 OFFCURVE",
"377 522 OFFCURVE",
"355 501 CURVE",
"379 480 OFFCURVE",
"402 471 OFFCURVE",
"427 471 CURVE SMOOTH",
"471 471 OFFCURVE",
"504 507 OFFCURVE",
"504 556 CURVE SMOOTH",
"504 622 OFFCURVE",
"425 675 OFFCURVE",
"318 675 CURVE SMOOTH",
"177 675 OFFCURVE",
"61 586 OFFCURVE",
"61 458 CURVE SMOOTH",
"61 379 OFFCURVE",
"104 332 OFFCURVE",
"208 286 CURVE SMOOTH",
"275 256 OFFCURVE",
"307 218 OFFCURVE",
"307 161 CURVE SMOOTH",
"307 92 OFFCURVE",
"261 48 OFFCURVE",
"203 48 CURVE SMOOTH",
"175 48 OFFCURVE",
"135 59 OFFCURVE",
"107 82 CURVE",
"105 96 OFFCURVE",
"104 110 OFFCURVE",
"104 127 CURVE SMOOTH",
"104 150 OFFCURVE",
"106 177 OFFCURVE",
"110 210 CURVE"
);
},
{
closed = 1;
nodes = (
"299 270 OFFCURVE",
"334 305 OFFCURVE",
"334 349 CURVE SMOOTH",
"334 392 OFFCURVE",
"299 427 OFFCURVE",
"256 427 CURVE SMOOTH",
"212 427 OFFCURVE",
"177 392 OFFCURVE",
"177 349 CURVE SMOOTH",
"177 305 OFFCURVE",
"212 270 OFFCURVE",
"256 270 CURVE SMOOTH"
);
}
);
};
layerId = "0FAD76F5-9F58-4721-BF81-08BC6166EF10";
paths = (
{
closed = 1;
nodes = (
"351 -7 OFFCURVE",
"458 82 OFFCURVE",
"458 222 CURVE SMOOTH",
"458 304 OFFCURVE",
"411 357 OFFCURVE",
"319 405 CURVE SMOOTH",
"235 449 OFFCURVE",
"204 475 OFFCURVE",
"204 524 CURVE SMOOTH",
"204 584 OFFCURVE",
"249 621 OFFCURVE",
"311 621 CURVE SMOOTH",
"361 621 OFFCURVE",
"391 601 OFFCURVE",
"391 568 CURVE SMOOTH",
"391 547 OFFCURVE",
"377 522 OFFCURVE",
"355 501 CURVE",
"379 480 OFFCURVE",
"402 471 OFFCURVE",
"427 471 CURVE SMOOTH",
"471 471 OFFCURVE",
"504 507 OFFCURVE",
"504 556 CURVE SMOOTH",
"504 622 OFFCURVE",
"425 675 OFFCURVE",
"318 675 CURVE SMOOTH",
"177 675 OFFCURVE",
"61 586 OFFCURVE",
"61 458 CURVE SMOOTH",
"61 382 OFFCURVE",
"111 335 OFFCURVE",
"195 292 CURVE SMOOTH",
"274 251 OFFCURVE",
"307 218 OFFCURVE",
"307 161 CURVE SMOOTH",
"307 92 OFFCURVE",
"261 50 OFFCURVE",
"203 50 CURVE SMOOTH",
"175 50 OFFCURVE",
"145 59 OFFCURVE",
"117 82 CURVE",
"115 96 OFFCURVE",
"114 110 OFFCURVE",
"114 127 CURVE SMOOTH",
"114 150 OFFCURVE",
"117 175 OFFCURVE",
"121 208 CURVE",
"48 221 LINE",
"-2 44 LINE",
"56 11 OFFCURVE",
"130 -7 OFFCURVE",
"204 -7 CURVE SMOOTH"
);
}
);
width = 490;
}
);
leftKerningGroup = S;
rightKerningGroup = S;
unicode = 0053;
},
{
color = 4;
glyphname = T;
lastChange = "2019-11-29 22:09:41 +0000";
layers = (
{
anchors = (
{
name = bottom;
position = "{218, 0}";
},
{
name = top;
position = "{316, 667}";
}
);
background = {
anchors = (
{
name = bottom;
position = "{257, 0}";
},
{
name = cedilla;
position = "{212, 0}";
},
{
name = top;
position = "{323, 705}";
}
);
paths = (
{
closed = 1;
nodes = (
"360 0 LINE",
"365 37 LINE",
"333 41 OFFCURVE",
"293 47 OFFCURVE",
"265 62 CURVE",
"353 615 LINE",
"413 614 OFFCURVE",
"453 613 OFFCURVE",
"481 611 CURVE",
"495 583 OFFCURVE",
"499 550 OFFCURVE",
"499 524 CURVE SMOOTH",
"499 515 OFFCURVE",
"499 508 OFFCURVE",
"498 501 CURVE",
"505 500 OFFCURVE",
"513 499 OFFCURVE",
"521 499 CURVE SMOOTH",
"528 499 OFFCURVE",
"535 499 OFFCURVE",
"543 501 CURVE",
"569 670 LINE",
"569 670 OFFCURVE",
"398 667 OFFCURVE",
"302 667 CURVE SMOOTH",
"179 667 OFFCURVE",
"81 670 OFFCURVE",
"59 670 CURVE",
"33 501 LINE",
"39 499 OFFCURVE",
"46 499 OFFCURVE",
"53 499 CURVE SMOOTH",
"61 499 OFFCURVE",
"69 500 OFFCURVE",
"77 501 CURVE",
"83 529 OFFCURVE",
"101 576 OFFCURVE",
"130 613 CURVE",
"158 614 OFFCURVE",
"200 615 OFFCURVE",
"265 615 CURVE",
"176 62 LINE",
"148 45 OFFCURVE",
"113 40 OFFCURVE",
"82 37 CURVE",
"76 0 LINE"
);
},
{
closed = 1;
nodes = (
"360 0 LINE",
"365 37 LINE",
"333 41 OFFCURVE",
"293 47 OFFCURVE",
"265 62 CURVE",
"353 615 LINE",
"413 614 OFFCURVE",
"453 613 OFFCURVE",
"481 611 CURVE",
"495 583 OFFCURVE",
"499 550 OFFCURVE",
"499 524 CURVE SMOOTH",
"499 515 OFFCURVE",
"499 508 OFFCURVE",
"498 501 CURVE",
"505 500 OFFCURVE",
"513 499 OFFCURVE",
"521 499 CURVE SMOOTH",
"528 499 OFFCURVE",
"535 499 OFFCURVE",
"543 501 CURVE",
"569 670 LINE",
"569 670 OFFCURVE",
"398 667 OFFCURVE",
"302 667 CURVE SMOOTH",
"179 667 OFFCURVE",
"81 670 OFFCURVE",
"59 670 CURVE",
"33 501 LINE",
"39 499 OFFCURVE",
"46 499 OFFCURVE",
"53 499 CURVE SMOOTH",
"61 499 OFFCURVE",
"69 500 OFFCURVE",
"77 501 CURVE",
"83 529 OFFCURVE",
"101 576 OFFCURVE",
"130 613 CURVE",
"158 614 OFFCURVE",
"200 615 OFFCURVE",
"265 615 CURVE",
"176 62 LINE",
"148 45 OFFCURVE",
"113 40 OFFCURVE",
"82 37 CURVE",
"76 0 LINE"
);
}
);
};
layerId = "CF479DE4-94A2-4865-8D1E-65EA355866D4";
paths = (
{
closed = 1;
nodes = (
"360 0 LINE",
"365 37 LINE",
"333 41 OFFCURVE",
"293 47 OFFCURVE",
"265 62 CURVE",
"353 615 LINE",
"413 614 OFFCURVE",
"453 613 OFFCURVE",
"481 611 CURVE",
"497 580 OFFCURVE",
"502 538 OFFCURVE",
"498 501 CURVE",
"505 500 OFFCURVE",
"513 499 OFFCURVE",
"521 499 CURVE SMOOTH",
"528 499 OFFCURVE",
"535 499 OFFCURVE",
"543 501 CURVE",
"569 670 LINE",
"536 668 OFFCURVE",
"428 667 OFFCURVE",
"302 667 CURVE SMOOTH",
"209 667 OFFCURVE",
"109 669 OFFCURVE",
"59 670 CURVE",
"33 501 LINE",
"39 499 OFFCURVE",
"46 499 OFFCURVE",
"53 499 CURVE SMOOTH",
"61 499 OFFCURVE",
"69 500 OFFCURVE",
"77 501 CURVE",
"83 529 OFFCURVE",
"101 576 OFFCURVE",
"130 613 CURVE",
"158 614 OFFCURVE",
"200 615 OFFCURVE",
"265 615 CURVE",
"176 62 LINE",
"148 45 OFFCURVE",
"113 40 OFFCURVE",
"82 37 CURVE",
"76 0 LINE"
);
}
);
width = 505;
},
{
anchors = (
{
name = bottom;
position = "{249, 0}";
},
{
name = top;
position = "{351, 667}";
}
);
layerId = "0FAD76F5-9F58-4721-BF81-08BC6166EF10";
paths = (
{
closed = 1;
nodes = (
"412 0 LINE",
"417 41 LINE",
"385 48 OFFCURVE",
"343 57 OFFCURVE",
"330 71 CURVE",
"415 606 LINE",
"454 605 OFFCURVE",
"477 602 OFFCURVE",
"507 598 CURVE",
"519 571 OFFCURVE",
"524 528 OFFCURVE",
"524 483 CURVE",
"536 481 OFFCURVE",
"548 480 OFFCURVE",
"560 480 CURVE SMOOTH",
"571 480 OFFCURVE",
"582 481 OFFCURVE",
"593 483 CURVE",
"623 671 LINE",
"590 670 OFFCURVE",
"432 667 OFFCURVE",
"351 667 CURVE SMOOTH",
"217 667 OFFCURVE",
"133 668 OFFCURVE",
"80 671 CURVE",
"50 483 LINE",
"61 481 OFFCURVE",
"72 480 OFFCURVE",
"83 480 CURVE SMOOTH",
"95 480 OFFCURVE",
"107 481 OFFCURVE",
"119 483 CURVE",
"127 522 OFFCURVE",
"150 570 OFFCURVE",
"176 599 CURVE",
"205 601 OFFCURVE",
"229 604 OFFCURVE",
"268 605 CURVE",
"183 71 LINE",
"162 55 OFFCURVE",
"124 46 OFFCURVE",
"91 41 CURVE",
"86 0 LINE"
);
}
);
width = 567;
}
);
leftKerningGroup = T;
rightKerningGroup = T;
unicode = 0054;
},
{
color = 4;
glyphname = U;
lastChange = "2019-11-29 22:48:30 +0000";
layers = (
{
anchors = (
{
name = ogonek;
position = "{348, 0}";
},
{
name = top;
position = "{393, 667}";
}
);
background = {
anchors = (
{
name = ogonek;
position = "{347, 0}";
},
{
name = top;
position = "{394, 705}";
}
);
paths = (
{
closed = 1;
nodes = (
"446 667 LINE",
"441 630 LINE",
"474 626 OFFCURVE",
"502 619 OFFCURVE",
"527 604 CURVE",
"464 212 LINE SMOOTH",
"447 104 OFFCURVE",
"386 45 OFFCURVE",
"293 45 CURVE SMOOTH",
"214 45 OFFCURVE",
"174 77 OFFCURVE",
"174 157 CURVE SMOOTH",
"174 172 OFFCURVE",
"175 188 OFFCURVE",
"178 207 CURVE SMOOTH",
"242 605 LINE",
"269 620 OFFCURVE",
"294 626 OFFCURVE",
"325 630 CURVE",
"331 667 LINE",
"71 667 LINE",
"66 630 LINE",
"99 626 OFFCURVE",
"128 619 OFFCURVE",
"152 604 CURVE",
"88 207 LINE SMOOTH",
"85 186 OFFCURVE",
"83 167 OFFCURVE",
"83 150 CURVE SMOOTH",
"83 42 OFFCURVE",
"145 -7 OFFCURVE",
"283 -7 CURVE SMOOTH",
"419 -7 OFFCURVE",
"506 72 OFFCURVE",
"528 212 CURVE SMOOTH",
"591 605 LINE",
"618 620 OFFCURVE",
"643 626 OFFCURVE",
"674 630 CURVE",
"680 667 LINE"
);
}
);
};
layerId = "CF479DE4-94A2-4865-8D1E-65EA355866D4";
paths = (
{
closed = 1;
nodes = (
"419 -7 OFFCURVE",
"506 72 OFFCURVE",
"528 212 CURVE SMOOTH",
"591 605 LINE",
"618 620 OFFCURVE",
"643 626 OFFCURVE",
"674 630 CURVE",
"680 667 LINE",
"446 667 LINE",
"441 630 LINE",
"474 626 OFFCURVE",
"502 619 OFFCURVE",
"527 604 CURVE",
"464 212 LINE SMOOTH",
"447 104 OFFCURVE",
"386 45 OFFCURVE",
"293 45 CURVE SMOOTH",
"214 45 OFFCURVE",
"174 77 OFFCURVE",
"174 157 CURVE SMOOTH",
"174 172 OFFCURVE",
"175 188 OFFCURVE",
"178 207 CURVE SMOOTH",
"242 605 LINE",
"269 620 OFFCURVE",
"294 626 OFFCURVE",
"325 630 CURVE",
"331 667 LINE",
"71 667 LINE",
"66 630 LINE",
"99 626 OFFCURVE",
"128 619 OFFCURVE",
"152 604 CURVE",
"88 207 LINE SMOOTH",
"85 186 OFFCURVE",
"83 167 OFFCURVE",
"83 150 CURVE SMOOTH",
"83 42 OFFCURVE",
"145 -7 OFFCURVE",
"283 -7 CURVE SMOOTH"
);
}
);
width = 623;
},
{
anchors = (
{
name = ogonek;
position = "{377, 0}";
},
{
name = top;
position = "{427, 667}";
}
);
background = {
paths = (
{
closed = 1;
nodes = (
"468 626 LINE",
"496 622 OFFCURVE",
"523 610 OFFCURVE",
"534 596 CURVE",
"473 213 LINE SMOOTH",
"456 106 OFFCURVE",
"388 77 OFFCURVE",
"328 77 CURVE SMOOTH",
"256 77 OFFCURVE",
"225 106 OFFCURVE",
"225 182 CURVE SMOOTH",
"225 255 OFFCURVE",
"283 596 OFFCURVE",
"284 596 CURVE SMOOTH",
"307 613 OFFCURVE",
"324 620 OFFCURVE",
"357 626 CURVE",
"363 667 LINE",
"77 667 LINE",
"71 626 LINE",
"99 622 OFFCURVE",
"126 610 OFFCURVE",
"137 596 CURVE",
"77 209 LINE SMOOTH",
"74 193 OFFCURVE",
"73 177 OFFCURVE",
"73 163 CURVE SMOOTH",
"73 45 OFFCURVE",
"164 -7 OFFCURVE",
"298 -7 CURVE SMOOTH",
"463 -7 OFFCURVE",
"553 58 OFFCURVE",
"577 208 CURVE SMOOTH",
"638 596 LINE",
"661 613 OFFCURVE",
"678 620 OFFCURVE",
"711 626 CURVE",
"717 667 LINE",
"474 667 LINE"
);
}
);
};
layerId = "0FAD76F5-9F58-4721-BF81-08BC6166EF10";
paths = (
{
closed = 1;
nodes = (
"489 -7 OFFCURVE",
"558 83 OFFCURVE",
"583 245 CURVE SMOOTH",
"637 596 LINE",
"660 613 OFFCURVE",
"677 620 OFFCURVE",
"710 626 CURVE",
"716 667 LINE",
"487 667 LINE",
"481 626 LINE",
"509 622 OFFCURVE",
"536 610 OFFCURVE",
"547 596 CURVE",
"490 223 LINE",
"475 132 OFFCURVE",
"437 60 OFFCURVE",
"340 60 CURVE SMOOTH",
"257 60 OFFCURVE",
"220 97 OFFCURVE",
"220 168 CURVE SMOOTH",
"220 193 OFFCURVE",
"234 285 OFFCURVE",
"236 299 CURVE SMOOTH",
"283 596 LINE",
"306 613 OFFCURVE",
"323 620 OFFCURVE",
"356 626 CURVE",
"362 667 LINE",
"76 667 LINE",
"70 626 LINE",
"98 622 OFFCURVE",
"125 610 OFFCURVE",
"136 596 CURVE",
"92 303 LINE SMOOTH",
"85 263 OFFCURVE",
"72 186 OFFCURVE",
"72 161 CURVE SMOOTH",
"72 55 OFFCURVE",
"150 -7 OFFCURVE",
"307 -7 CURVE SMOOTH"
);
}
);
width = 662;
}
);
leftKerningGroup = U;
rightKerningGroup = U;
unicode = 0055;
},
{
color = 4;
glyphname = V;
lastChange = "2019-11-29 22:08:00 +0000";
layers = (
{
background = {
anchors = (
{
name = top;
position = "{353, 705}";
}
);
paths = (
{
closed = 1;
nodes = (
"397 667 LINE",
"392 630 LINE",
"424 626 OFFCURVE",
"452 619 OFFCURVE",
"476 605 CURVE",
"275 145 LINE",
"208 604 LINE",
"239 620 OFFCURVE",
"264 626 OFFCURVE",
"296 630 CURVE",
"301 667 LINE",
"52 667 LINE",
"47 630 LINE",
"70 627 OFFCURVE",
"92 619 OFFCURVE",
"111 609 CURVE",
"210 0 LINE",
"230 -7 OFFCURVE",
"264 -7 OFFCURVE",
"264 -7 CURVE",
"544 611 LINE",
"566 621 OFFCURVE",
"588 626 OFFCURVE",
"616 630 CURVE",
"621 667 LINE"
);
}
);
};
layerId = "CF479DE4-94A2-4865-8D1E-65EA355866D4";
paths = (
{
closed = 1;
nodes = (
"544 611 LINE",
"566 621 OFFCURVE",
"588 626 OFFCURVE",
"616 630 CURVE",
"621 667 LINE",
"397 667 LINE",
"392 630 LINE",
"424 626 OFFCURVE",
"452 619 OFFCURVE",
"476 605 CURVE",
"275 145 LINE",
"208 604 LINE",
"239 620 OFFCURVE",
"264 626 OFFCURVE",
"296 630 CURVE",
"301 667 LINE",
"52 667 LINE",
"47 630 LINE",
"70 627 OFFCURVE",
"92 619 OFFCURVE",
"111 609 CURVE",
"210 0 LINE",
"223 -5 OFFCURVE",
"247 -8 OFFCURVE",
"264 -7 CURVE"
);
}
);
width = 553;
},
{
background = {
paths = (
{
closed = 1;
nodes = (
"285 0 LINE",
"590 602 LINE",
"605 619 OFFCURVE",
"629 624 OFFCURVE",
"655 626 CURVE",
"661 667 LINE",
"435 667 LINE",
"430 627 LINE",
"463 623 OFFCURVE",
"493 613 OFFCURVE",
"510 597 CURVE",
"309 185 LINE",
"260 605 LINE",
"280 618 OFFCURVE",
"303 625 OFFCURVE",
"327 627 CURVE",
"333 667 LINE",
"57 667 LINE",
"52 626 LINE",
"79 620 OFFCURVE",
"107 608 OFFCURVE",
"110 585 CURVE SMOOTH",
"184 0 LINE"
);
}
);
};
layerId = "0FAD76F5-9F58-4721-BF81-08BC6166EF10";
paths = (
{
closed = 1;
nodes = (
"585 593 LINE SMOOTH",
"597 617 OFFCURVE",
"624 625 OFFCURVE",
"655 626 CURVE",
"661 667 LINE",
"435 667 LINE",
"430 627 LINE",
"463 623 OFFCURVE",
"493 613 OFFCURVE",
"510 597 CURVE",
"313 185 LINE",
"260 605 LINE",
"280 618 OFFCURVE",
"303 625 OFFCURVE",
"327 627 CURVE",
"333 667 LINE",
"57 667 LINE",
"52 626 LINE",
"98 615 OFFCURVE",
"107 602 OFFCURVE",
"111 576 CURVE SMOOTH",
"194 0 LINE",
"221 -5 OFFCURVE",
"259 -8 OFFCURVE",
"290 -8 CURVE"
);
}
);
width = 594;
}
);
leftKerningGroup = V;
rightKerningGroup = V;
unicode = 0056;
},
{
color = 4;
glyphname = W;
lastChange = "2019-11-29 22:08:30 +0000";
layers = (
{
anchors = (
{
name = top;
position = "{507, 667}";
}
);
background = {
anchors = (
{
name = top;
position = "{508, 705}";
}
);
paths = (
{
closed = 1;
nodes = (
"52 667 LINE",
"47 630 LINE",
"71 627 OFFCURVE",
"94 618 OFFCURVE",
"114 608 CURVE",
"167 0 LINE",
"186 -7 OFFCURVE",
"221 -7 OFFCURVE",
"221 -7 CURVE",
"457 477 LINE",
"503 0 LINE",
"522 -7 OFFCURVE",
"557 -7 OFFCURVE",
"557 -7 CURVE",
"845 605 LINE",
"865 617 OFFCURVE",
"892 625 OFFCURVE",
"913 630 CURVE",
"918 667 LINE",
"699 667 LINE",
"694 630 LINE",
"726 626 OFFCURVE",
"754 619 OFFCURVE",
"779 604 CURVE",
"571 152 LINE",
"536 657 LINE",
"536 657 OFFCURVE",
"495 656 OFFCURVE",
"476 649 CURVE",
"236 150 LINE",
"208 604 LINE",
"239 620 OFFCURVE",
"264 626 OFFCURVE",
"296 630 CURVE",
"301 667 LINE"
);
},
{
closed = 1;
nodes = (
"52 667 LINE",
"47 630 LINE",
"71 627 OFFCURVE",
"94 618 OFFCURVE",
"114 608 CURVE",
"167 0 LINE",
"186 -7 OFFCURVE",
"221 -7 OFFCURVE",
"221 -7 CURVE",
"457 477 LINE",
"503 0 LINE",
"522 -7 OFFCURVE",
"557 -7 OFFCURVE",
"557 -7 CURVE",
"845 605 LINE",
"865 617 OFFCURVE",
"892 625 OFFCURVE",
"913 630 CURVE",
"918 667 LINE",
"699 667 LINE",
"694 630 LINE",
"726 626 OFFCURVE",
"754 619 OFFCURVE",
"779 604 CURVE",
"571 152 LINE",
"536 657 LINE",
"536 657 OFFCURVE",
"495 656 OFFCURVE",
"476 649 CURVE",
"236 150 LINE",
"208 604 LINE",
"239 620 OFFCURVE",
"264 626 OFFCURVE",
"296 630 CURVE",
"301 667 LINE"
);
}
);
};
layerId = "CF479DE4-94A2-4865-8D1E-65EA355866D4";
paths = (
{
closed = 1;
nodes = (
"457 477 LINE",
"503 0 LINE",
"522 -7 OFFCURVE",
"539 -7 OFFCURVE",
"557 -7 CURVE",
"845 605 LINE",
"865 617 OFFCURVE",
"892 625 OFFCURVE",
"913 630 CURVE",
"918 667 LINE",
"699 667 LINE",
"694 630 LINE",
"726 626 OFFCURVE",
"754 619 OFFCURVE",
"779 604 CURVE",
"571 152 LINE",
"536 657 LINE",
"513 657 OFFCURVE",
"493 655 OFFCURVE",
"476 649 CURVE",
"236 150 LINE",
"208 604 LINE",
"239 620 OFFCURVE",
"264 626 OFFCURVE",
"296 630 CURVE",
"301 667 LINE",
"52 667 LINE",
"47 630 LINE",
"71 627 OFFCURVE",
"94 618 OFFCURVE",
"114 608 CURVE",
"167 0 LINE",
"182 -7 OFFCURVE",
"204 -7 OFFCURVE",
"221 -7 CURVE"
);
}
);
width = 847;
},
{
anchors = (
{
name = top;
position = "{559, 667}";
}
);
background = {
paths = (
{
closed = 1;
nodes = (
"664 185 LINE",
"604 667 LINE",
"518 667 LINE",
"302 185 LINE",
"253 605 LINE",
"267 618 OFFCURVE",
"290 623 OFFCURVE",
"319 627 CURVE",
"325 667 LINE",
"52 667 LINE",
"46 626 LINE",
"70 621 OFFCURVE",
"89 611 OFFCURVE",
"101 596 CURVE",
"177 0 LINE",
"277 0 LINE",
"481 430 LINE",
"541 0 LINE",
"641 0 LINE",
"932 602 LINE",
"947 619 OFFCURVE",
"962 624 OFFCURVE",
"988 626 CURVE",
"993 667 LINE",
"777 667 LINE",
"772 627 LINE",
"805 623 OFFCURVE",
"835 613 OFFCURVE",
"852 596 CURVE",
"852 596 LINE"
);
}
);
};
layerId = "0FAD76F5-9F58-4721-BF81-08BC6166EF10";
paths = (
{
closed = 1;
nodes = (
"481 430 LINE",
"541 0 LINE",
"574 -5 OFFCURVE",
"608 -5 OFFCURVE",
"639 -5 CURVE",
"928 594 LINE SMOOTH",
"939 618 OFFCURVE",
"964 624 OFFCURVE",
"988 626 CURVE",
"993 667 LINE",
"777 667 LINE",
"772 627 LINE",
"805 623 OFFCURVE",
"828 613 OFFCURVE",
"852 596 CURVE",
"664 185 LINE",
"604 662 LINE",
"569 662 OFFCURVE",
"538 658 OFFCURVE",
"511 649 CURVE",
"302 185 LINE",
"253 605 LINE",
"267 618 OFFCURVE",
"290 623 OFFCURVE",
"319 627 CURVE",
"325 667 LINE",
"52 667 LINE",
"46 626 LINE",
"70 621 OFFCURVE",
"89 611 OFFCURVE",
"101 596 CURVE",
"177 0 LINE",
"205 -5 OFFCURVE",
"242 -6 OFFCURVE",
"275 -6 CURVE"
);
}
);
width = 922;
}
);
leftKerningGroup = W;
rightKerningGroup = W;
unicode = 0057;
},
{
color = 4;
glyphname = X;
lastChange = "2019-11-27 00:06:06 +0000";
layers = (
{
background = {
anchors = (
{
name = cedilla;
position = "{245, 0}";
},
{
name = top;
position = "{325, 705}";
}
);
paths = (
{
closed = 1;
nodes = (
"208 651 OFFCURVE",
"207 667 OFFCURVE",
"168 667 CURVE SMOOTH",
"65 667 LINE",
"60 630 LINE",
"106 629 OFFCURVE",
"129 609 OFFCURVE",
"139 584 CURVE SMOOTH",
"347 66 LINE SMOOTH",
"367 16 OFFCURVE",
"380 0 OFFCURVE",
"427 0 CURVE SMOOTH",
"514 0 LINE",
"520 38 LINE",
"465 44 OFFCURVE",
"451 58 OFFCURVE",
"439 83 CURVE",
"229 600 LINE"
);
},
{
closed = 1;
nodes = (
"35 61 LINE",
"9 45 OFFCURVE",
"-16 41 OFFCURVE",
"-46 37 CURVE",
"-52 0 LINE",
"186 0 LINE",
"190 37 LINE",
"158 41 OFFCURVE",
"128 47 OFFCURVE",
"100 63 CURVE",
"275 302 LINE",
"252 355 LINE"
);
},
{
closed = 1;
nodes = (
"502 606 LINE",
"527 620 OFFCURVE",
"551 626 OFFCURVE",
"582 630 CURVE",
"587 667 LINE",
"355 667 LINE",
"350 630 LINE",
"383 626 OFFCURVE",
"411 619 OFFCURVE",
"436 604 CURVE",
"291 384 LINE",
"314 331 LINE"
);
},
{
closed = 1;
nodes = (
"208 651 OFFCURVE",
"207 667 OFFCURVE",
"168 667 CURVE SMOOTH",
"65 667 LINE",
"60 630 LINE",
"106 629 OFFCURVE",
"129 609 OFFCURVE",
"139 584 CURVE SMOOTH",
"347 66 LINE SMOOTH",
"367 16 OFFCURVE",
"380 0 OFFCURVE",
"427 0 CURVE SMOOTH",
"514 0 LINE",
"520 38 LINE",
"465 44 OFFCURVE",
"451 58 OFFCURVE",
"439 83 CURVE",
"229 600 LINE SMOOTH"
);
},
{
closed = 1;
nodes = (
"35 61 LINE",
"9 45 OFFCURVE",
"-16 41 OFFCURVE",
"-46 37 CURVE",
"-52 0 LINE",
"186 0 LINE",
"190 37 LINE",
"158 41 OFFCURVE",
"128 47 OFFCURVE",
"100 63 CURVE",
"275 302 LINE",
"252 355 LINE"
);
},
{
closed = 1;
nodes = (
"502 606 LINE",
"527 620 OFFCURVE",
"551 626 OFFCURVE",
"582 630 CURVE",
"587 667 LINE",
"355 667 LINE",
"350 630 LINE",
"383 626 OFFCURVE",
"411 619 OFFCURVE",
"436 604 CURVE",
"291 384 LINE",
"314 331 LINE"
);
}
);
};
layerId = "CF479DE4-94A2-4865-8D1E-65EA355866D4";
paths = (
{
closed = 1;
nodes = (
"186 0 LINE",
"190 37 LINE",
"157 40 OFFCURVE",
"123 49 OFFCURVE",
"100 63 CURVE",
"260 282 LINE",
"349 61 LINE SMOOTH",
"369 10 OFFCURVE",
"387 0 OFFCURVE",
"427 0 CURVE SMOOTH",
"514 0 LINE",
"520 38 LINE",
"471 43 OFFCURVE",
"450 56 OFFCURVE",
"439 83 CURVE SMOOTH",
"329 353 LINE",
"502 606 LINE",
"527 620 OFFCURVE",
"551 626 OFFCURVE",
"582 630 CURVE",
"587 667 LINE",
"355 667 LINE",
"350 630 LINE",
"383 626 OFFCURVE",
"411 619 OFFCURVE",
"436 604 CURVE",
"307 408 LINE",
"218 628 LINE SMOOTH",
"205 660 OFFCURVE",
"195 667 OFFCURVE",
"168 667 CURVE SMOOTH",
"65 667 LINE",
"60 630 LINE",
"106 629 OFFCURVE",
"129 609 OFFCURVE",
"139 584 CURVE SMOOTH",
"238 337 LINE",
"35 61 LINE",
"12 47 OFFCURVE",
"-13 41 OFFCURVE",
"-46 37 CURVE",
"-52 0 LINE"
);
}
);
width = 545;
},
{
background = {
paths = (
{
closed = 1;
nodes = (
"187 0 LINE",
"192 40 LINE",
"159 44 OFFCURVE",
"139 52 OFFCURVE",
"122 68 CURVE",
"271 247 LINE",
"360 58 LINE SMOOTH",
"370 38 OFFCURVE",
"389 0 OFFCURVE",
"440 0 CURVE SMOOTH",
"572 0 LINE",
"577 41 LINE",
"542 48 OFFCURVE",
"529 54 OFFCURVE",
"519 76 CURVE SMOOTH",
"384 365 LINE",
"578 599 LINE SMOOTH",
"593 616 OFFCURVE",
"619 625 OFFCURVE",
"645 627 CURVE",
"650 667 LINE",
"424 667 LINE",
"419 627 LINE",
"452 623 OFFCURVE",
"473 613 OFFCURVE",
"490 597 CURVE",
"353 432 LINE",
"271 609 LINE SMOOTH",
"261 629 OFFCURVE",
"242 667 OFFCURVE",
"191 667 CURVE SMOOTH",
"59 667 LINE",
"54 626 LINE",
"89 619 OFFCURVE",
"102 613 OFFCURVE",
"112 591 CURVE SMOOTH",
"240 314 LINE",
"32 65 LINE SMOOTH",
"20 51 OFFCURVE",
"-11 42 OFFCURVE",
"-34 40 CURVE",
"-39 0 LINE"
);
}
);
};
layerId = "0FAD76F5-9F58-4721-BF81-08BC6166EF10";
paths = (
{
closed = 1;
nodes = (
"187 0 LINE",
"192 40 LINE",
"163 42 OFFCURVE",
"135 54 OFFCURVE",
"122 68 CURVE",
"271 247 LINE",
"362 54 LINE SMOOTH",
"381 13 OFFCURVE",
"410 0 OFFCURVE",
"440 0 CURVE SMOOTH",
"572 0 LINE",
"577 41 LINE",
"541 48 OFFCURVE",
"529 55 OFFCURVE",
"519 76 CURVE SMOOTH",
"384 365 LINE",
"578 599 LINE SMOOTH",
"593 616 OFFCURVE",
"619 625 OFFCURVE",
"645 627 CURVE",
"650 667 LINE",
"424 667 LINE",
"419 627 LINE",
"452 623 OFFCURVE",
"473 613 OFFCURVE",
"490 597 CURVE",
"353 432 LINE",
"271 609 LINE SMOOTH",
"261 629 OFFCURVE",
"242 667 OFFCURVE",
"191 667 CURVE SMOOTH",
"59 667 LINE",
"54 626 LINE",
"89 619 OFFCURVE",
"102 613 OFFCURVE",
"112 591 CURVE SMOOTH",
"240 314 LINE",
"32 65 LINE SMOOTH",
"20 51 OFFCURVE",
"-11 42 OFFCURVE",
"-34 40 CURVE",
"-39 0 LINE"
);
}
);
width = 586;
}
);
leftKerningGroup = X;
rightKerningGroup = X;
unicode = 0058;
},
{
color = 4;
glyphname = Y;
lastChange = "2019-11-29 21:45:11 +0000";
layers = (
{
anchors = (
{
name = top;
position = "{327, 667}";
}
);
background = {
anchors = (
{
name = cedilla;
position = "{222, 0}";
},
{
name = top;
position = "{339, 705}";
}
);
paths = (
{
closed = 1;
nodes = (
"368 0 LINE",
"372 37 LINE",
"340 41 OFFCURVE",
"300 47 OFFCURVE",
"272 63 CURVE",
"307 285 LINE",
"508 606 LINE",
"534 621 OFFCURVE",
"558 626 OFFCURVE",
"589 630 CURVE",
"594 667 LINE",
"361 667 LINE",
"356 630 LINE",
"387 626 OFFCURVE",
"416 619 OFFCURVE",
"441 604 CURVE",
"285 347 LINE",
"207 607 LINE",
"233 621 OFFCURVE",
"257 626 OFFCURVE",
"287 630 CURVE",
"292 667 LINE",
"49 667 LINE",
"44 630 LINE",
"66 627 OFFCURVE",
"87 620 OFFCURVE",
"106 611 CURVE",
"216 272 LINE",
"184 63 LINE",
"156 46 OFFCURVE",
"121 41 OFFCURVE",
"89 37 CURVE",
"84 0 LINE"
);
},
{
closed = 1;
nodes = (
"368 0 LINE",
"372 37 LINE",
"340 41 OFFCURVE",
"300 47 OFFCURVE",
"272 63 CURVE",
"307 285 LINE",
"508 606 LINE",
"534 621 OFFCURVE",
"558 626 OFFCURVE",
"589 630 CURVE",
"594 667 LINE",
"361 667 LINE",
"356 630 LINE",
"387 626 OFFCURVE",
"416 619 OFFCURVE",
"441 604 CURVE",
"285 347 LINE",
"207 607 LINE",
"233 621 OFFCURVE",
"257 626 OFFCURVE",
"287 630 CURVE",
"292 667 LINE",
"49 667 LINE",
"44 630 LINE",
"66 627 OFFCURVE",
"87 620 OFFCURVE",
"106 611 CURVE",
"216 272 LINE",
"184 63 LINE",
"156 46 OFFCURVE",
"121 41 OFFCURVE",
"89 37 CURVE",
"84 0 LINE"
);
}
);
};
layerId = "CF479DE4-94A2-4865-8D1E-65EA355866D4";
paths = (
{
closed = 1;
nodes = (
"368 0 LINE",
"372 37 LINE",
"340 41 OFFCURVE",
"300 47 OFFCURVE",
"272 63 CURVE",
"307 285 LINE",
"508 606 LINE",
"534 621 OFFCURVE",
"558 626 OFFCURVE",
"589 630 CURVE",
"594 667 LINE",
"361 667 LINE",
"356 630 LINE",
"387 626 OFFCURVE",
"416 619 OFFCURVE",
"441 604 CURVE",
"285 347 LINE",
"207 607 LINE",
"233 621 OFFCURVE",
"257 626 OFFCURVE",
"287 630 CURVE",
"292 667 LINE",
"49 667 LINE",
"44 630 LINE",
"66 627 OFFCURVE",
"87 620 OFFCURVE",
"106 611 CURVE",
"216 272 LINE",
"184 63 LINE",
"156 46 OFFCURVE",
"121 41 OFFCURVE",
"89 37 CURVE",
"84 0 LINE"
);
}
);
width = 523;
},
{
anchors = (
{
name = top;
position = "{375, 667}";
}
);
background = {
paths = (
{
closed = 1;
nodes = (
"388 0 LINE",
"393 41 LINE",
"361 48 OFFCURVE",
"329 57 OFFCURVE",
"316 71 CURVE",
"347 268 LINE",
"569 601 LINE SMOOTH",
"587 617 OFFCURVE",
"607 625 OFFCURVE",
"633 627 CURVE",
"638 667 LINE",
"412 667 LINE",
"407 627 LINE",
"440 623 OFFCURVE",
"470 613 OFFCURVE",
"487 597 CURVE",
"327 357 LINE",
"257 605 LINE",
"272 618 OFFCURVE",
"298 623 OFFCURVE",
"327 627 CURVE",
"333 667 LINE",
"57 667 LINE",
"53 627 LINE",
"80 621 OFFCURVE",
"103 607 OFFCURVE",
"110 585 CURVE SMOOTH",
"201 269 LINE",
"169 71 LINE",
"148 55 OFFCURVE",
"120 46 OFFCURVE",
"87 41 CURVE",
"82 0 LINE"
);
}
);
};
layerId = "0FAD76F5-9F58-4721-BF81-08BC6166EF10";
paths = (
{
closed = 1;
nodes = (
"388 0 LINE",
"393 41 LINE",
"361 48 OFFCURVE",
"329 57 OFFCURVE",
"316 71 CURVE",
"347 268 LINE",
"565 594 LINE SMOOTH",
"580 616 OFFCURVE",
"605 625 OFFCURVE",
"633 627 CURVE",
"638 667 LINE",
"412 667 LINE",
"407 627 LINE",
"440 623 OFFCURVE",
"470 613 OFFCURVE",
"487 597 CURVE",
"327 357 LINE",
"257 605 LINE",
"272 618 OFFCURVE",
"298 623 OFFCURVE",
"327 627 CURVE",
"333 667 LINE",
"57 667 LINE",
"53 627 LINE",
"79 623 OFFCURVE",
"104 605 OFFCURVE",
"111 582 CURVE SMOOTH",
"201 269 LINE",
"169 71 LINE",
"148 55 OFFCURVE",
"120 46 OFFCURVE",
"87 41 CURVE",
"82 0 LINE"
);
}
);
width = 560;
}
);
leftKerningGroup = Y;
rightKerningGroup = Y;
unicode = 0059;
},
{
color = 4;
glyphname = Z;
lastChange = "2019-11-29 00:13:17 +0000";
layers = (
{
anchors = (
{
name = top;
position = "{316, 667}";
}
);
background = {
anchors = (
{
name = cedilla;
position = "{227, 0}";
},
{
name = top;
position = "{310, 705}";
}
);
paths = (
{
closed = 1;
nodes = (
"453 179 OFFCURVE",
"446 180 OFFCURVE",
"438 180 CURVE SMOOTH",
"431 180 OFFCURVE",
"418 179 OFFCURVE",
"411 178 CURVE",
"391 130 OFFCURVE",
"382 96 OFFCURVE",
"356 62 CURVE",
"120 53 LINE",
"518 627 LINE",
"516 667 LINE",
"115 667 LINE",
"91 644 LINE",
"80 499 LINE",
"85 497 OFFCURVE",
"96 497 OFFCURVE",
"102 497 CURVE SMOOTH",
"109 497 OFFCURVE",
"117 498 OFFCURVE",
"124 499 CURVE",
"135 533 OFFCURVE",
"147 569 OFFCURVE",
"167 605 CURVE",
"234 608 OFFCURVE",
"338 611 OFFCURVE",
"400 612 CURVE",
"5 44 LINE",
"11 0 LINE",
"422 0 LINE",
"460 178 LINE"
);
}
);
};
layerId = "CF479DE4-94A2-4865-8D1E-65EA355866D4";
paths = (
{
closed = 1;
nodes = (
"422 0 LINE",
"460 178 LINE",
"453 179 OFFCURVE",
"443 180 OFFCURVE",
"435 180 CURVE SMOOTH",
"428 180 OFFCURVE",
"418 179 OFFCURVE",
"411 178 CURVE",
"394 130 OFFCURVE",
"379 96 OFFCURVE",
"356 62 CURVE",
"282 57 OFFCURVE",
"204 54 OFFCURVE",
"120 53 CURVE",
"518 627 LINE",
"516 667 LINE",
"115 667 LINE",
"91 644 LINE",
"80 499 LINE",
"85 497 OFFCURVE",
"96 497 OFFCURVE",
"102 497 CURVE SMOOTH",
"109 497 OFFCURVE",
"117 498 OFFCURVE",
"124 499 CURVE",
"135 533 OFFCURVE",
"147 569 OFFCURVE",
"167 605 CURVE",
"234 608 OFFCURVE",
"338 611 OFFCURVE",
"400 612 CURVE",
"5 44 LINE",
"11 0 LINE"
);
}
);
width = 483;
},
{
anchors = (
{
name = top;
position = "{338, 667}";
}
);
layerId = "0FAD76F5-9F58-4721-BF81-08BC6166EF10";
paths = (
{
closed = 1;
nodes = (
"474 0 LINE",
"513 194 LINE",
"499 198 OFFCURVE",
"481 201 OFFCURVE",
"466 201 CURVE SMOOTH",
"455 201 OFFCURVE",
"439 199 OFFCURVE",
"430 198 CURVE",
"420 170 OFFCURVE",
"402 113 OFFCURVE",
"376 75 CURVE",
"326 70 OFFCURVE",
"253 67 OFFCURVE",
"181 69 CURVE",
"570 631 LINE",
"566 667 LINE",
"118 667 LINE",
"89 639 LINE",
"78 480 LINE",
"92 476 OFFCURVE",
"110 473 OFFCURVE",
"127 473 CURVE SMOOTH",
"139 473 OFFCURVE",
"154 474 OFFCURVE",
"161 476 CURVE",
"163 506 OFFCURVE",
"172 556 OFFCURVE",
"189 592 CURVE",
"251 598 OFFCURVE",
"334 600 OFFCURVE",
"379 600 CURVE",
"0 45 LINE",
"-3 0 LINE"
);
}
);
width = 543;
}
);
leftKerningGroup = Z;
rightKerningGroup = Z;
unicode = 005A;
},
{
color = 1;
glyphname = a;
lastChange = "2019-11-29 22:55:39 +0000";
layers = (
{
anchors = (
{
name = ogonek;
position = "{443, 0}";
},
{
name = top;
position = "{297, 467}";
}
);
background = {
anchors = (
{
name = ogonek;
position = "{476, 49}";
},
{
name = top;
position = "{297, 505}";
}
);
paths = (
{
closed = 1;
nodes = (
"306 16 OFFCURVE",
"312 -7 OFFCURVE",
"362 -7 CURVE SMOOTH",
"402 -7 OFFCURVE",
"454 30 OFFCURVE",
"476 49 CURVE",
"466 81 LINE",
"461 78 OFFCURVE",
"433 62 OFFCURVE",
"415 62 CURVE SMOOTH",
"401 62 OFFCURVE",
"394 66 OFFCURVE",
"394 77 CURVE SMOOTH",
"394 79 OFFCURVE",
"396 91 OFFCURVE",
"397 99 CURVE SMOOTH",
"458 474 LINE",
"458 474 OFFCURVE",
"444 476 OFFCURVE",
"427 476 CURVE SMOOTH",
"402 476 OFFCURVE",
"386 463 OFFCURVE",
"376 452 CURVE",
"337 470 OFFCURVE",
"300 478 OFFCURVE",
"267 478 CURVE SMOOTH",
"123 478 OFFCURVE",
"40 324 OFFCURVE",
"40 172 CURVE SMOOTH",
"40 69 OFFCURVE",
"65 -7 OFFCURVE",
"167 -7 CURVE SMOOTH",
"231 -7 OFFCURVE",
"283 52 OFFCURVE",
"314 98 CURVE",
"309 72 OFFCURVE",
"306 53 OFFCURVE",
"306 45 CURVE SMOOTH",
"306 45 LINE"
);
},
{
closed = 1;
nodes = (
"146 45 OFFCURVE",
"129 101 OFFCURVE",
"129 171 CURVE SMOOTH",
"129 273 OFFCURVE",
"185 430 OFFCURVE",
"287 430 CURVE SMOOTH",
"309 430 OFFCURVE",
"334 423 OFFCURVE",
"360 406 CURVE",
"343 301 LINE SMOOTH",
"318 145 OFFCURVE",
"245 45 OFFCURVE",
"193 45 CURVE SMOOTH",
"193 45 LINE"
);
},
{
closed = 1;
nodes = (
"231 -7 OFFCURVE",
"283 52 OFFCURVE",
"314 98 CURVE",
"309 72 OFFCURVE",
"306 53 OFFCURVE",
"306 45 CURVE SMOOTH",
"306 16 OFFCURVE",
"312 -7 OFFCURVE",
"362 -7 CURVE SMOOTH",
"402 -7 OFFCURVE",
"454 30 OFFCURVE",
"476 49 CURVE",
"466 81 LINE",
"461 78 OFFCURVE",
"433 62 OFFCURVE",
"415 62 CURVE SMOOTH",
"401 62 OFFCURVE",
"394 66 OFFCURVE",
"394 77 CURVE",
"397 99 LINE",
"458 474 LINE",
"458 474 OFFCURVE",
"444 476 OFFCURVE",
"427 476 CURVE SMOOTH",
"402 476 OFFCURVE",
"386 463 OFFCURVE",
"376 452 CURVE",
"337 470 OFFCURVE",
"300 478 OFFCURVE",
"267 478 CURVE SMOOTH",
"123 478 OFFCURVE",
"40 324 OFFCURVE",
"40 172 CURVE SMOOTH",
"40 69 OFFCURVE",
"65 -7 OFFCURVE",
"167 -7 CURVE SMOOTH"
);
},
{
closed = 1;
nodes = (
"146 45 OFFCURVE",
"129 101 OFFCURVE",
"129 171 CURVE SMOOTH",
"129 273 OFFCURVE",
"185 430 OFFCURVE",
"287 430 CURVE SMOOTH",
"309 430 OFFCURVE",
"334 423 OFFCURVE",
"360 406 CURVE",
"343 301 LINE SMOOTH",
"318 145 OFFCURVE",
"245 45 OFFCURVE",
"193 45 CURVE SMOOTH"
);
}
);
};
layerId = "CF479DE4-94A2-4865-8D1E-65EA355866D4";
paths = (
{
closed = 1;
nodes = (
"231 -7 OFFCURVE",
"283 52 OFFCURVE",
"314 98 CURVE",
"309 73 OFFCURVE",
"306 55 OFFCURVE",
"306 41 CURVE SMOOTH",
"306 9 OFFCURVE",
"323 -7 OFFCURVE",
"358 -7 CURVE SMOOTH",
"402 -7 OFFCURVE",
"454 30 OFFCURVE",
"476 49 CURVE",
"466 81 LINE",
"458 76 OFFCURVE",
"432 62 OFFCURVE",
"413 62 CURVE SMOOTH",
"400 62 OFFCURVE",
"394 66 OFFCURVE",
"394 77 CURVE SMOOTH",
"394 91 OFFCURVE",
"417 224 OFFCURVE",
"458 474 CURVE",
"458 474 OFFCURVE",
"444 476 OFFCURVE",
"427 476 CURVE SMOOTH",
"402 476 OFFCURVE",
"386 462 OFFCURVE",
"376 451 CURVE",
"337 469 OFFCURVE",
"300 477 OFFCURVE",
"267 477 CURVE SMOOTH",
"132 477 OFFCURVE",
"40 338 OFFCURVE",
"40 161 CURVE SMOOTH",
"40 45 OFFCURVE",
"82 -7 OFFCURVE",
"165 -7 CURVE SMOOTH"
);
},
{
closed = 1;
nodes = (
"155 45 OFFCURVE",
"129 80 OFFCURVE",
"129 161 CURVE SMOOTH",
"129 287 OFFCURVE",
"191 429 OFFCURVE",
"287 429 CURVE SMOOTH",
"309 429 OFFCURVE",
"334 422 OFFCURVE",
"360 405 CURVE",
"343 301 LINE SMOOTH",
"318 145 OFFCURVE",
"245 45 OFFCURVE",
"191 45 CURVE SMOOTH"
);
}
);
width = 515;
},
{
anchors = (
{
name = ogonek;
position = "{495, 0}";
},
{
name = top;
position = "{324, 484}";
}
);
background = {
paths = (
{
closed = 1;
nodes = (
"513 490 OFFCURVE",
"502 491 OFFCURVE",
"491 491 CURVE SMOOTH",
"455 491 OFFCURVE",
"428 484 OFFCURVE",
"407 472 CURVE",
"373 484 OFFCURVE",
"340 492 OFFCURVE",
"303 492 CURVE SMOOTH",
"152 492 OFFCURVE",
"31 395 OFFCURVE",
"31 181 CURVE SMOOTH",
"31 49 OFFCURVE",
"107 -11 OFFCURVE",
"190 -11 CURVE SMOOTH",
"250 -11 OFFCURVE",
"291 15 OFFCURVE",
"320 56 CURVE",
"325 19 OFFCURVE",
"345 -6 OFFCURVE",
"400 -6 CURVE SMOOTH",
"461 -6 OFFCURVE",
"517 30 OFFCURVE",
"542 46 CURVE",
"529 84 LINE",
"513 74 OFFCURVE",
"494 69 OFFCURVE",
"482 69 CURVE SMOOTH",
"467 69 OFFCURVE",
"461 76 OFFCURVE",
"461 93 CURVE SMOOTH",
"461 115 OFFCURVE",
"523 488 OFFCURVE",
"523 489 CURVE",
"523 489 LINE"
);
},
{
closed = 1;
nodes = (
"189 50 OFFCURVE",
"175 112 OFFCURVE",
"175 182 CURVE SMOOTH",
"175 358 OFFCURVE",
"246 443 OFFCURVE",
"326 443 CURVE SMOOTH",
"343 443 OFFCURVE",
"358 440 OFFCURVE",
"374 434 CURVE",
"342 249 LINE SMOOTH",
"321 127 OFFCURVE",
"284 50 OFFCURVE",
"235 50 CURVE SMOOTH",
"235 50 LINE"
);
}
);
};
layerId = "0FAD76F5-9F58-4721-BF81-08BC6166EF10";
paths = (
{
closed = 1;
nodes = (
"250 -11 OFFCURVE",
"291 15 OFFCURVE",
"320 56 CURVE",
"320 23 OFFCURVE",
"345 -6 OFFCURVE",
"400 -6 CURVE SMOOTH",
"461 -6 OFFCURVE",
"517 30 OFFCURVE",
"542 46 CURVE",
"529 84 LINE",
"513 74 OFFCURVE",
"494 69 OFFCURVE",
"482 69 CURVE SMOOTH",
"467 69 OFFCURVE",
"461 76 OFFCURVE",
"461 89 CURVE SMOOTH",
"461 115 OFFCURVE",
"523 488 OFFCURVE",
"523 489 CURVE",
"513 490 OFFCURVE",
"502 491 OFFCURVE",
"491 491 CURVE SMOOTH",
"455 491 OFFCURVE",
"428 484 OFFCURVE",
"407 472 CURVE",
"373 484 OFFCURVE",
"340 492 OFFCURVE",
"303 492 CURVE SMOOTH",
"129 492 OFFCURVE",
"31 364 OFFCURVE",
"31 174 CURVE SMOOTH",
"31 49 OFFCURVE",
"107 -11 OFFCURVE",
"190 -11 CURVE SMOOTH"
);
},
{
closed = 1;
nodes = (
"200 50 OFFCURVE",
"175 89 OFFCURVE",
"175 171 CURVE SMOOTH",
"175 354 OFFCURVE",
"243 443 OFFCURVE",
"326 443 CURVE SMOOTH",
"343 443 OFFCURVE",
"358 440 OFFCURVE",
"374 434 CURVE",
"342 249 LINE SMOOTH",
"319 117 OFFCURVE",
"284 50 OFFCURVE",
"235 50 CURVE SMOOTH"
);
}
);
width = 564;
}
);
leftKerningGroup = o;
rightKerningGroup = a;
unicode = 0061;
},
{
color = 1;
glyphname = b;
lastChange = "2019-11-27 03:02:34 +0000";
layers = (
{
background = {
paths = (
{
closed = 1;
nodes = (
"54 18 OFFCURVE",
"82 12 OFFCURVE",
"115 5 CURVE SMOOTH",
"143 -2 OFFCURVE",
"192 -7 OFFCURVE",
"220 -7 CURVE SMOOTH",
"361 -7 OFFCURVE",
"457 155 OFFCURVE",
"457 297 CURVE SMOOTH",
"457 399 OFFCURVE",
"432 476 OFFCURVE",
"329 476 CURVE SMOOTH",
"268 476 OFFCURVE",
"219 423 OFFCURVE",
"188 378 CURVE",
"236 672 LINE",
"224 694 LINE",
"224 694 OFFCURVE",
"205 696 OFFCURVE",
"187 696 CURVE SMOOTH",
"139 696 OFFCURVE",
"67 682 OFFCURVE",
"67 682 CURVE",
"61 643 LINE",
"101 643 OFFCURVE",
"139 642 OFFCURVE",
"139 606 CURVE SMOOTH",
"139 603 OFFCURVE",
"138 599 OFFCURVE",
"136 584 CURVE SMOOTH",
"59 103 LINE SMOOTH",
"56 82 OFFCURVE",
"54 67 OFFCURVE",
"54 60 CURVE SMOOTH",
"54 60 LINE"
);
},
{
closed = 1;
nodes = (
"164 306 OFFCURVE",
"249 424 OFFCURVE",
"304 424 CURVE SMOOTH",
"351 424 OFFCURVE",
"368 368 OFFCURVE",
"368 297 CURVE SMOOTH",
"368 188 OFFCURVE",
"305 38 OFFCURVE",
"212 38 CURVE SMOOTH",
"173 38 OFFCURVE",
"140 51 OFFCURVE",
"140 75 CURVE",
"140 75 LINE"
);
}
);
};
layerId = "CF479DE4-94A2-4865-8D1E-65EA355866D4";
paths = (
{
closed = 1;
nodes = (
"353 -7 OFFCURVE",
"457 133 OFFCURVE",
"457 297 CURVE SMOOTH",
"457 426 OFFCURVE",
"415 476 OFFCURVE",
"329 476 CURVE SMOOTH",
"268 476 OFFCURVE",
"219 423 OFFCURVE",
"188 378 CURVE",
"236 672 LINE",
"224 694 LINE",
"217 695 OFFCURVE",
"205 696 OFFCURVE",
"187 696 CURVE SMOOTH",
"139 696 OFFCURVE",
"84 685 OFFCURVE",
"67 682 CURVE",
"61 643 LINE",
"67 643 OFFCURVE",
"72 643 OFFCURVE",
"79 643 CURVE SMOOTH",
"122 643 OFFCURVE",
"139 629 OFFCURVE",
"139 606 CURVE SMOOTH",
"139 586 OFFCURVE",
"54 93 OFFCURVE",
"54 56 CURVE SMOOTH",
"54 37 OFFCURVE",
"62 22 OFFCURVE",
"82 14 CURVE SMOOTH",
"113 1 OFFCURVE",
"154 -7 OFFCURVE",
"211 -7 CURVE SMOOTH"
);
},
{
closed = 1;
nodes = (
"162 38 OFFCURVE",
"140 55 OFFCURVE",
"140 76 CURVE SMOOTH",
"140 190 OFFCURVE",
"219 423 OFFCURVE",
"304 424 CURVE SMOOTH",
"341 425 OFFCURVE",
"368 384 OFFCURVE",
"368 305 CURVE SMOOTH",
"368 153 OFFCURVE",
"287 38 OFFCURVE",
"212 38 CURVE SMOOTH"
);
}
);
width = 496;
},
{
background = {
paths = (
{
closed = 1;
nodes = (
"425 -7 OFFCURVE",
"533 110 OFFCURVE",
"533 313 CURVE SMOOTH",
"533 426 OFFCURVE",
"481 492 OFFCURVE",
"380 492 CURVE SMOOTH",
"318 492 OFFCURVE",
"268 469 OFFCURVE",
"232 425 CURVE",
"273 682 LINE",
"246 696 LINE",
"191 695 OFFCURVE",
"101 681 OFFCURVE",
"51 660 CURVE",
"54 621 LINE",
"62 622 OFFCURVE",
"69 623 OFFCURVE",
"75 623 CURVE SMOOTH",
"102 623 OFFCURVE",
"115 609 OFFCURVE",
"115 587 CURVE SMOOTH",
"115 576 OFFCURVE",
"114 566 OFFCURVE",
"113 558 CURVE SMOOTH",
"41 98 LINE",
"42 80 OFFCURVE",
"53 65 OFFCURVE",
"69 52 CURVE SMOOTH",
"118 13 OFFCURVE",
"217 -7 OFFCURVE",
"259 -7 CURVE SMOOTH"
);
},
{
closed = 1;
nodes = (
"212 46 OFFCURVE",
"189 55 OFFCURVE",
"176 65 CURVE",
"208 268 LINE SMOOTH",
"225 377 OFFCURVE",
"270 432 OFFCURVE",
"325 432 CURVE SMOOTH",
"368 432 OFFCURVE",
"388 395 OFFCURVE",
"388 322 CURVE SMOOTH",
"388 190 OFFCURVE",
"351 46 OFFCURVE",
"239 46 CURVE SMOOTH"
);
}
);
};
layerId = "0FAD76F5-9F58-4721-BF81-08BC6166EF10";
paths = (
{
closed = 1;
nodes = (
"417 -7 OFFCURVE",
"533 103 OFFCURVE",
"533 313 CURVE SMOOTH",
"533 427 OFFCURVE",
"480 492 OFFCURVE",
"380 492 CURVE SMOOTH",
"318 492 OFFCURVE",
"268 469 OFFCURVE",
"232 425 CURVE",
"273 682 LINE",
"246 696 LINE",
"191 695 OFFCURVE",
"101 681 OFFCURVE",
"51 660 CURVE",
"54 621 LINE",
"62 622 OFFCURVE",
"69 623 OFFCURVE",
"75 623 CURVE SMOOTH",
"102 623 OFFCURVE",
"115 609 OFFCURVE",
"115 587 CURVE SMOOTH",
"115 545 OFFCURVE",
"43 134 OFFCURVE",
"43 97 CURVE SMOOTH",
"43 80 OFFCURVE",
"54 64 OFFCURVE",
"69 52 CURVE SMOOTH",
"103 25 OFFCURVE",
"195 -7 OFFCURVE",
"259 -7 CURVE SMOOTH"
);
},
{
closed = 1;
nodes = (
"212 46 OFFCURVE",
"189 55 OFFCURVE",
"176 65 CURVE",
"208 268 LINE SMOOTH",
"225 377 OFFCURVE",
"270 432 OFFCURVE",
"325 432 CURVE SMOOTH",
"367 432 OFFCURVE",
"388 399 OFFCURVE",
"388 325 CURVE SMOOTH",
"388 142 OFFCURVE",
"325 46 OFFCURVE",
"239 46 CURVE SMOOTH"
);
}
);
width = 563;
}
);
leftKerningGroup = b;
rightKerningGroup = o;
unicode = 0062;
},
{
color = 4;
glyphname = c;
lastChange = "2019-11-26 16:46:34 +0000";
layers = (
{
anchors = (
{
name = cedilla;
position = "{202, 0}";
},
{
name = top;
position = "{287, 505}";
}
);
background = {
anchors = (
{
name = cedilla;
position = "{212, 0}";
},
{
name = top;
position = "{287, 505}";
}
);
paths = (
{
closed = 1;
nodes = (
"40 51 OFFCURVE",
"91 -7 OFFCURVE",
"211 -7 CURVE SMOOTH",
"305 -7 OFFCURVE",
"379 63 OFFCURVE",
"379 63 CURVE",
"352 100 LINE",
"352 100 OFFCURVE",
"282 45 OFFCURVE",
"223 45 CURVE SMOOTH",
"156 45 OFFCURVE",
"129 104 OFFCURVE",
"129 171 CURVE SMOOTH",
"129 298 OFFCURVE",
"195 431 OFFCURVE",
"278 431 CURVE SMOOTH",
"305 431 OFFCURVE",
"321 418 OFFCURVE",
"321 383 CURVE SMOOTH",
"321 368 OFFCURVE",
"316 355 OFFCURVE",
"305 338 CURVE",
"307 317 OFFCURVE",
"324 302 OFFCURVE",
"349 302 CURVE SMOOTH",
"384 302 OFFCURVE",
"411 338 OFFCURVE",
"411 374 CURVE SMOOTH",
"411 444 OFFCURVE",
"340 476 OFFCURVE",
"267 476 CURVE SMOOTH",
"111 476 OFFCURVE",
"40 307 OFFCURVE",
"40 171 CURVE SMOOTH",
"40 171 LINE"
);
},
{
closed = 1;
nodes = (
"305 -7 OFFCURVE",
"379 63 OFFCURVE",
"379 63 CURVE",
"352 100 LINE",
"352 100 OFFCURVE",
"282 45 OFFCURVE",
"223 45 CURVE SMOOTH",
"156 45 OFFCURVE",
"129 104 OFFCURVE",
"129 171 CURVE SMOOTH",
"129 298 OFFCURVE",
"195 431 OFFCURVE",
"278 431 CURVE SMOOTH",
"305 431 OFFCURVE",
"321 418 OFFCURVE",
"321 383 CURVE SMOOTH",
"321 368 OFFCURVE",
"316 355 OFFCURVE",
"305 338 CURVE",
"307 317 OFFCURVE",
"324 302 OFFCURVE",
"349 302 CURVE SMOOTH",
"384 302 OFFCURVE",
"411 338 OFFCURVE",
"411 374 CURVE SMOOTH",
"411 444 OFFCURVE",
"340 476 OFFCURVE",
"267 476 CURVE SMOOTH",
"111 476 OFFCURVE",
"40 307 OFFCURVE",
"40 171 CURVE SMOOTH",
"40 51 OFFCURVE",
"91 -7 OFFCURVE",
"211 -7 CURVE SMOOTH"
);
}
);
};
layerId = "CF479DE4-94A2-4865-8D1E-65EA355866D4";
paths = (
{
closed = 1;
nodes = (
"305 -7 OFFCURVE",
"379 63 OFFCURVE",
"379 63 CURVE",
"352 100 LINE",
"352 100 OFFCURVE",
"282 45 OFFCURVE",
"223 45 CURVE SMOOTH",
"169 45 OFFCURVE",
"129 83 OFFCURVE",
"129 171 CURVE SMOOTH",
"129 298 OFFCURVE",
"195 431 OFFCURVE",
"278 431 CURVE SMOOTH",
"306 431 OFFCURVE",
"322 413 OFFCURVE",
"322 390 CURVE SMOOTH",
"322 368 OFFCURVE",
"317 355 OFFCURVE",
"305 338 CURVE",
"307 317 OFFCURVE",
"324 302 OFFCURVE",
"349 302 CURVE SMOOTH",
"384 302 OFFCURVE",
"411 338 OFFCURVE",
"411 374 CURVE SMOOTH",
"411 429 OFFCURVE",
"364 476 OFFCURVE",
"271 476 CURVE SMOOTH",
"134 476 OFFCURVE",
"40 346 OFFCURVE",
"40 166 CURVE SMOOTH",
"40 48 OFFCURVE",
"99 -7 OFFCURVE",
"208 -7 CURVE SMOOTH"
);
}
);
width = 434;
},
{
anchors = (
{
name = cedilla;
position = "{236, 0}";
},
{
name = top;
position = "{291, 484}";
}
);
background = {
paths = (
{
closed = 1;
nodes = (
"305 -7 OFFCURVE",
"378 21 OFFCURVE",
"431 68 CURVE",
"400 104 LINE",
"357 69 OFFCURVE",
"312 51 OFFCURVE",
"270 51 CURVE SMOOTH",
"207 51 OFFCURVE",
"178 89 OFFCURVE",
"178 177 CURVE SMOOTH",
"178 301 OFFCURVE",
"213 443 OFFCURVE",
"297 443 CURVE SMOOTH",
"323 443 OFFCURVE",
"340 427 OFFCURVE",
"340 405 CURVE SMOOTH",
"340 392 OFFCURVE",
"334 375 OFFCURVE",
"321 360 CURVE",
"325 336 OFFCURVE",
"351 318 OFFCURVE",
"382 318 CURVE SMOOTH",
"430 318 OFFCURVE",
"472 352 OFFCURVE",
"472 396 CURVE SMOOTH",
"472 451 OFFCURVE",
"410 489 OFFCURVE",
"313 489 CURVE SMOOTH",
"131 489 OFFCURVE",
"32 374 OFFCURVE",
"32 186 CURVE SMOOTH",
"32 61 OFFCURVE",
"101 -7 OFFCURVE",
"236 -7 CURVE SMOOTH"
);
}
);
};
layerId = "0FAD76F5-9F58-4721-BF81-08BC6166EF10";
paths = (
{
closed = 1;
nodes = (
"305 -7 OFFCURVE",
"378 21 OFFCURVE",
"431 68 CURVE",
"400 104 LINE",
"357 69 OFFCURVE",
"312 51 OFFCURVE",
"270 51 CURVE SMOOTH",
"207 51 OFFCURVE",
"178 89 OFFCURVE",
"178 177 CURVE SMOOTH",
"178 355 OFFCURVE",
"234 443 OFFCURVE",
"297 443 CURVE SMOOTH",
"323 443 OFFCURVE",
"340 427 OFFCURVE",
"340 405 CURVE SMOOTH",
"340 392 OFFCURVE",
"334 375 OFFCURVE",
"321 360 CURVE",
"325 336 OFFCURVE",
"351 318 OFFCURVE",
"382 318 CURVE SMOOTH",
"436 318 OFFCURVE",
"472 356 OFFCURVE",
"472 396 CURVE SMOOTH",
"472 444 OFFCURVE",
"427 489 OFFCURVE",
"313 489 CURVE SMOOTH",
"130 489 OFFCURVE",
"32 365 OFFCURVE",
"32 189 CURVE SMOOTH",
"32 58 OFFCURVE",
"104 -7 OFFCURVE",
"236 -7 CURVE SMOOTH"
);
}
);
width = 467;
}
);
leftKerningGroup = o;
rightKerningGroup = c;
unicode = 0063;
},
{
color = 1;
glyphname = d;
lastChange = "2019-11-27 02:06:24 +0000";
layers = (
{
anchors = (
{
name = top_right;
position = "{510, 654}";
}
);
background = {
anchors = (
{
name = cedilla;
position = "{221, 0}";
}
);
paths = (
{
closed = 1;
nodes = (
"306 16 OFFCURVE",
"312 -7 OFFCURVE",
"363 -7 CURVE SMOOTH",
"402 -7 OFFCURVE",
"454 30 OFFCURVE",
"476 49 CURVE",
"466 81 LINE",
"461 78 OFFCURVE",
"433 62 OFFCURVE",
"416 62 CURVE SMOOTH",
"402 62 OFFCURVE",
"394 65 OFFCURVE",
"394 77 CURVE SMOOTH",
"394 79 OFFCURVE",
"395 86 OFFCURVE",
"397 96 CURVE SMOOTH",
"490 672 LINE",
"478 694 LINE",
"478 694 OFFCURVE",
"458 696 OFFCURVE",
"441 696 CURVE SMOOTH",
"391 696 OFFCURVE",
"321 682 OFFCURVE",
"321 682 CURVE",
"315 643 LINE",
"361 643 OFFCURVE",
"392 640 OFFCURVE",
"392 604 CURVE SMOOTH",
"392 600 OFFCURVE",
"391 590 OFFCURVE",
"389 577 CURVE SMOOTH",
"368 455 LINE",
"325 474 OFFCURVE",
"288 476 OFFCURVE",
"262 476 CURVE SMOOTH",
"121 476 OFFCURVE",
"40 313 OFFCURVE",
"40 172 CURVE SMOOTH",
"40 69 OFFCURVE",
"65 -7 OFFCURVE",
"167 -7 CURVE SMOOTH",
"231 -7 OFFCURVE",
"283 52 OFFCURVE",
"314 98 CURVE",
"309 72 OFFCURVE",
"306 53 OFFCURVE",
"306 45 CURVE SMOOTH",
"306 45 LINE"
);
},
{
closed = 1;
nodes = (
"146 45 OFFCURVE",
"129 101 OFFCURVE",
"129 171 CURVE SMOOTH",
"129 280 OFFCURVE",
"191 431 OFFCURVE",
"285 431 CURVE SMOOTH",
"314 431 OFFCURVE",
"340 419 OFFCURVE",
"360 406 CURVE",
"343 301 LINE SMOOTH",
"318 145 OFFCURVE",
"245 45 OFFCURVE",
"193 45 CURVE SMOOTH",
"193 45 LINE"
);
}
);
};
layerId = "CF479DE4-94A2-4865-8D1E-65EA355866D4";
paths = (
{
closed = 1;
nodes = (
"231 -7 OFFCURVE",
"283 52 OFFCURVE",
"314 98 CURVE",
"309 72 OFFCURVE",
"306 53 OFFCURVE",
"306 38 CURVE SMOOTH",
"306 9 OFFCURVE",
"323 -7 OFFCURVE",
"358 -7 CURVE SMOOTH",
"402 -7 OFFCURVE",
"454 30 OFFCURVE",
"476 49 CURVE",
"466 81 LINE",
"461 78 OFFCURVE",
"433 62 OFFCURVE",
"413 62 CURVE SMOOTH",
"400 62 OFFCURVE",
"394 67 OFFCURVE",
"394 76 CURVE SMOOTH",
"394 85 OFFCURVE",
"484 633 OFFCURVE",
"490 672 CURVE",
"478 694 LINE",
"466 695 OFFCURVE",
"455 696 OFFCURVE",
"441 696 CURVE SMOOTH",
"391 696 OFFCURVE",
"340 686 OFFCURVE",
"321 682 CURVE",
"315 643 LINE",
"321 643 OFFCURVE",
"327 643 OFFCURVE",
"333 643 CURVE SMOOTH",
"377 643 OFFCURVE",
"394 628 OFFCURVE",
"392 602 CURVE SMOOTH",
"391 585 OFFCURVE",
"372 476 OFFCURVE",
"368 455 CURVE",
"349 465 OFFCURVE",
"309 476 OFFCURVE",
"262 476 CURVE SMOOTH",
"138 476 OFFCURVE",
"40 343 OFFCURVE",
"40 167 CURVE SMOOTH",
"40 36 OFFCURVE",
"89 -7 OFFCURVE",
"167 -7 CURVE SMOOTH"
);
},
{
closed = 1;
nodes = (
"157 45 OFFCURVE",
"129 79 OFFCURVE",
"129 171 CURVE SMOOTH",
"129 280 OFFCURVE",
"191 431 OFFCURVE",
"285 431 CURVE SMOOTH",
"314 431 OFFCURVE",
"340 419 OFFCURVE",
"360 406 CURVE",
"343 301 LINE SMOOTH",
"318 145 OFFCURVE",
"245 45 OFFCURVE",
"193 45 CURVE SMOOTH"
);
}
);
width = 513;
},
{
anchors = (
{
name = top_right;
position = "{586, 642}";
}
);
background = {
paths = (
{
closed = 1;
nodes = (
"239 -7 OFFCURVE",
"302 16 OFFCURVE",
"335 73 CURVE",
"337 24 OFFCURVE",
"360 -5 OFFCURVE",
"419 -5 CURVE SMOOTH",
"466 -5 OFFCURVE",
"533 23 OFFCURVE",
"559 49 CURVE",
"546 85 LINE",
"528 75 OFFCURVE",
"512 69 OFFCURVE",
"500 69 CURVE SMOOTH",
"486 69 OFFCURVE",
"478 77 OFFCURVE",
"478 93 CURVE SMOOTH",
"478 96 OFFCURVE",
"479 110 OFFCURVE",
"482 129 CURVE SMOOTH",
"553 572 LINE",
"570 682 LINE",
"542 696 LINE",
"487 695 OFFCURVE",
"397 681 OFFCURVE",
"347 660 CURVE",
"350 621 LINE",
"357 622 OFFCURVE",
"364 623 OFFCURVE",
"370 623 CURVE SMOOTH",
"398 623 OFFCURVE",
"410 609 OFFCURVE",
"410 579 CURVE SMOOTH",
"410 573 OFFCURVE",
"410 566 OFFCURVE",
"395 468 CURVE",
"368 483 OFFCURVE",
"343 492 OFFCURVE",
"300 492 CURVE SMOOTH",
"133 492 OFFCURVE",
"31 372 OFFCURVE",
"31 172 CURVE SMOOTH",
"31 55 OFFCURVE",
"85 -7 OFFCURVE",
"184 -7 CURVE SMOOTH"
);
},
{
closed = 1;
nodes = (
"196 53 OFFCURVE",
"176 90 OFFCURVE",
"176 163 CURVE SMOOTH",
"176 300 OFFCURVE",
"216 438 OFFCURVE",
"325 438 CURVE SMOOTH",
"351 438 OFFCURVE",
"375 429 OFFCURVE",
"387 419 CURVE",
"358 234 LINE SMOOTH",
"339 114 OFFCURVE",
"297 53 OFFCURVE",
"238 53 CURVE SMOOTH"
);
}
);
};
layerId = "0FAD76F5-9F58-4721-BF81-08BC6166EF10";
paths = (
{
closed = 1;
nodes = (
"239 -7 OFFCURVE",
"302 16 OFFCURVE",
"335 73 CURVE",
"337 24 OFFCURVE",
"360 -5 OFFCURVE",
"419 -5 CURVE SMOOTH",
"466 -5 OFFCURVE",
"533 23 OFFCURVE",
"559 49 CURVE",
"546 85 LINE",
"528 75 OFFCURVE",
"512 69 OFFCURVE",
"500 69 CURVE SMOOTH",
"486 69 OFFCURVE",
"478 76 OFFCURVE",
"478 91 CURVE SMOOTH",
"478 108 OFFCURVE",
"563 642 OFFCURVE",
"570 682 CURVE",
"542 696 LINE",
"481 696 OFFCURVE",
"393 678 OFFCURVE",
"347 660 CURVE",
"350 621 LINE",
"357 622 OFFCURVE",
"364 623 OFFCURVE",
"370 623 CURVE SMOOTH",
"398 623 OFFCURVE",
"410 609 OFFCURVE",
"410 585 CURVE SMOOTH",
"410 563 OFFCURVE",
"398 488 OFFCURVE",
"395 468 CURVE",
"368 483 OFFCURVE",
"343 492 OFFCURVE",
"300 492 CURVE SMOOTH",
"143 492 OFFCURVE",
"31 381 OFFCURVE",
"31 172 CURVE SMOOTH",
"31 55 OFFCURVE",
"85 -7 OFFCURVE",
"184 -7 CURVE SMOOTH"
);
},
{
closed = 1;
nodes = (
"200 53 OFFCURVE",
"176 83 OFFCURVE",
"176 163 CURVE SMOOTH",
"176 342 OFFCURVE",
"237 438 OFFCURVE",
"325 438 CURVE SMOOTH",
"351 438 OFFCURVE",
"375 429 OFFCURVE",
"387 419 CURVE",
"358 234 LINE SMOOTH",
"339 114 OFFCURVE",
"297 53 OFFCURVE",
"238 53 CURVE SMOOTH"
);
}
);
width = 575;
}
);
leftKerningGroup = o;
rightKerningGroup = n;
unicode = 0064;
},
{
color = 4;
glyphname = e;
lastChange = "2019-11-29 22:59:16 +0000";
layers = (
{
anchors = (
{
name = ogonek;
position = "{329, 0}";
},
{
name = top;
position = "{281, 467}";
}
);
background = {
anchors = (
{
name = cedilla;
position = "{199, 0}";
},
{
name = ogonek;
position = "{369, 55}";
},
{
name = top;
position = "{283, 505}";
}
);
paths = (
{
closed = 1;
nodes = (
"422 424 OFFCURVE",
"381 476 OFFCURVE",
"285 476 CURVE SMOOTH",
"140 476 OFFCURVE",
"39 350 OFFCURVE",
"39 157 CURVE SMOOTH",
"39 79 OFFCURVE",
"79 -7 OFFCURVE",
"199 -7 CURVE SMOOTH",
"279 -7 OFFCURVE",
"349 33 OFFCURVE",
"385 69 CURVE",
"356 106 LINE",
"328 85 OFFCURVE",
"271 45 OFFCURVE",
"219 45 CURVE SMOOTH",
"167 45 OFFCURVE",
"130 84 OFFCURVE",
"130 172 CURVE SMOOTH",
"130 195 LINE",
"299 195 OFFCURVE",
"422 273 OFFCURVE",
"422 370 CURVE SMOOTH",
"422 370 LINE"
);
},
{
closed = 1;
nodes = (
"316 430 OFFCURVE",
"334 402 OFFCURVE",
"334 372 CURVE SMOOTH",
"334 298 OFFCURVE",
"255 244 OFFCURVE",
"135 244 CURVE",
"151 349 OFFCURVE",
"202 430 OFFCURVE",
"278 430 CURVE SMOOTH",
"278 430 LINE"
);
},
{
closed = 1;
nodes = (
"294 -7 OFFCURVE",
"362 59 OFFCURVE",
"362 59 CURVE",
"343 89 LINE",
"343 89 OFFCURVE",
"287 42 OFFCURVE",
"218 42 CURVE SMOOTH",
"114 42 OFFCURVE",
"111 127 OFFCURVE",
"133 238 CURVE SMOOTH",
"134 243 LINE",
"391 243 LINE",
"415 270 LINE",
"430 396 OFFCURVE",
"407 476 OFFCURVE",
"277 476 CURVE SMOOTH",
"148 476 OFFCURVE",
"70 383 OFFCURVE",
"48 238 CURVE SMOOTH",
"24 82 OFFCURVE",
"61 -7 OFFCURVE",
"207 -7 CURVE SMOOTH"
);
},
{
closed = 1;
nodes = (
"155 371 OFFCURVE",
"193 436 OFFCURVE",
"267 436 CURVE SMOOTH",
"338 436 OFFCURVE",
"349 387 OFFCURVE",
"334 287 CURVE",
"334 287 OFFCURVE",
"213 281 OFFCURVE",
"139 280 CURVE"
);
}
);
};
layerId = "CF479DE4-94A2-4865-8D1E-65EA355866D4";
paths = (
{
closed = 1;
nodes = (
"279 -7 OFFCURVE",
"349 33 OFFCURVE",
"385 69 CURVE",
"356 106 LINE",
"328 85 OFFCURVE",
"271 45 OFFCURVE",
"219 45 CURVE SMOOTH",
"167 45 OFFCURVE",
"130 84 OFFCURVE",
"130 172 CURVE SMOOTH",
"130 180 OFFCURVE",
"130 187 OFFCURVE",
"130 195 CURVE",
"299 195 OFFCURVE",
"422 273 OFFCURVE",
"422 370 CURVE SMOOTH",
"422 424 OFFCURVE",
"381 476 OFFCURVE",
"285 476 CURVE SMOOTH",
"140 476 OFFCURVE",
"39 350 OFFCURVE",
"39 157 CURVE SMOOTH",
"39 79 OFFCURVE",
"79 -7 OFFCURVE",
"199 -7 CURVE SMOOTH"
);
},
{
closed = 1;
nodes = (
"151 349 OFFCURVE",
"202 430 OFFCURVE",
"278 430 CURVE SMOOTH",
"316 430 OFFCURVE",
"334 402 OFFCURVE",
"334 372 CURVE SMOOTH",
"334 298 OFFCURVE",
"255 244 OFFCURVE",
"135 244 CURVE"
);
}
);
width = 436;
},
{
anchors = (
{
name = ogonek;
position = "{400, 0}";
},
{
name = top;
position = "{313, 484}";
}
);
background = {
paths = (
{
closed = 1;
nodes = (
"367 210 OFFCURVE",
"482 280 OFFCURVE",
"482 392 CURVE SMOOTH",
"482 452 OFFCURVE",
"416 492 OFFCURVE",
"317 492 CURVE SMOOTH",
"141 492 OFFCURVE",
"31 375 OFFCURVE",
"31 189 CURVE SMOOTH",
"31 69 OFFCURVE",
"107 -7 OFFCURVE",
"227 -7 CURVE SMOOTH",
"304 -7 OFFCURVE",
"386 24 OFFCURVE",
"450 78 CURVE",
"417 117 LINE",
"376 84 OFFCURVE",
"316 62 OFFCURVE",
"266 62 CURVE SMOOTH",
"204 62 OFFCURVE",
"170 97 OFFCURVE",
"170 160 CURVE SMOOTH",
"170 173 OFFCURVE",
"171 188 OFFCURVE",
"174 210 CURVE",
"185 210 LINE"
);
},
{
closed = 1;
nodes = (
"339 443 OFFCURVE",
"357 425 OFFCURVE",
"357 390 CURVE SMOOTH",
"357 324 OFFCURVE",
"273 271 OFFCURVE",
"183 268 CURVE",
"204 378 OFFCURVE",
"235 443 OFFCURVE",
"305 443 CURVE SMOOTH",
"305 443 LINE"
);
}
);
};
layerId = "0FAD76F5-9F58-4721-BF81-08BC6166EF10";
paths = (
{
closed = 1;
nodes = (
"304 -7 OFFCURVE",
"386 24 OFFCURVE",
"450 78 CURVE",
"417 117 LINE",
"376 84 OFFCURVE",
"316 62 OFFCURVE",
"266 62 CURVE SMOOTH",
"204 62 OFFCURVE",
"170 97 OFFCURVE",
"170 160 CURVE SMOOTH",
"170 173 OFFCURVE",
"171 188 OFFCURVE",
"174 210 CURVE",
"367 210 OFFCURVE",
"481 277 OFFCURVE",
"481 389 CURVE SMOOTH",
"481 446 OFFCURVE",
"430 492 OFFCURVE",
"315 492 CURVE SMOOTH",
"141 492 OFFCURVE",
"31 364 OFFCURVE",
"31 188 CURVE SMOOTH",
"31 68 OFFCURVE",
"107 -7 OFFCURVE",
"227 -7 CURVE SMOOTH"
);
},
{
closed = 1;
nodes = (
"204 378 OFFCURVE",
"235 443 OFFCURVE",
"305 443 CURVE SMOOTH",
"340 443 OFFCURVE",
"357 423 OFFCURVE",
"357 390 CURVE SMOOTH",
"357 324 OFFCURVE",
"273 271 OFFCURVE",
"183 268 CURVE"
);
}
);
width = 488;
}
);
leftKerningGroup = o;
rightKerningGroup = e;
unicode = 0065;
},
{
color = 1;
glyphname = f;
lastChange = "2019-11-27 00:06:34 +0000";
layers = (
{
background = {
paths = (
{
closed = 1;
nodes = (
"100 -219 OFFCURVE",
"122 -55 OFFCURVE",
"140 59 CURVE SMOOTH",
"196 413 LINE",
"293 413 LINE",
"300 462 LINE",
"204 462 LINE",
"211 521 OFFCURVE",
"198 650 OFFCURVE",
"279 650 CURVE SMOOTH",
"309 650 OFFCURVE",
"323 635 OFFCURVE",
"323 617 CURVE SMOOTH",
"323 603 OFFCURVE",
"314 587 OFFCURVE",
"299 576 CURVE",
"306 551 OFFCURVE",
"325 540 OFFCURVE",
"344 540 CURVE SMOOTH",
"373 540 OFFCURVE",
"406 567 OFFCURVE",
"406 613 CURVE SMOOTH",
"406 663 OFFCURVE",
"357 697 OFFCURVE",
"298 697 CURVE SMOOTH",
"193 697 OFFCURVE",
"148 617 OFFCURVE",
"128 513 CURVE SMOOTH",
"119 467 LINE",
"43 447 LINE",
"37 413 LINE",
"111 413 LINE",
"56 70 LINE SMOOTH",
"38 -40 OFFCURVE",
"46 -171 OFFCURVE",
"-27 -171 CURVE SMOOTH",
"-46 -171 OFFCURVE",
"-54 -158 OFFCURVE",
"-54 -143 CURVE SMOOTH",
"-54 -131 OFFCURVE",
"-48 -118 OFFCURVE",
"-37 -112 CURVE",
"-42 -88 OFFCURVE",
"-63 -76 OFFCURVE",
"-85 -76 CURVE SMOOTH",
"-114 -76 OFFCURVE",
"-144 -97 OFFCURVE",
"-144 -142 CURVE SMOOTH",
"-144 -190 OFFCURVE",
"-103 -219 OFFCURVE",
"-46 -219 CURVE SMOOTH",
"-46 -219 LINE"
);
}
);
};
layerId = "CF479DE4-94A2-4865-8D1E-65EA355866D4";
paths = (
{
closed = 1;
nodes = (
"100 -219 OFFCURVE",
"122 -55 OFFCURVE",
"140 59 CURVE SMOOTH",
"196 413 LINE",
"293 413 LINE",
"300 462 LINE",
"206 462 LINE",
"208 470 OFFCURVE",
"209 480 OFFCURVE",
"209 491 CURVE SMOOTH",
"209 502 OFFCURVE",
"208 516 OFFCURVE",
"208 542 CURVE SMOOTH",
"208 607 OFFCURVE",
"236 650 OFFCURVE",
"279 650 CURVE SMOOTH",
"309 650 OFFCURVE",
"323 635 OFFCURVE",
"323 617 CURVE SMOOTH",
"323 602 OFFCURVE",
"314 585 OFFCURVE",
"299 576 CURVE",
"306 551 OFFCURVE",
"325 540 OFFCURVE",
"344 540 CURVE SMOOTH",
"373 540 OFFCURVE",
"406 567 OFFCURVE",
"406 613 CURVE SMOOTH",
"406 662 OFFCURVE",
"359 697 OFFCURVE",
"298 697 CURVE SMOOTH",
"207 697 OFFCURVE",
"152 638 OFFCURVE",
"128 513 CURVE SMOOTH",
"119 467 LINE",
"96 458 OFFCURVE",
"70 452 OFFCURVE",
"43 447 CURVE",
"37 413 LINE",
"111 413 LINE",
"56 70 LINE SMOOTH",
"46 11 OFFCURVE",
"44 -54 OFFCURVE",
"33 -102 CURVE SMOOTH",
"23 -143 OFFCURVE",
"7 -171 OFFCURVE",
"-27 -171 CURVE SMOOTH",
"-46 -171 OFFCURVE",
"-54 -158 OFFCURVE",
"-54 -143 CURVE SMOOTH",
"-54 -131 OFFCURVE",
"-48 -118 OFFCURVE",
"-37 -112 CURVE",
"-42 -88 OFFCURVE",
"-63 -76 OFFCURVE",
"-85 -76 CURVE SMOOTH",
"-114 -76 OFFCURVE",
"-144 -97 OFFCURVE",
"-144 -142 CURVE SMOOTH",
"-144 -190 OFFCURVE",
"-103 -219 OFFCURVE",
"-46 -219 CURVE SMOOTH"
);
}
);
width = 284;
},
{
background = {
paths = (
{
closed = 1;
nodes = (
"134 -219 OFFCURVE",
"166 -55 OFFCURVE",
"184 59 CURVE SMOOTH",
"240 415 LINE",
"344 415 LINE",
"354 478 LINE",
"250 478 LINE",
"251 483 OFFCURVE",
"251 489 OFFCURVE",
"251 495 CURVE SMOOTH",
"251 520 OFFCURVE",
"246 550 OFFCURVE",
"246 573 CURVE SMOOTH",
"246 608 OFFCURVE",
"262 670 OFFCURVE",
"318 670 CURVE SMOOTH",
"343 670 OFFCURVE",
"355 658 OFFCURVE",
"355 638 CURVE SMOOTH",
"355 621 OFFCURVE",
"345 604 OFFCURVE",
"328 591 CURVE",
"329 564 OFFCURVE",
"353 548 OFFCURVE",
"380 548 CURVE SMOOTH",
"415 548 OFFCURVE",
"454 572 OFFCURVE",
"454 625 CURVE SMOOTH",
"454 686 OFFCURVE",
"381 709 OFFCURVE",
"330 709 CURVE SMOOTH",
"216 709 OFFCURVE",
"133 628 OFFCURVE",
"116 522 CURVE SMOOTH",
"109 478 LINE",
"84 468 OFFCURVE",
"52 460 OFFCURVE",
"28 456 CURVE",
"20 415 LINE",
"99 415 LINE",
"46 70 LINE SMOOTH",
"29 -40 OFFCURVE",
"46 -171 OFFCURVE",
"-37 -171 CURVE SMOOTH",
"-57 -171 OFFCURVE",
"-66 -157 OFFCURVE",
"-66 -141 CURVE SMOOTH",
"-66 -127 OFFCURVE",
"-58 -110 OFFCURVE",
"-45 -103 CURVE",
"-50 -75 OFFCURVE",
"-74 -61 OFFCURVE",
"-99 -61 CURVE SMOOTH",
"-132 -61 OFFCURVE",
"-168 -85 OFFCURVE",
"-168 -135 CURVE SMOOTH",
"-168 -191 OFFCURVE",
"-114 -219 OFFCURVE",
"-48 -219 CURVE SMOOTH"
);
}
);
};
layerId = "0FAD76F5-9F58-4721-BF81-08BC6166EF10";
paths = (
{
closed = 1;
nodes = (
"134 -219 OFFCURVE",
"166 -55 OFFCURVE",
"184 59 CURVE SMOOTH",
"240 415 LINE",
"344 415 LINE",
"354 478 LINE",
"250 478 LINE",
"251 486 OFFCURVE",
"252 491 OFFCURVE",
"252 501 CURVE SMOOTH",
"252 520 OFFCURVE",
"246 550 OFFCURVE",
"246 573 CURVE SMOOTH",
"246 632 OFFCURVE",
"277 670 OFFCURVE",
"318 670 CURVE SMOOTH",
"343 670 OFFCURVE",
"355 658 OFFCURVE",
"355 638 CURVE SMOOTH",
"355 621 OFFCURVE",
"345 604 OFFCURVE",
"328 591 CURVE",
"329 564 OFFCURVE",
"353 548 OFFCURVE",
"380 548 CURVE SMOOTH",
"417 548 OFFCURVE",
"454 574 OFFCURVE",
"454 625 CURVE SMOOTH",
"454 674 OFFCURVE",
"403 709 OFFCURVE",
"330 709 CURVE SMOOTH",
"216 709 OFFCURVE",
"133 628 OFFCURVE",
"116 522 CURVE SMOOTH",
"109 478 LINE",
"84 468 OFFCURVE",
"52 460 OFFCURVE",
"28 456 CURVE",
"20 415 LINE",
"99 415 LINE",
"46 70 LINE SMOOTH",
"37 9 OFFCURVE",
"37 -59 OFFCURVE",
"26 -107 CURVE SMOOTH",
"17 -145 OFFCURVE",
"0 -171 OFFCURVE",
"-32 -171 CURVE SMOOTH",
"-54 -171 OFFCURVE",
"-67 -159 OFFCURVE",
"-67 -139 CURVE SMOOTH",
"-67 -123 OFFCURVE",
"-58 -109 OFFCURVE",
"-45 -103 CURVE",
"-50 -75 OFFCURVE",
"-74 -61 OFFCURVE",
"-99 -61 CURVE SMOOTH",
"-136 -61 OFFCURVE",
"-168 -89 OFFCURVE",
"-168 -133 CURVE SMOOTH",
"-168 -187 OFFCURVE",
"-122 -219 OFFCURVE",
"-48 -219 CURVE SMOOTH"
);
}
);
width = 333;
}
);
leftKerningGroup = f;
rightKerningGroup = f;
unicode = 0066;
},
{
color = 4;
glyphname = g;
lastChange = "2019-11-27 00:06:42 +0000";
layers = (
{
anchors = (
{
name = top;
position = "{293, 467}";
}
);
background = {
anchors = (
{
name = top;
position = "{281, 505}";
}
);
paths = (
{
closed = 1;
nodes = (
"-51 -184 OFFCURVE",
"26 -219 OFFCURVE",
"119 -219 CURVE SMOOTH",
"278 -219 OFFCURVE",
"361 -126 OFFCURVE",
"393 74 CURVE SMOOTH",
"458 474 LINE",
"458 474 OFFCURVE",
"443 476 OFFCURVE",
"426 476 CURVE SMOOTH",
"401 476 OFFCURVE",
"384 464 OFFCURVE",
"374 452 CURVE",
"328 473 OFFCURVE",
"290 476 OFFCURVE",
"262 476 CURVE SMOOTH",
"121 476 OFFCURVE",
"40 313 OFFCURVE",
"40 172 CURVE SMOOTH",
"40 69 OFFCURVE",
"65 -7 OFFCURVE",
"167 -7 CURVE SMOOTH",
"230 -7 OFFCURVE",
"282 51 OFFCURVE",
"313 97 CURVE",
"303 36 LINE SMOOTH",
"283 -83 OFFCURVE",
"243 -173 OFFCURVE",
"134 -173 CURVE SMOOTH",
"74 -173 OFFCURVE",
"51 -144 OFFCURVE",
"51 -117 CURVE SMOOTH",
"51 -103 OFFCURVE",
"57 -89 OFFCURVE",
"68 -80 CURVE",
"59 -56 OFFCURVE",
"39 -45 OFFCURVE",
"17 -45 CURVE SMOOTH",
"-16 -45 OFFCURVE",
"-51 -70 OFFCURVE",
"-51 -113 CURVE SMOOTH",
"-51 -113 LINE"
);
},
{
closed = 1;
nodes = (
"330 182 OFFCURVE",
"247 45 OFFCURVE",
"193 45 CURVE SMOOTH",
"146 45 OFFCURVE",
"129 101 OFFCURVE",
"129 171 CURVE SMOOTH",
"129 280 OFFCURVE",
"191 431 OFFCURVE",
"285 431 CURVE SMOOTH",
"313 431 OFFCURVE",
"339 420 OFFCURVE",
"358 407 CURVE",
"346 312 LINE"
);
}
);
};
layerId = "CF479DE4-94A2-4865-8D1E-65EA355866D4";
paths = (
{
closed = 1;
nodes = (
"278 -219 OFFCURVE",
"361 -126 OFFCURVE",
"393 74 CURVE SMOOTH",
"458 474 LINE",
"447 475 OFFCURVE",
"438 476 OFFCURVE",
"426 476 CURVE SMOOTH",
"401 476 OFFCURVE",
"384 464 OFFCURVE",
"374 452 CURVE",
"328 473 OFFCURVE",
"290 476 OFFCURVE",
"262 476 CURVE SMOOTH",
"121 476 OFFCURVE",
"40 313 OFFCURVE",
"40 172 CURVE SMOOTH",
"40 69 OFFCURVE",
"65 -7 OFFCURVE",
"167 -7 CURVE SMOOTH",
"230 -7 OFFCURVE",
"282 51 OFFCURVE",
"313 97 CURVE",
"303 36 LINE SMOOTH",
"283 -83 OFFCURVE",
"243 -173 OFFCURVE",
"134 -173 CURVE SMOOTH",
"74 -173 OFFCURVE",
"51 -144 OFFCURVE",
"51 -117 CURVE SMOOTH",
"51 -103 OFFCURVE",
"57 -89 OFFCURVE",
"68 -80 CURVE",
"59 -56 OFFCURVE",
"39 -45 OFFCURVE",
"17 -45 CURVE SMOOTH",
"-16 -45 OFFCURVE",
"-51 -70 OFFCURVE",
"-51 -113 CURVE SMOOTH",
"-51 -184 OFFCURVE",
"26 -219 OFFCURVE",
"119 -219 CURVE SMOOTH"
);
},
{
closed = 1;
nodes = (
"146 45 OFFCURVE",
"129 101 OFFCURVE",
"129 171 CURVE SMOOTH",
"129 280 OFFCURVE",
"191 431 OFFCURVE",
"285 431 CURVE SMOOTH",
"313 431 OFFCURVE",
"339 420 OFFCURVE",
"358 407 CURVE",
"343 290 LINE SMOOTH",
"327 160 OFFCURVE",
"247 45 OFFCURVE",
"193 45 CURVE SMOOTH"
);
}
);
width = 493;
},
{
anchors = (
{
name = top;
position = "{314, 484}";
}
);
background = {
paths = (
{
closed = 1;
nodes = (
"514 490 OFFCURVE",
"503 491 OFFCURVE",
"492 491 CURVE SMOOTH",
"456 491 OFFCURVE",
"429 484 OFFCURVE",
"408 472 CURVE",
"374 484 OFFCURVE",
"341 492 OFFCURVE",
"304 492 CURVE SMOOTH",
"153 492 OFFCURVE",
"32 395 OFFCURVE",
"32 181 CURVE SMOOTH",
"32 49 OFFCURVE",
"108 -11 OFFCURVE",
"191 -11 CURVE SMOOTH",
"247 -11 OFFCURVE",
"286 12 OFFCURVE",
"315 48 CURVE",
"314 36 LINE SMOOTH",
"302 -77 OFFCURVE",
"265 -164 OFFCURVE",
"170 -164 CURVE SMOOTH",
"123 -164 OFFCURVE",
"107 -142 OFFCURVE",
"107 -119 CURVE SMOOTH",
"107 -101 OFFCURVE",
"117 -82 OFFCURVE",
"130 -73 CURVE",
"119 -44 OFFCURVE",
"94 -31 OFFCURVE",
"68 -31 CURVE SMOOTH",
"28 -31 OFFCURVE",
"-15 -61 OFFCURVE",
"-15 -113 CURVE SMOOTH",
"-15 -199 OFFCURVE",
"62 -219 OFFCURVE",
"155 -219 CURVE SMOOTH",
"325 -219 OFFCURVE",
"423 -135 OFFCURVE",
"453 49 CURVE SMOOTH",
"524 489 LINE"
);
},
{
closed = 1;
nodes = (
"324 134 OFFCURVE",
"286 50 OFFCURVE",
"236 50 CURVE SMOOTH",
"190 50 OFFCURVE",
"176 112 OFFCURVE",
"176 182 CURVE SMOOTH",
"176 358 OFFCURVE",
"247 443 OFFCURVE",
"327 443 CURVE SMOOTH",
"344 443 OFFCURVE",
"359 440 OFFCURVE",
"375 434 CURVE",
"346 262 LINE SMOOTH"
);
}
);
};
layerId = "0FAD76F5-9F58-4721-BF81-08BC6166EF10";
paths = (
{
closed = 1;
nodes = (
"325 -219 OFFCURVE",
"423 -135 OFFCURVE",
"453 49 CURVE SMOOTH",
"524 489 LINE",
"514 490 OFFCURVE",
"503 491 OFFCURVE",
"492 491 CURVE SMOOTH",
"456 491 OFFCURVE",
"429 484 OFFCURVE",
"408 472 CURVE",
"374 484 OFFCURVE",
"341 492 OFFCURVE",
"304 492 CURVE SMOOTH",
"129 492 OFFCURVE",
"32 369 OFFCURVE",
"32 181 CURVE SMOOTH",
"32 49 OFFCURVE",
"108 -11 OFFCURVE",
"191 -11 CURVE SMOOTH",
"247 -11 OFFCURVE",
"286 12 OFFCURVE",
"315 48 CURVE",
"314 36 LINE SMOOTH",
"302 -77 OFFCURVE",
"265 -164 OFFCURVE",
"170 -164 CURVE SMOOTH",
"130 -164 OFFCURVE",
"107 -148 OFFCURVE",
"107 -119 CURVE SMOOTH",
"107 -100 OFFCURVE",
"116 -81 OFFCURVE",
"130 -73 CURVE",
"119 -44 OFFCURVE",
"94 -31 OFFCURVE",
"68 -31 CURVE SMOOTH",
"20 -31 OFFCURVE",
"-15 -66 OFFCURVE",
"-15 -115 CURVE SMOOTH",
"-15 -181 OFFCURVE",
"36 -219 OFFCURVE",
"155 -219 CURVE SMOOTH"
);
},
{
closed = 1;
nodes = (
"203 50 OFFCURVE",
"176 83 OFFCURVE",
"176 182 CURVE SMOOTH",
"176 358 OFFCURVE",
"247 443 OFFCURVE",
"327 443 CURVE SMOOTH",
"344 443 OFFCURVE",
"359 440 OFFCURVE",
"375 434 CURVE",
"346 262 LINE SMOOTH",
"324 134 OFFCURVE",
"286 50 OFFCURVE",
"236 50 CURVE SMOOTH"
);
}
);
width = 545;
}
);
leftKerningGroup = o;
rightKerningGroup = g;
unicode = 0067;
},
{
color = 1;
glyphname = h;
lastChange = "2019-11-27 00:07:10 +0000";
layers = (
{
anchors = (
{
name = top;
position = "{365, 667}";
}
);
background = {
anchors = (
{
name = cedilla;
position = "{83, 0}";
},
{
name = top;
position = "{178, 722}";
}
);
paths = (
{
closed = 1;
nodes = (
"453 352 OFFCURVE",
"454 360 OFFCURVE",
"454 369 CURVE SMOOTH",
"454 437 OFFCURVE",
"413 476 OFFCURVE",
"341 476 CURVE SMOOTH",
"266 476 OFFCURVE",
"214 413 OFFCURVE",
"183 359 CURVE",
"234 672 LINE",
"222 694 LINE",
"222 694 OFFCURVE",
"203 696 OFFCURVE",
"185 696 CURVE SMOOTH",
"135 696 OFFCURVE",
"64 682 OFFCURVE",
"64 682 CURVE",
"59 643 LINE",
"105 643 OFFCURVE",
"136 640 OFFCURVE",
"136 604 CURVE SMOOTH",
"136 604 OFFCURVE",
"135 589 OFFCURVE",
"133 576 CURVE SMOOTH",
"41 0 LINE",
"127 0 LINE",
"160 201 LINE",
"184 310 OFFCURVE",
"238 421 OFFCURVE",
"313 421 CURVE SMOOTH",
"343 421 OFFCURVE",
"366 399 OFFCURVE",
"366 353 CURVE SMOOTH",
"366 319 OFFCURVE",
"318 74 OFFCURVE",
"318 45 CURVE SMOOTH",
"318 16 OFFCURVE",
"325 -7 OFFCURVE",
"375 -7 CURVE SMOOTH",
"415 -7 OFFCURVE",
"467 30 OFFCURVE",
"489 49 CURVE",
"479 81 LINE",
"474 78 OFFCURVE",
"445 62 OFFCURVE",
"428 62 CURVE SMOOTH",
"412 62 OFFCURVE",
"407 68 OFFCURVE",
"407 84 CURVE",
"449 327 LINE"
);
}
);
};
layerId = "CF479DE4-94A2-4865-8D1E-65EA355866D4";
paths = (
{
closed = 1;
nodes = (
"415 -7 OFFCURVE",
"467 30 OFFCURVE",
"489 49 CURVE",
"479 81 LINE",
"474 78 OFFCURVE",
"445 62 OFFCURVE",
"428 62 CURVE SMOOTH",
"412 62 OFFCURVE",
"407 68 OFFCURVE",
"407 81 CURVE SMOOTH",
"407 102 OFFCURVE",
"454 329 OFFCURVE",
"454 369 CURVE SMOOTH",
"454 437 OFFCURVE",
"413 476 OFFCURVE",
"341 476 CURVE SMOOTH",
"266 476 OFFCURVE",
"214 413 OFFCURVE",
"183 359 CURVE",
"234 672 LINE",
"222 694 LINE",
"210 695 OFFCURVE",
"198 696 OFFCURVE",
"185 696 CURVE SMOOTH",
"144 696 OFFCURVE",
"84 686 OFFCURVE",
"64 682 CURVE",
"59 643 LINE",
"64 643 OFFCURVE",
"69 643 OFFCURVE",
"74 643 CURVE SMOOTH",
"121 642 OFFCURVE",
"136 630 OFFCURVE",
"136 604 CURVE SMOOTH",
"136 593 OFFCURVE",
"134 584 OFFCURVE",
"133 576 CURVE SMOOTH",
"41 0 LINE",
"127 0 LINE",
"157 179 LINE SMOOTH",
"179 318 OFFCURVE",
"244 421 OFFCURVE",
"313 421 CURVE SMOOTH",
"343 421 OFFCURVE",
"366 399 OFFCURVE",
"366 353 CURVE SMOOTH",
"366 319 OFFCURVE",
"318 74 OFFCURVE",
"318 45 CURVE SMOOTH",
"318 16 OFFCURVE",
"325 -7 OFFCURVE",
"375 -7 CURVE SMOOTH"
);
}
);
width = 528;
},
{
anchors = (
{
name = top;
position = "{424, 667}";
}
);
background = {
paths = (
{
closed = 1;
nodes = (
"470 -6 OFFCURVE",
"537 22 OFFCURVE",
"563 48 CURVE",
"550 84 LINE",
"532 74 OFFCURVE",
"516 68 OFFCURVE",
"504 68 CURVE SMOOTH",
"490 68 OFFCURVE",
"482 76 OFFCURVE",
"482 92 CURVE SMOOTH",
"482 95 OFFCURVE",
"483 107 OFFCURVE",
"485 117 CURVE SMOOTH",
"516 321 LINE SMOOTH",
"520 349 OFFCURVE",
"521 359 OFFCURVE",
"521 369 CURVE SMOOTH",
"521 446 OFFCURVE",
"474 492 OFFCURVE",
"394 492 CURVE SMOOTH",
"328 492 OFFCURVE",
"275 458 OFFCURVE",
"234 395 CURVE",
"280 680 LINE",
"253 697 LINE",
"198 696 OFFCURVE",
"108 682 OFFCURVE",
"58 661 CURVE",
"61 622 LINE",
"69 623 OFFCURVE",
"76 624 OFFCURVE",
"82 624 CURVE SMOOTH",
"109 624 OFFCURVE",
"122 610 OFFCURVE",
"122 581 CURVE SMOOTH",
"122 574 OFFCURVE",
"121 567 OFFCURVE",
"120 559 CURVE SMOOTH",
"31 0 LINE",
"172 0 LINE",
"203 196 LINE SMOOTH",
"221 310 OFFCURVE",
"289 425 OFFCURVE",
"337 425 CURVE SMOOTH",
"364 425 OFFCURVE",
"379 404 OFFCURVE",
"379 365 CURVE SMOOTH",
"379 354 OFFCURVE",
"379 342 OFFCURVE",
"375 320 CURVE SMOOTH",
"345 136 LINE",
"342 116 OFFCURVE",
"340 97 OFFCURVE",
"340 81 CURVE SMOOTH",
"340 27 OFFCURVE",
"360 -6 OFFCURVE",
"423 -6 CURVE SMOOTH"
);
}
);
};
layerId = "0FAD76F5-9F58-4721-BF81-08BC6166EF10";
paths = (
{
closed = 1;
nodes = (
"470 -6 OFFCURVE",
"537 22 OFFCURVE",
"563 48 CURVE",
"550 84 LINE",
"532 74 OFFCURVE",
"516 68 OFFCURVE",
"504 68 CURVE SMOOTH",
"490 68 OFFCURVE",
"482 76 OFFCURVE",
"482 91 CURVE SMOOTH",
"482 112 OFFCURVE",
"521 335 OFFCURVE",
"521 369 CURVE SMOOTH",
"521 446 OFFCURVE",
"474 492 OFFCURVE",
"394 492 CURVE SMOOTH",
"328 492 OFFCURVE",
"275 458 OFFCURVE",
"234 395 CURVE",
"280 680 LINE",
"253 697 LINE",
"198 696 OFFCURVE",
"108 682 OFFCURVE",
"58 661 CURVE",
"61 622 LINE",
"66 623 OFFCURVE",
"75 624 OFFCURVE",
"82 624 CURVE SMOOTH",
"109 624 OFFCURVE",
"122 610 OFFCURVE",
"122 581 CURVE SMOOTH",
"122 564 OFFCURVE",
"119 554 OFFCURVE",
"117 541 CURVE SMOOTH",
"31 0 LINE",
"172 0 LINE",
"203 196 LINE SMOOTH",
"221 310 OFFCURVE",
"289 425 OFFCURVE",
"337 425 CURVE SMOOTH",
"364 425 OFFCURVE",
"379 404 OFFCURVE",
"379 361 CURVE SMOOTH",
"379 311 OFFCURVE",
"340 141 OFFCURVE",
"340 81 CURVE SMOOTH",
"340 27 OFFCURVE",
"360 -6 OFFCURVE",
"423 -6 CURVE SMOOTH"
);
}
);
width = 579;
}
);
rightKerningGroup = n;
unicode = 0068;
},
{
color = 1;
glyphname = i;
lastChange = "2019-11-29 21:51:58 +0000";
layers = (
{
anchors = (
{
name = ogonek;
position = "{227, 49}";
}
);
background = {
anchors = (
{
name = ogonek;
position = "{228, 47}";
}
);
components = (
{
name = dotaccent;
transform = "{1, 0, 0, 1, 27, -9}";
}
);
paths = (
{
closed = 1;
nodes = (
"56 16 OFFCURVE",
"62 -7 OFFCURVE",
"112 -7 CURVE SMOOTH",
"152 -7 OFFCURVE",
"205 30 OFFCURVE",
"227 49 CURVE",
"217 81 LINE",
"212 78 OFFCURVE",
"183 62 OFFCURVE",
"166 62 CURVE SMOOTH",
"150 62 OFFCURVE",
"147 68 OFFCURVE",
"147 84 CURVE SMOOTH",
"147 104 OFFCURVE",
"201 430 OFFCURVE",
"205 454 CURVE",
"193 473 LINE",
"193 473 OFFCURVE",
"182 476 OFFCURVE",
"166 476 CURVE SMOOTH",
"108 476 OFFCURVE",
"38 445 OFFCURVE",
"38 445 CURVE",
"43 413 LINE",
"55 414 OFFCURVE",
"65 415 OFFCURVE",
"74 415 CURVE SMOOTH",
"95 415 OFFCURVE",
"107 409 OFFCURVE",
"107 386 CURVE SMOOTH",
"107 374 OFFCURVE",
"56 74 OFFCURVE",
"56 45 CURVE SMOOTH",
"56 45 LINE"
);
}
);
};
components = (
{
name = idotless;
},
{
name = dotaccentcomb;
transform = "{1, 0, 0, 1, 55, 0}";
}
);
layerId = "CF479DE4-94A2-4865-8D1E-65EA355866D4";
width = 263;
},
{
anchors = (
{
name = ogonek;
position = "{288, 48}";
},
{
name = top;
position = "{193, 484}";
}
);
background = {
paths = (
{
closed = 1;
nodes = (
"256 550 OFFCURVE",
"289 581 OFFCURVE",
"289 634 CURVE SMOOTH",
"289 667 OFFCURVE",
"264 690 OFFCURVE",
"224 690 CURVE SMOOTH",
"174 690 OFFCURVE",
"141 659 OFFCURVE",
"141 606 CURVE SMOOTH",
"141 572 OFFCURVE",
"166 550 OFFCURVE",
"206 550 CURVE SMOOTH"
);
},
{
closed = 1;
nodes = (
"195 -6 OFFCURVE",
"262 22 OFFCURVE",
"288 48 CURVE",
"275 84 LINE",
"257 74 OFFCURVE",
"241 68 OFFCURVE",
"229 68 CURVE SMOOTH",
"215 68 OFFCURVE",
"206 76 OFFCURVE",
"206 93 CURVE SMOOTH",
"206 102 OFFCURVE",
"209 117 OFFCURVE",
"210 123 CURVE SMOOTH",
"265 478 LINE",
"238 492 LINE",
"183 491 OFFCURVE",
"93 477 OFFCURVE",
"43 456 CURVE",
"46 417 LINE",
"54 418 OFFCURVE",
"61 419 OFFCURVE",
"67 419 CURVE SMOOTH",
"94 419 OFFCURVE",
"107 405 OFFCURVE",
"107 376 CURVE SMOOTH",
"107 369 OFFCURVE",
"106 362 OFFCURVE",
"105 354 CURVE SMOOTH",
"70 136 LINE SMOOTH",
"67 116 OFFCURVE",
"65 97 OFFCURVE",
"65 81 CURVE SMOOTH",
"65 27 OFFCURVE",
"85 -6 OFFCURVE",
"148 -6 CURVE SMOOTH"
);
}
);
};
components = (
{
name = idotless;
},
{
name = dotaccentcomb;
transform = "{1, 0, 0, 1, 65, 0}";
}
);
layerId = "0FAD76F5-9F58-4721-BF81-08BC6166EF10";
width = 295;
}
);
leftKerningGroup = i;
rightKerningGroup = i;
unicode = 0069;
},
{
color = 1;
glyphname = j;
lastChange = "2019-11-26 17:00:27 +0000";
layers = (
{
background = {
components = (
{
name = dotaccent;
transform = "{1, 0, 0, 1, 25, -9}";
}
);
paths = (
{
closed = 1;
nodes = (
"95 -219 OFFCURVE",
"119 -64 OFFCURVE",
"137 48 CURVE SMOOTH",
"203 454 LINE",
"190 473 LINE",
"190 473 OFFCURVE",
"180 476 OFFCURVE",
"164 476 CURVE SMOOTH",
"106 476 OFFCURVE",
"38 445 OFFCURVE",
"38 445 CURVE",
"43 413 LINE",
"55 414 OFFCURVE",
"65 415 OFFCURVE",
"74 415 CURVE SMOOTH",
"95 415 OFFCURVE",
"107 409 OFFCURVE",
"107 386 CURVE SMOOTH",
"107 381 OFFCURVE",
"104 367 OFFCURVE",
"102 353 CURVE SMOOTH",
"57 70 LINE SMOOTH",
"40 -40 OFFCURVE",
"46 -171 OFFCURVE",
"-27 -171 CURVE SMOOTH",
"-46 -171 OFFCURVE",
"-55 -158 OFFCURVE",
"-55 -143 CURVE SMOOTH",
"-55 -131 OFFCURVE",
"-49 -118 OFFCURVE",
"-38 -112 CURVE",
"-42 -88 OFFCURVE",
"-63 -76 OFFCURVE",
"-85 -76 CURVE SMOOTH",
"-113 -76 OFFCURVE",
"-145 -97 OFFCURVE",
"-145 -140 CURVE SMOOTH",
"-145 -189 OFFCURVE",
"-104 -219 OFFCURVE",
"-46 -219 CURVE SMOOTH",
"-46 -219 LINE"
);
}
);
};
components = (
{
name = jdotless;
},
{
name = dotaccentcomb;
transform = "{1, 0, 0, 1, 68, 0}";
}
);
layerId = "CF479DE4-94A2-4865-8D1E-65EA355866D4";
width = 243;
},
{
anchors = (
{
name = top;
position = "{198, 515}";
}
);
components = (
{
name = jdotless;
},
{
name = dotaccentcomb;
transform = "{1, 0, 0, 1, 64, 0}";
}
);
layerId = "0FAD76F5-9F58-4721-BF81-08BC6166EF10";
width = 281;
}
);
leftKerningGroup = j;
rightKerningGroup = j;
unicode = 006A;
},
{
color = 1;
glyphname = k;
lastChange = "2019-11-27 00:07:19 +0000";
layers = (
{
anchors = (
{
name = bottom;
position = "{241, 0}";
}
);
background = {
anchors = (
{
name = bottom;
position = "{278, 0}";
},
{
name = cedilla;
position = "{222, 0}";
}
);
paths = (
{
closed = 1;
nodes = (
"222 694 LINE",
"222 694 OFFCURVE",
"203 696 OFFCURVE",
"185 696 CURVE SMOOTH",
"135 696 OFFCURVE",
"64 682 OFFCURVE",
"64 682 CURVE",
"59 643 LINE",
"105 643 OFFCURVE",
"136 640 OFFCURVE",
"136 604 CURVE SMOOTH",
"136 604 OFFCURVE",
"136 592 OFFCURVE",
"134 581 CURVE SMOOTH",
"41 0 LINE",
"127 0 LINE",
"160 211 LINE",
"183 219 OFFCURVE",
"205 228 OFFCURVE",
"225 237 CURVE",
"315 45 LINE SMOOTH",
"328 16 OFFCURVE",
"338 -7 OFFCURVE",
"371 -7 CURVE SMOOTH",
"411 -7 OFFCURVE",
"453 30 OFFCURVE",
"475 49 CURVE",
"465 81 LINE",
"460 78 OFFCURVE",
"431 62 OFFCURVE",
"414 62 CURVE SMOOTH",
"398 62 OFFCURVE",
"395 74 OFFCURVE",
"389 86 CURVE SMOOTH",
"293 271 LINE",
"457 363 OFFCURVE",
"457 450 OFFCURVE",
"457 454 CURVE",
"446 473 LINE",
"446 473 OFFCURVE",
"435 476 OFFCURVE",
"419 476 CURVE SMOOTH",
"361 476 OFFCURVE",
"316 455 OFFCURVE",
"316 455 CURVE",
"320 423 LINE",
"334 422 OFFCURVE",
"343 414 OFFCURVE",
"343 401 CURVE SMOOTH",
"343 371 OFFCURVE",
"297 316 OFFCURVE",
"169 265 CURVE",
"234 672 LINE"
);
}
);
};
layerId = "CF479DE4-94A2-4865-8D1E-65EA355866D4";
paths = (
{
closed = 1;
nodes = (
"127 0 LINE",
"160 211 LINE",
"183 219 OFFCURVE",
"205 228 OFFCURVE",
"225 237 CURVE",
"317 39 LINE SMOOTH",
"332 6 OFFCURVE",
"346 -7 OFFCURVE",
"371 -7 CURVE SMOOTH",
"411 -7 OFFCURVE",
"453 30 OFFCURVE",
"475 49 CURVE",
"465 81 LINE",
"456 76 OFFCURVE",
"431 62 OFFCURVE",
"414 62 CURVE SMOOTH",
"405 62 OFFCURVE",
"399 66 OFFCURVE",
"396 72 CURVE SMOOTH",
"293 271 LINE",
"407 333 OFFCURVE",
"457 410 OFFCURVE",
"457 454 CURVE",
"446 473 LINE",
"438 475 OFFCURVE",
"429 476 OFFCURVE",
"419 476 CURVE SMOOTH",
"381 476 OFFCURVE",
"345 467 OFFCURVE",
"316 455 CURVE",
"320 423 LINE",
"334 422 OFFCURVE",
"343 414 OFFCURVE",
"343 401 CURVE SMOOTH",
"343 371 OFFCURVE",
"297 316 OFFCURVE",
"169 265 CURVE",
"234 672 LINE",
"222 694 LINE",
"214 695 OFFCURVE",
"199 696 OFFCURVE",
"185 696 CURVE SMOOTH",
"141 696 OFFCURVE",
"84 686 OFFCURVE",
"64 682 CURVE",
"59 643 LINE",
"63 643 OFFCURVE",
"66 643 OFFCURVE",
"72 643 CURVE SMOOTH",
"123 643 OFFCURVE",
"136 628 OFFCURVE",
"136 603 CURVE SMOOTH",
"136 597 OFFCURVE",
"135 588 OFFCURVE",
"134 581 CURVE SMOOTH",
"41 0 LINE"
);
}
);
width = 489;
},
{
anchors = (
{
name = bottom;
position = "{269, 0}";
}
);
background = {
paths = (
{
closed = 1;
nodes = (
"205 207 LINE",
"219 212 OFFCURVE",
"233 217 OFFCURVE",
"248 224 CURVE",
"323 59 LINE SMOOTH",
"342 17 OFFCURVE",
"370 2 OFFCURVE",
"400 2 CURVE SMOOTH",
"447 2 OFFCURVE",
"499 38 OFFCURVE",
"536 67 CURVE",
"520 100 LINE",
"508 93 OFFCURVE",
"489 84 OFFCURVE",
"472 84 CURVE SMOOTH",
"459 84 OFFCURVE",
"447 90 OFFCURVE",
"440 106 CURVE SMOOTH",
"359 281 LINE",
"440 332 OFFCURVE",
"511 397 OFFCURVE",
"523 468 CURVE",
"512 487 LINE",
"512 487 OFFCURVE",
"501 490 OFFCURVE",
"485 490 CURVE SMOOTH",
"415 490 OFFCURVE",
"362 469 OFFCURVE",
"362 469 CURVE",
"366 437 LINE",
"390 436 OFFCURVE",
"405 429 OFFCURVE",
"405 418 CURVE SMOOTH",
"405 378 OFFCURVE",
"353 347 OFFCURVE",
"325 330 CURVE SMOOTH",
"297 313 OFFCURVE",
"262 296 OFFCURVE",
"217 281 CURVE",
"280 682 LINE",
"253 696 LINE",
"244 696 LINE SMOOTH",
"188 696 OFFCURVE",
"105 680 OFFCURVE",
"58 660 CURVE",
"61 621 LINE",
"69 622 OFFCURVE",
"76 623 OFFCURVE",
"82 623 CURVE SMOOTH",
"109 623 OFFCURVE",
"122 609 OFFCURVE",
"122 580 CURVE SMOOTH",
"122 573 OFFCURVE",
"121 566 OFFCURVE",
"120 558 CURVE SMOOTH",
"32 0 LINE",
"173 0 LINE"
);
},
{
closed = 1;
nodes = (
"173 0 LINE",
"205 207 LINE",
"219 212 OFFCURVE",
"233 217 OFFCURVE",
"248 224 CURVE",
"326 51 LINE SMOOTH",
"345 9 OFFCURVE",
"373 -6 OFFCURVE",
"403 -6 CURVE SMOOTH",
"450 -6 OFFCURVE",
"502 30 OFFCURVE",
"539 59 CURVE",
"523 92 LINE",
"511 85 OFFCURVE",
"492 76 OFFCURVE",
"475 76 CURVE SMOOTH",
"462 76 OFFCURVE",
"450 82 OFFCURVE",
"443 98 CURVE SMOOTH",
"359 281 LINE",
"440 332 OFFCURVE",
"511 397 OFFCURVE",
"523 468 CURVE",
"512 487 LINE",
"512 487 OFFCURVE",
"501 490 OFFCURVE",
"485 490 CURVE SMOOTH",
"415 490 OFFCURVE",
"362 469 OFFCURVE",
"362 469 CURVE",
"366 437 LINE",
"390 436 OFFCURVE",
"405 429 OFFCURVE",
"405 418 CURVE SMOOTH",
"405 378 OFFCURVE",
"353 347 OFFCURVE",
"325 330 CURVE SMOOTH",
"297 313 OFFCURVE",
"262 296 OFFCURVE",
"217 281 CURVE",
"280 682 LINE",
"253 696 LINE",
"249 696 OFFCURVE",
"245 696 OFFCURVE",
"241 696 CURVE SMOOTH",
"188 696 OFFCURVE",
"105 680 OFFCURVE",
"58 660 CURVE",
"61 621 LINE",
"69 622 OFFCURVE",
"76 623 OFFCURVE",
"82 623 CURVE SMOOTH",
"109 623 OFFCURVE",
"122 609 OFFCURVE",
"122 580 CURVE SMOOTH",
"122 571 OFFCURVE",
"121 560 OFFCURVE",
"120 552 CURVE SMOOTH",
"32 0 LINE"
);
}
);
};
layerId = "0FAD76F5-9F58-4721-BF81-08BC6166EF10";
paths = (
{
closed = 1;
nodes = (
"173 0 LINE",
"205 207 LINE",
"219 212 OFFCURVE",
"233 217 OFFCURVE",
"248 224 CURVE",
"326 51 LINE SMOOTH",
"344 12 OFFCURVE",
"369 -6 OFFCURVE",
"403 -6 CURVE SMOOTH",
"450 -6 OFFCURVE",
"502 30 OFFCURVE",
"539 59 CURVE",
"523 92 LINE",
"511 85 OFFCURVE",
"492 76 OFFCURVE",
"475 76 CURVE SMOOTH",
"462 76 OFFCURVE",
"450 82 OFFCURVE",
"443 98 CURVE SMOOTH",
"359 281 LINE",
"440 332 OFFCURVE",
"511 397 OFFCURVE",
"523 468 CURVE",
"512 487 LINE",
"505 489 OFFCURVE",
"496 490 OFFCURVE",
"485 490 CURVE SMOOTH",
"434 490 OFFCURVE",
"386 477 OFFCURVE",
"362 469 CURVE",
"366 437 LINE",
"390 436 OFFCURVE",
"405 429 OFFCURVE",
"405 416 CURVE SMOOTH",
"405 367 OFFCURVE",
"306 311 OFFCURVE",
"217 281 CURVE",
"280 682 LINE",
"253 696 LINE",
"193 696 OFFCURVE",
"109 682 OFFCURVE",
"58 660 CURVE",
"61 621 LINE",
"69 622 OFFCURVE",
"76 623 OFFCURVE",
"82 623 CURVE SMOOTH",
"109 623 OFFCURVE",
"122 609 OFFCURVE",
"122 583 CURVE SMOOTH",
"122 570 OFFCURVE",
"120 558 OFFCURVE",
"118 547 CURVE SMOOTH",
"32 0 LINE"
);
}
);
width = 542;
}
);
leftKerningGroup = h;
rightKerningGroup = k;
unicode = 006B;
},
{
color = 1;
glyphname = l;
lastChange = "2019-11-27 02:06:40 +0000";
layers = (
{
anchors = (
{
name = bottom;
position = "{103, 0}";
},
{
name = center_right;
position = "{279, 357}";
},
{
name = top;
position = "{177, 677}";
},
{
name = top_right;
position = "{250, 654}";
}
);
background = {
anchors = (
{
name = bottom;
position = "{121, 0}";
},
{
name = cedilla;
position = "{102, 0}";
},
{
name = top;
position = "{169, 705}";
}
);
paths = (
{
closed = 1;
nodes = (
"46 16 OFFCURVE",
"52 -7 OFFCURVE",
"102 -7 CURVE SMOOTH",
"143 -7 OFFCURVE",
"195 30 OFFCURVE",
"217 49 CURVE",
"207 81 LINE",
"202 78 OFFCURVE",
"173 62 OFFCURVE",
"156 62 CURVE SMOOTH",
"142 62 OFFCURVE",
"134 67 OFFCURVE",
"134 78 CURVE SMOOTH",
"134 80 OFFCURVE",
"136 90 OFFCURVE",
"138 100 CURVE SMOOTH",
"230 672 LINE",
"218 694 LINE",
"218 694 OFFCURVE",
"199 696 OFFCURVE",
"181 696 CURVE SMOOTH",
"131 696 OFFCURVE",
"61 682 OFFCURVE",
"61 682 CURVE",
"55 643 LINE",
"101 643 OFFCURVE",
"132 640 OFFCURVE",
"132 604 CURVE SMOOTH",
"132 586 OFFCURVE",
"46 93 OFFCURVE",
"46 45 CURVE SMOOTH",
"46 45 LINE"
);
},
{
closed = 1;
nodes = (
"46 16 OFFCURVE",
"52 -7 OFFCURVE",
"102 -7 CURVE SMOOTH",
"143 -7 OFFCURVE",
"195 30 OFFCURVE",
"217 49 CURVE",
"207 81 LINE",
"202 78 OFFCURVE",
"173 62 OFFCURVE",
"156 62 CURVE SMOOTH",
"142 62 OFFCURVE",
"134 67 OFFCURVE",
"134 78 CURVE SMOOTH",
"134 80 OFFCURVE",
"136 90 OFFCURVE",
"138 100 CURVE SMOOTH",
"230 672 LINE",
"218 694 LINE",
"218 694 OFFCURVE",
"199 696 OFFCURVE",
"181 696 CURVE SMOOTH",
"131 696 OFFCURVE",
"61 682 OFFCURVE",
"61 682 CURVE",
"55 643 LINE",
"101 643 OFFCURVE",
"132 640 OFFCURVE",
"132 604 CURVE SMOOTH",
"132 586 OFFCURVE",
"46 93 OFFCURVE",
"46 45 CURVE SMOOTH",
"46 45 LINE"
);
},
{
closed = 1;
nodes = (
"333 532 OFFCURVE",
"370 587 OFFCURVE",
"370 623 CURVE SMOOTH",
"370 647 OFFCURVE",
"353 663 OFFCURVE",
"324 663 CURVE SMOOTH",
"311 663 OFFCURVE",
"293 657 OFFCURVE",
"280 641 CURVE",
"291 631 OFFCURVE",
"296 620 OFFCURVE",
"296 604 CURVE SMOOTH",
"296 583 OFFCURVE",
"287 547 OFFCURVE",
"262 502 CURVE",
"296 489 LINE"
);
}
);
};
layerId = "CF479DE4-94A2-4865-8D1E-65EA355866D4";
paths = (
{
closed = 1;
nodes = (
"143 -7 OFFCURVE",
"195 30 OFFCURVE",
"217 49 CURVE",
"207 81 LINE",
"196 74 OFFCURVE",
"173 62 OFFCURVE",
"153 62 CURVE SMOOTH",
"141 62 OFFCURVE",
"135 67 OFFCURVE",
"135 77 CURVE SMOOTH",
"135 89 OFFCURVE",
"224 631 OFFCURVE",
"230 672 CURVE",
"218 694 LINE",
"206 695 OFFCURVE",
"195 696 OFFCURVE",
"181 696 CURVE SMOOTH",
"131 696 OFFCURVE",
"61 682 OFFCURVE",
"61 682 CURVE",
"55 643 LINE",
"60 643 OFFCURVE",
"65 643 OFFCURVE",
"70 643 CURVE SMOOTH",
"116 642 OFFCURVE",
"132 630 OFFCURVE",
"132 606 CURVE SMOOTH",
"132 583 OFFCURVE",
"46 93 OFFCURVE",
"46 42 CURVE SMOOTH",
"46 7 OFFCURVE",
"63 -7 OFFCURVE",
"98 -7 CURVE SMOOTH"
);
}
);
width = 256;
},
{
anchors = (
{
name = bottom;
position = "{122, 0}";
},
{
name = center_right;
position = "{339, 364}";
},
{
name = top;
position = "{195, 677}";
},
{
name = top_right;
position = "{294, 642}";
}
);
background = {
paths = (
{
closed = 1;
nodes = (
"50 113 OFFCURVE",
"48 95 OFFCURVE",
"48 81 CURVE SMOOTH",
"48 21 OFFCURVE",
"74 -6 OFFCURVE",
"131 -6 CURVE SMOOTH",
"175 -6 OFFCURVE",
"243 20 OFFCURVE",
"271 48 CURVE",
"258 84 LINE",
"239 73 OFFCURVE",
"223 68 OFFCURVE",
"212 68 CURVE SMOOTH",
"197 68 OFFCURVE",
"189 77 OFFCURVE",
"189 93 CURVE SMOOTH",
"189 96 OFFCURVE",
"191 113 OFFCURVE",
"193 122 CURVE",
"280 682 LINE",
"253 696 LINE",
"189 694 OFFCURVE",
"102 678 OFFCURVE",
"58 660 CURVE",
"61 621 LINE",
"75 623 OFFCURVE",
"78 623 OFFCURVE",
"82 623 CURVE SMOOTH",
"109 623 OFFCURVE",
"122 609 OFFCURVE",
"122 580 CURVE SMOOTH",
"122 575 OFFCURVE",
"122 571 OFFCURVE",
"120 558 CURVE SMOOTH",
"53 136 LINE"
);
},
{
closed = 1;
nodes = (
"412 530 OFFCURVE",
"449 589 OFFCURVE",
"449 624 CURVE SMOOTH",
"449 650 OFFCURVE",
"428 667 OFFCURVE",
"396 667 CURVE SMOOTH",
"375 667 OFFCURVE",
"349 656 OFFCURVE",
"336 641 CURVE",
"348 630 OFFCURVE",
"353 618 OFFCURVE",
"353 602 CURVE SMOOTH",
"353 577 OFFCURVE",
"340 538 OFFCURVE",
"319 498 CURVE",
"364 478 LINE"
);
}
);
};
layerId = "0FAD76F5-9F58-4721-BF81-08BC6166EF10";
paths = (
{
closed = 1;
nodes = (
"173 -6 OFFCURVE",
"241 20 OFFCURVE",
"269 48 CURVE",
"256 84 LINE",
"237 73 OFFCURVE",
"221 68 OFFCURVE",
"210 68 CURVE SMOOTH",
"195 68 OFFCURVE",
"187 77 OFFCURVE",
"187 93 CURVE SMOOTH",
"187 115 OFFCURVE",
"272 633 OFFCURVE",
"278 682 CURVE",
"251 696 LINE",
"187 694 OFFCURVE",
"100 678 OFFCURVE",
"56 660 CURVE",
"59 621 LINE",
"66 622 OFFCURVE",
"72 623 OFFCURVE",
"80 623 CURVE SMOOTH",
"107 623 OFFCURVE",
"120 609 OFFCURVE",
"120 580 CURVE SMOOTH",
"120 536 OFFCURVE",
"46 134 OFFCURVE",
"46 81 CURVE SMOOTH",
"46 21 OFFCURVE",
"72 -6 OFFCURVE",
"129 -6 CURVE SMOOTH"
);
}
);
width = 291;
}
);
leftKerningGroup = l;
rightKerningGroup = l;
unicode = 006C;
},
{
color = 1;
glyphname = m;
lastChange = "2019-11-26 17:06:25 +0000";
layers = (
{
anchors = (
{
name = top;
position = "{473, 505}";
}
);
background = {
anchors = (
{
name = top;
position = "{473, 505}";
}
);
paths = (
{
closed = 1;
nodes = (
"726 352 OFFCURVE",
"726 360 OFFCURVE",
"726 369 CURVE SMOOTH",
"726 437 OFFCURVE",
"685 476 OFFCURVE",
"613 476 CURVE SMOOTH",
"540 476 OFFCURVE",
"489 417 OFFCURVE",
"458 364 CURVE",
"458 435 OFFCURVE",
"420 476 OFFCURVE",
"345 476 CURVE SMOOTH",
"269 476 OFFCURVE",
"217 413 OFFCURVE",
"187 359 CURVE",
"197 454 LINE",
"187 473 LINE",
"181 474 OFFCURVE",
"174 475 OFFCURVE",
"165 475 CURVE SMOOTH",
"123 475 OFFCURVE",
"52 461 OFFCURVE",
"36 445 CURVE",
"41 413 LINE",
"53 414 OFFCURVE",
"63 415 OFFCURVE",
"72 415 CURVE SMOOTH",
"94 415 OFFCURVE",
"106 409 OFFCURVE",
"106 386 CURVE SMOOTH",
"106 378 OFFCURVE",
"46 0 OFFCURVE",
"46 0 CURVE",
"131 0 LINE",
"157 163 LINE SMOOTH",
"176 283 OFFCURVE",
"233 421 OFFCURVE",
"317 421 CURVE SMOOTH",
"347 421 OFFCURVE",
"370 399 OFFCURVE",
"370 353 CURVE SMOOTH",
"370 319 OFFCURVE",
"324 63 OFFCURVE",
"315 0 CURVE",
"400 0 LINE",
"419 143 OFFCURVE",
"453 421 OFFCURVE",
"585 421 CURVE SMOOTH",
"615 421 OFFCURVE",
"638 399 OFFCURVE",
"638 353 CURVE SMOOTH",
"638 319 OFFCURVE",
"590 76 OFFCURVE",
"590 45 CURVE SMOOTH",
"590 16 OFFCURVE",
"597 -7 OFFCURVE",
"646 -7 CURVE SMOOTH",
"687 -7 OFFCURVE",
"739 30 OFFCURVE",
"761 49 CURVE",
"751 81 LINE",
"746 78 OFFCURVE",
"717 62 OFFCURVE",
"700 62 CURVE SMOOTH",
"687 62 OFFCURVE",
"680 66 OFFCURVE",
"680 77 CURVE SMOOTH",
"680 79 OFFCURVE",
"682 92 OFFCURVE",
"685 107 CURVE SMOOTH",
"722 329 LINE"
);
}
);
};
layerId = "CF479DE4-94A2-4865-8D1E-65EA355866D4";
paths = (
{
closed = 1;
nodes = (
"726 352 OFFCURVE",
"726 360 OFFCURVE",
"726 369 CURVE SMOOTH",
"726 437 OFFCURVE",
"685 476 OFFCURVE",
"613 476 CURVE SMOOTH",
"540 476 OFFCURVE",
"489 417 OFFCURVE",
"458 364 CURVE",
"458 435 OFFCURVE",
"420 476 OFFCURVE",
"345 476 CURVE SMOOTH",
"269 476 OFFCURVE",
"217 413 OFFCURVE",
"187 359 CURVE",
"197 454 LINE",
"187 473 LINE",
"181 474 OFFCURVE",
"174 475 OFFCURVE",
"165 475 CURVE SMOOTH",
"123 475 OFFCURVE",
"52 461 OFFCURVE",
"36 445 CURVE",
"41 413 LINE",
"53 414 OFFCURVE",
"63 415 OFFCURVE",
"72 415 CURVE SMOOTH",
"94 415 OFFCURVE",
"106 409 OFFCURVE",
"106 386 CURVE SMOOTH",
"106 378 OFFCURVE",
"46 0 OFFCURVE",
"46 0 CURVE",
"131 0 LINE",
"157 163 LINE SMOOTH",
"176 283 OFFCURVE",
"233 421 OFFCURVE",
"317 421 CURVE SMOOTH",
"347 421 OFFCURVE",
"370 399 OFFCURVE",
"370 353 CURVE SMOOTH",
"370 319 OFFCURVE",
"324 63 OFFCURVE",
"315 0 CURVE",
"400 0 LINE",
"419 143 OFFCURVE",
"453 421 OFFCURVE",
"585 421 CURVE SMOOTH",
"615 421 OFFCURVE",
"638 399 OFFCURVE",
"638 353 CURVE SMOOTH",
"638 319 OFFCURVE",
"590 76 OFFCURVE",
"590 45 CURVE SMOOTH",
"590 16 OFFCURVE",
"597 -7 OFFCURVE",
"646 -7 CURVE SMOOTH",
"687 -7 OFFCURVE",
"739 30 OFFCURVE",
"761 49 CURVE",
"751 81 LINE",
"746 78 OFFCURVE",
"717 62 OFFCURVE",
"700 62 CURVE SMOOTH",
"687 62 OFFCURVE",
"680 66 OFFCURVE",
"680 77 CURVE SMOOTH",
"680 79 OFFCURVE",
"682 92 OFFCURVE",
"685 107 CURVE SMOOTH",
"722 329 LINE"
);
}
);
width = 800;
},
{
layerId = "0FAD76F5-9F58-4721-BF81-08BC6166EF10";
paths = (
{
closed = 1;
nodes = (
"655 425 OFFCURVE",
"670 404 OFFCURVE",
"670 365 CURVE SMOOTH",
"670 354 OFFCURVE",
"669 342 OFFCURVE",
"667 329 CURVE SMOOTH",
"636 136 LINE SMOOTH",
"633 115 OFFCURVE",
"630 96 OFFCURVE",
"630 80 CURVE SMOOTH",
"630 27 OFFCURVE",
"652 -6 OFFCURVE",
"714 -6 CURVE SMOOTH",
"761 -6 OFFCURVE",
"828 22 OFFCURVE",
"854 48 CURVE",
"841 84 LINE",
"823 74 OFFCURVE",
"807 68 OFFCURVE",
"795 68 CURVE SMOOTH",
"781 68 OFFCURVE",
"773 76 OFFCURVE",
"773 92 CURVE SMOOTH",
"773 98 OFFCURVE",
"775 110 OFFCURVE",
"776 116 CURVE SMOOTH",
"809 331 LINE SMOOTH",
"811 342 OFFCURVE",
"812 359 OFFCURVE",
"812 369 CURVE SMOOTH",
"812 446 OFFCURVE",
"765 492 OFFCURVE",
"685 492 CURVE SMOOTH",
"617 492 OFFCURVE",
"564 456 OFFCURVE",
"523 391 CURVE",
"515 454 OFFCURVE",
"469 492 OFFCURVE",
"397 492 CURVE SMOOTH",
"330 492 OFFCURVE",
"277 457 OFFCURVE",
"236 393 CURVE",
"239 483 LINE",
"224 492 LINE",
"169 491 OFFCURVE",
"79 477 OFFCURVE",
"29 456 CURVE",
"32 417 LINE",
"40 418 OFFCURVE",
"47 419 OFFCURVE",
"53 419 CURVE SMOOTH",
"80 419 OFFCURVE",
"93 405 OFFCURVE",
"93 376 CURVE SMOOTH",
"93 369 OFFCURVE",
"92 362 OFFCURVE",
"91 354 CURVE SMOOTH",
"34 0 LINE",
"175 0 LINE",
"207 196 LINE SMOOTH",
"225 310 OFFCURVE",
"291 425 OFFCURVE",
"340 425 CURVE SMOOTH",
"367 425 OFFCURVE",
"382 404 OFFCURVE",
"382 365 CURVE SMOOTH",
"382 354 OFFCURVE",
"381 342 OFFCURVE",
"379 329 CURVE SMOOTH",
"325 0 LINE",
"467 0 LINE",
"507 251 LINE",
"534 344 OFFCURVE",
"588 425 OFFCURVE",
"628 425 CURVE SMOOTH",
"628 425 LINE"
);
}
);
width = 870;
}
);
leftKerningGroup = n;
rightKerningGroup = n;
unicode = 006D;
},
{
color = 1;
glyphname = n;
lastChange = "2019-11-26 16:46:18 +0000";
layers = (
{
anchors = (
{
name = bottom;
position = "{243, 0}";
},
{
name = cedilla;
position = "{224, 0}";
},
{
name = top;
position = "{292, 505}";
}
);
background = {
anchors = (
{
name = bottom;
position = "{243, 0}";
},
{
name = cedilla;
position = "{224, 0}";
},
{
name = top;
position = "{292, 505}";
}
);
paths = (
{
closed = 1;
nodes = (
"157 163 LINE SMOOTH",
"176 283 OFFCURVE",
"233 421 OFFCURVE",
"317 421 CURVE SMOOTH",
"347 421 OFFCURVE",
"370 399 OFFCURVE",
"370 353 CURVE SMOOTH",
"370 320 OFFCURVE",
"322 75 OFFCURVE",
"322 45 CURVE SMOOTH",
"322 16 OFFCURVE",
"329 -7 OFFCURVE",
"378 -7 CURVE SMOOTH",
"418 -7 OFFCURVE",
"471 30 OFFCURVE",
"493 49 CURVE",
"483 81 LINE",
"478 78 OFFCURVE",
"449 62 OFFCURVE",
"432 62 CURVE SMOOTH",
"416 62 OFFCURVE",
"413 68 OFFCURVE",
"413 84 CURVE SMOOTH",
"413 100 OFFCURVE",
"439 236 OFFCURVE",
"454 328 CURVE SMOOTH",
"457 348 OFFCURVE",
"458 364 OFFCURVE",
"458 369 CURVE SMOOTH",
"458 437 OFFCURVE",
"417 476 OFFCURVE",
"345 476 CURVE SMOOTH",
"269 476 OFFCURVE",
"217 413 OFFCURVE",
"187 359 CURVE",
"197 454 LINE",
"187 473 LINE",
"187 473 OFFCURVE",
"174 476 OFFCURVE",
"162 476 CURVE SMOOTH",
"104 476 OFFCURVE",
"36 445 OFFCURVE",
"36 445 CURVE",
"41 413 LINE",
"53 414 OFFCURVE",
"63 415 OFFCURVE",
"72 415 CURVE SMOOTH",
"94 415 OFFCURVE",
"106 409 OFFCURVE",
"106 386 CURVE SMOOTH",
"106 378 OFFCURVE",
"46 0 OFFCURVE",
"46 0 CURVE",
"131 0 LINE"
);
}
);
};
layerId = "CF479DE4-94A2-4865-8D1E-65EA355866D4";
paths = (
{
closed = 1;
nodes = (
"157 163 LINE SMOOTH",
"176 283 OFFCURVE",
"233 421 OFFCURVE",
"317 421 CURVE SMOOTH",
"347 421 OFFCURVE",
"370 399 OFFCURVE",
"370 353 CURVE SMOOTH",
"370 320 OFFCURVE",
"322 75 OFFCURVE",
"322 45 CURVE SMOOTH",
"322 16 OFFCURVE",
"329 -7 OFFCURVE",
"378 -7 CURVE SMOOTH",
"418 -7 OFFCURVE",
"471 30 OFFCURVE",
"493 49 CURVE",
"483 81 LINE",
"478 78 OFFCURVE",
"449 62 OFFCURVE",
"432 62 CURVE SMOOTH",
"416 62 OFFCURVE",
"413 68 OFFCURVE",
"413 84 CURVE SMOOTH",
"413 100 OFFCURVE",
"439 236 OFFCURVE",
"454 328 CURVE SMOOTH",
"457 348 OFFCURVE",
"458 364 OFFCURVE",
"458 369 CURVE SMOOTH",
"458 437 OFFCURVE",
"417 476 OFFCURVE",
"345 476 CURVE SMOOTH",
"269 476 OFFCURVE",
"217 413 OFFCURVE",
"187 359 CURVE",
"197 454 LINE",
"187 473 LINE",
"187 473 OFFCURVE",
"174 476 OFFCURVE",
"162 476 CURVE SMOOTH",
"104 476 OFFCURVE",
"36 445 OFFCURVE",
"36 445 CURVE",
"41 413 LINE",
"53 414 OFFCURVE",
"63 415 OFFCURVE",
"72 415 CURVE SMOOTH",
"94 415 OFFCURVE",
"106 409 OFFCURVE",
"106 386 CURVE SMOOTH",
"106 378 OFFCURVE",
"46 0 OFFCURVE",
"46 0 CURVE",
"131 0 LINE"
);
}
);
width = 532;
},
{
anchors = (
{
name = bottom;
position = "{288, 0}";
},
{
name = top;
position = "{343, 515}";
}
);
layerId = "0FAD76F5-9F58-4721-BF81-08BC6166EF10";
paths = (
{
closed = 1;
nodes = (
"175 0 LINE",
"207 196 LINE SMOOTH",
"225 310 OFFCURVE",
"291 425 OFFCURVE",
"340 425 CURVE SMOOTH",
"367 425 OFFCURVE",
"382 404 OFFCURVE",
"382 365 CURVE SMOOTH",
"382 354 OFFCURVE",
"381 342 OFFCURVE",
"379 329 CURVE SMOOTH",
"348 136 LINE SMOOTH",
"345 116 OFFCURVE",
"343 97 OFFCURVE",
"343 80 CURVE SMOOTH",
"343 27 OFFCURVE",
"363 -6 OFFCURVE",
"426 -6 CURVE SMOOTH",
"473 -6 OFFCURVE",
"540 22 OFFCURVE",
"566 48 CURVE",
"553 84 LINE",
"535 74 OFFCURVE",
"519 68 OFFCURVE",
"507 68 CURVE SMOOTH",
"490 68 OFFCURVE",
"485 80 OFFCURVE",
"485 93 CURVE SMOOTH",
"485 103 OFFCURVE",
"488 114 OFFCURVE",
"489 122 CURVE SMOOTH",
"521 329 LINE SMOOTH",
"523 342 OFFCURVE",
"524 359 OFFCURVE",
"524 369 CURVE SMOOTH",
"524 446 OFFCURVE",
"477 492 OFFCURVE",
"397 492 CURVE SMOOTH",
"330 492 OFFCURVE",
"276 457 OFFCURVE",
"236 392 CURVE",
"240 483 LINE",
"224 492 LINE",
"169 491 OFFCURVE",
"79 477 OFFCURVE",
"29 456 CURVE",
"32 417 LINE",
"40 418 OFFCURVE",
"47 419 OFFCURVE",
"53 419 CURVE SMOOTH",
"80 419 OFFCURVE",
"93 405 OFFCURVE",
"93 376 CURVE SMOOTH",
"93 369 OFFCURVE",
"92 362 OFFCURVE",
"91 354 CURVE SMOOTH",
"34 0 LINE"
);
}
);
width = 582;
}
);
leftKerningGroup = n;
rightKerningGroup = n;
unicode = 006E;
},
{
color = 4;
glyphname = o;
lastChange = "2019-11-27 03:44:30 +0000";
layers = (
{
anchors = (
{
name = ogonek;
position = "{258, 0}";
},
{
name = top;
position = "{295, 467}";
}
);
background = {
anchors = (
{
name = ogonek;
position = "{258, 0}";
},
{
name = top;
position = "{295, 505}";
}
);
paths = (
{
closed = 1;
nodes = (
"-349 41 OFFCURVE",
"-370 88 OFFCURVE",
"-370 157 CURVE SMOOTH",
"-370 305 OFFCURVE",
"-299 428 OFFCURVE",
"-222 428 CURVE SMOOTH",
"-175 428 OFFCURVE",
"-152 383 OFFCURVE",
"-152 311 CURVE SMOOTH",
"-152 162 OFFCURVE",
"-225 41 OFFCURVE",
"-300 41 CURVE SMOOTH",
"-300 41 LINE"
);
},
{
closed = 1;
nodes = (
"-141 -7 OFFCURVE",
"-59 146 OFFCURVE",
"-59 305 CURVE SMOOTH",
"-59 413 OFFCURVE",
"-115 476 OFFCURVE",
"-222 476 CURVE SMOOTH",
"-381 476 OFFCURVE",
"-463 322 OFFCURVE",
"-463 164 CURVE SMOOTH",
"-463 56 OFFCURVE",
"-407 -7 OFFCURVE",
"-300 -7 CURVE SMOOTH",
"-300 -7 LINE"
);
},
{
closed = 1;
nodes = (
"336 -7 OFFCURVE",
"415 78 OFFCURVE",
"438 235 CURVE SMOOTH",
"461 392 OFFCURVE",
"409 476 OFFCURVE",
"278 476 CURVE SMOOTH",
"148 476 OFFCURVE",
"69 392 OFFCURVE",
"46 235 CURVE SMOOTH",
"23 78 OFFCURVE",
"76 -7 OFFCURVE",
"206 -7 CURVE SMOOTH"
);
},
{
closed = 1;
nodes = (
"132 39 OFFCURVE",
"108 96 OFFCURVE",
"129 235 CURVE SMOOTH",
"150 374 OFFCURVE",
"191 430 OFFCURVE",
"271 430 CURVE SMOOTH",
"352 430 OFFCURVE",
"378 374 OFFCURVE",
"357 235 CURVE SMOOTH",
"336 96 OFFCURVE",
"293 39 OFFCURVE",
"213 39 CURVE SMOOTH"
);
}
);
};
layerId = "CF479DE4-94A2-4865-8D1E-65EA355866D4";
paths = (
{
closed = 1;
nodes = (
"362 -7 OFFCURVE",
"444 146 OFFCURVE",
"444 305 CURVE SMOOTH",
"444 413 OFFCURVE",
"388 476 OFFCURVE",
"281 476 CURVE SMOOTH",
"122 476 OFFCURVE",
"40 322 OFFCURVE",
"40 164 CURVE SMOOTH",
"40 56 OFFCURVE",
"96 -7 OFFCURVE",
"203 -7 CURVE SMOOTH"
);
},
{
closed = 1;
nodes = (
"154 41 OFFCURVE",
"133 88 OFFCURVE",
"133 157 CURVE SMOOTH",
"133 305 OFFCURVE",
"204 428 OFFCURVE",
"281 428 CURVE SMOOTH",
"328 428 OFFCURVE",
"351 383 OFFCURVE",
"351 311 CURVE SMOOTH",
"351 162 OFFCURVE",
"278 41 OFFCURVE",
"203 41 CURVE SMOOTH"
);
}
);
width = 483;
},
{
anchors = (
{
name = ogonek;
position = "{296, 0}";
},
{
name = top;
position = "{329, 484}";
}
);
background = {
paths = (
{
closed = 1;
nodes = (
"-136 -7 OFFCURVE",
"-34 101 OFFCURVE",
"-34 295 CURVE SMOOTH",
"-34 424 OFFCURVE",
"-105 492 OFFCURVE",
"-240 492 CURVE SMOOTH",
"-424 492 OFFCURVE",
"-526 384 OFFCURVE",
"-526 191 CURVE SMOOTH",
"-526 61 OFFCURVE",
"-454 -7 OFFCURVE",
"-319 -7 CURVE SMOOTH"
);
},
{
closed = 1;
nodes = (
"-360 49 OFFCURVE",
"-382 86 OFFCURVE",
"-382 167 CURVE SMOOTH",
"-382 321 OFFCURVE",
"-325 436 OFFCURVE",
"-249 436 CURVE SMOOTH",
"-200 436 OFFCURVE",
"-178 400 OFFCURVE",
"-178 319 CURVE SMOOTH",
"-178 164 OFFCURVE",
"-234 49 OFFCURVE",
"-310 49 CURVE SMOOTH"
);
},
{
closed = 1;
nodes = (
"-136 -7 OFFCURVE",
"-34 101 OFFCURVE",
"-34 295 CURVE SMOOTH",
"-34 424 OFFCURVE",
"-105 492 OFFCURVE",
"-240 492 CURVE SMOOTH",
"-424 492 OFFCURVE",
"-526 384 OFFCURVE",
"-526 191 CURVE SMOOTH",
"-526 61 OFFCURVE",
"-454 -7 OFFCURVE",
"-319 -7 CURVE SMOOTH"
);
},
{
closed = 1;
nodes = (
"-353 49 OFFCURVE",
"-382 76 OFFCURVE",
"-382 167 CURVE SMOOTH",
"-382 349 OFFCURVE",
"-310 436 OFFCURVE",
"-249 436 CURVE SMOOTH",
"-204 436 OFFCURVE",
"-178 406 OFFCURVE",
"-178 319 CURVE SMOOTH",
"-178 164 OFFCURVE",
"-234 49 OFFCURVE",
"-310 49 CURVE SMOOTH"
);
},
{
closed = 1;
nodes = (
"1713 -7 OFFCURVE",
"1806 80 OFFCURVE",
"1830 242 CURVE SMOOTH",
"1854 404 OFFCURVE",
"1787 492 OFFCURVE",
"1627 492 CURVE SMOOTH",
"1467 492 OFFCURVE",
"1374 403 OFFCURVE",
"1350 241 CURVE SMOOTH",
"1326 79 OFFCURVE",
"1393 -7 OFFCURVE",
"1553 -7 CURVE SMOOTH"
);
},
{
closed = 1;
nodes = (
"1496 49 OFFCURVE",
"1476 105 OFFCURVE",
"1497 242 CURVE SMOOTH",
"1518 379 OFFCURVE",
"1554 436 OFFCURVE",
"1619 436 CURVE SMOOTH",
"1684 436 OFFCURVE",
"1703 379 OFFCURVE",
"1683 242 CURVE SMOOTH",
"1663 105 OFFCURVE",
"1626 49 OFFCURVE",
"1561 49 CURVE SMOOTH"
);
},
{
closed = 1;
nodes = (
"420 -7 OFFCURVE",
"522 101 OFFCURVE",
"522 295 CURVE SMOOTH",
"522 424 OFFCURVE",
"451 492 OFFCURVE",
"316 492 CURVE SMOOTH",
"132 492 OFFCURVE",
"30 384 OFFCURVE",
"30 191 CURVE SMOOTH",
"30 61 OFFCURVE",
"102 -7 OFFCURVE",
"237 -7 CURVE SMOOTH"
);
},
{
closed = 1;
nodes = (
"203 49 OFFCURVE",
"174 76 OFFCURVE",
"174 167 CURVE SMOOTH",
"174 349 OFFCURVE",
"246 436 OFFCURVE",
"307 436 CURVE SMOOTH",
"352 436 OFFCURVE",
"378 406 OFFCURVE",
"378 319 CURVE SMOOTH",
"378 164 OFFCURVE",
"322 49 OFFCURVE",
"246 49 CURVE SMOOTH"
);
},
{
closed = 1;
nodes = (
"424 -7 OFFCURVE",
"522 117 OFFCURVE",
"522 302 CURVE SMOOTH",
"522 426 OFFCURVE",
"453 492 OFFCURVE",
"314 492 CURVE SMOOTH",
"131 492 OFFCURVE",
"32 366 OFFCURVE",
"32 181 CURVE SMOOTH",
"32 58 OFFCURVE",
"101 -7 OFFCURVE",
"240 -7 CURVE SMOOTH"
);
},
{
closed = 1;
nodes = (
"199 49 OFFCURVE",
"176 80 OFFCURVE",
"176 153 CURVE SMOOTH",
"176 273 OFFCURVE",
"209 436 OFFCURVE",
"306 436 CURVE SMOOTH",
"355 436 OFFCURVE",
"378 404 OFFCURVE",
"378 330 CURVE SMOOTH",
"378 210 OFFCURVE",
"346 49 OFFCURVE",
"248 49 CURVE SMOOTH"
);
}
);
};
layerId = "0FAD76F5-9F58-4721-BF81-08BC6166EF10";
paths = (
{
closed = 1;
nodes = (
"424 -7 OFFCURVE",
"522 119 OFFCURVE",
"522 292 CURVE SMOOTH",
"522 424 OFFCURVE",
"448 492 OFFCURVE",
"314 492 CURVE SMOOTH",
"131 492 OFFCURVE",
"32 365 OFFCURVE",
"32 192 CURVE SMOOTH",
"32 59 OFFCURVE",
"106 -7 OFFCURVE",
"240 -7 CURVE SMOOTH"
);
},
{
closed = 1;
nodes = (
"199 49 OFFCURVE",
"176 80 OFFCURVE",
"176 153 CURVE SMOOTH",
"176 273 OFFCURVE",
"209 436 OFFCURVE",
"306 436 CURVE SMOOTH",
"355 436 OFFCURVE",
"378 404 OFFCURVE",
"378 330 CURVE SMOOTH",
"378 210 OFFCURVE",
"346 49 OFFCURVE",
"248 49 CURVE SMOOTH"
);
}
);
width = 554;
}
);
leftKerningGroup = o;
rightKerningGroup = o;
unicode = 006F;
},
{
color = 1;
glyphname = p;
lastChange = "2019-11-26 17:07:17 +0000";
layers = (
{
anchors = (
{
name = top;
position = "{315, 467}";
}
);
background = {
anchors = (
{
name = top;
position = "{315, 505}";
}
);
paths = (
{
closed = 1;
nodes = (
"22 -208 OFFCURVE",
"30 -219 OFFCURVE",
"79 -219 CURVE SMOOTH",
"119 -219 OFFCURVE",
"162 -206 OFFCURVE",
"192 -192 CURVE",
"183 -161 LINE",
"174 -163 OFFCURVE",
"147 -167 OFFCURVE",
"129 -167 CURVE SMOOTH",
"114 -167 OFFCURVE",
"109 -160 OFFCURVE",
"109 -145 CURVE SMOOTH",
"109 -130 OFFCURVE",
"119 -62 OFFCURVE",
"131 14 CURVE",
"175 -5 OFFCURVE",
"212 -7 OFFCURVE",
"239 -7 CURVE SMOOTH",
"381 -7 OFFCURVE",
"462 155 OFFCURVE",
"462 297 CURVE SMOOTH",
"462 399 OFFCURVE",
"437 476 OFFCURVE",
"334 476 CURVE SMOOTH",
"268 476 OFFCURVE",
"215 413 OFFCURVE",
"185 366 CURVE",
"195 454 LINE",
"185 473 LINE",
"185 473 OFFCURVE",
"174 476 OFFCURVE",
"158 476 CURVE SMOOTH",
"100 476 OFFCURVE",
"36 445 OFFCURVE",
"36 445 CURVE",
"42 413 LINE",
"54 414 OFFCURVE",
"64 415 OFFCURVE",
"73 415 CURVE SMOOTH",
"95 415 OFFCURVE",
"107 409 OFFCURVE",
"107 386 CURVE SMOOTH",
"107 382 OFFCURVE",
"22 -143 OFFCURVE",
"22 -179 CURVE SMOOTH",
"22 -179 LINE"
);
},
{
closed = 1;
nodes = (
"167 306 OFFCURVE",
"253 424 OFFCURVE",
"308 424 CURVE SMOOTH",
"356 424 OFFCURVE",
"373 368 OFFCURVE",
"373 297 CURVE SMOOTH",
"373 188 OFFCURVE",
"309 38 OFFCURVE",
"216 38 CURVE SMOOTH",
"175 38 OFFCURVE",
"143 51 OFFCURVE",
"143 75 CURVE",
"143 75 LINE"
);
}
);
};
layerId = "CF479DE4-94A2-4865-8D1E-65EA355866D4";
paths = (
{
closed = 1;
nodes = (
"119 -219 OFFCURVE",
"162 -206 OFFCURVE",
"192 -192 CURVE",
"183 -161 LINE",
"174 -163 OFFCURVE",
"147 -167 OFFCURVE",
"129 -167 CURVE SMOOTH",
"114 -167 OFFCURVE",
"109 -160 OFFCURVE",
"109 -145 CURVE SMOOTH",
"109 -130 OFFCURVE",
"119 -62 OFFCURVE",
"131 14 CURVE",
"175 -5 OFFCURVE",
"212 -7 OFFCURVE",
"239 -7 CURVE SMOOTH",
"381 -7 OFFCURVE",
"462 155 OFFCURVE",
"462 297 CURVE SMOOTH",
"462 399 OFFCURVE",
"437 476 OFFCURVE",
"334 476 CURVE SMOOTH",
"268 476 OFFCURVE",
"215 413 OFFCURVE",
"185 366 CURVE",
"195 454 LINE",
"185 473 LINE",
"177 475 OFFCURVE",
"168 476 OFFCURVE",
"158 476 CURVE SMOOTH",
"106 476 OFFCURVE",
"52 452 OFFCURVE",
"36 445 CURVE",
"42 413 LINE",
"54 414 OFFCURVE",
"64 415 OFFCURVE",
"73 415 CURVE SMOOTH",
"95 415 OFFCURVE",
"107 407 OFFCURVE",
"107 390 CURVE SMOOTH",
"107 376 OFFCURVE",
"22 -143 OFFCURVE",
"22 -179 CURVE SMOOTH",
"22 -208 OFFCURVE",
"36 -219 OFFCURVE",
"79 -219 CURVE SMOOTH"
);
},
{
closed = 1;
nodes = (
"175 38 OFFCURVE",
"141 51 OFFCURVE",
"143 77 CURVE SMOOTH",
"160 273 OFFCURVE",
"245 424 OFFCURVE",
"308 424 CURVE SMOOTH",
"356 424 OFFCURVE",
"373 368 OFFCURVE",
"373 297 CURVE SMOOTH",
"373 188 OFFCURVE",
"309 38 OFFCURVE",
"216 38 CURVE SMOOTH"
);
}
);
width = 502;
},
{
background = {
paths = (
{
closed = 1;
nodes = (
"147 -216 OFFCURVE",
"214 -188 OFFCURVE",
"240 -162 CURVE",
"227 -126 LINE",
"209 -136 OFFCURVE",
"193 -142 OFFCURVE",
"181 -142 CURVE SMOOTH",
"167 -142 OFFCURVE",
"159 -134 OFFCURVE",
"159 -118 CURVE SMOOTH",
"159 -115 OFFCURVE",
"159 -112 OFFCURVE",
"162 -94 CURVE SMOOTH",
"179 17 LINE",
"205 2 OFFCURVE",
"231 -7 OFFCURVE",
"275 -7 CURVE SMOOTH",
"442 -7 OFFCURVE",
"543 112 OFFCURVE",
"543 312 CURVE SMOOTH",
"543 430 OFFCURVE",
"489 492 OFFCURVE",
"390 492 CURVE SMOOTH",
"324 492 OFFCURVE",
"274 467 OFFCURVE",
"237 417 CURVE",
"240 483 LINE",
"224 492 LINE",
"169 491 OFFCURVE",
"79 477 OFFCURVE",
"29 456 CURVE",
"32 417 LINE",
"40 418 OFFCURVE",
"47 419 OFFCURVE",
"53 419 CURVE SMOOTH",
"80 419 OFFCURVE",
"93 405 OFFCURVE",
"93 376 CURVE SMOOTH",
"93 369 OFFCURVE",
"92 362 OFFCURVE",
"91 354 CURVE SMOOTH",
"22 -74 LINE SMOOTH",
"19 -95 OFFCURVE",
"16 -114 OFFCURVE",
"16 -130 CURVE SMOOTH",
"16 -183 OFFCURVE",
"38 -216 OFFCURVE",
"100 -216 CURVE SMOOTH"
);
},
{
closed = 1;
nodes = (
"222 46 OFFCURVE",
"198 56 OFFCURVE",
"186 66 CURVE",
"221 284 LINE SMOOTH",
"237 383 OFFCURVE",
"283 432 OFFCURVE",
"336 432 CURVE SMOOTH",
"378 432 OFFCURVE",
"398 395 OFFCURVE",
"398 322 CURVE SMOOTH",
"398 190 OFFCURVE",
"361 46 OFFCURVE",
"249 46 CURVE SMOOTH"
);
}
);
};
layerId = "0FAD76F5-9F58-4721-BF81-08BC6166EF10";
paths = (
{
closed = 1;
nodes = (
"147 -216 OFFCURVE",
"214 -188 OFFCURVE",
"240 -162 CURVE",
"227 -126 LINE",
"209 -136 OFFCURVE",
"193 -142 OFFCURVE",
"181 -142 CURVE SMOOTH",
"168 -142 OFFCURVE",
"159 -135 OFFCURVE",
"159 -121 CURVE SMOOTH",
"159 -109 OFFCURVE",
"174 -13 OFFCURVE",
"179 17 CURVE",
"205 2 OFFCURVE",
"231 -7 OFFCURVE",
"275 -7 CURVE SMOOTH",
"442 -7 OFFCURVE",
"543 112 OFFCURVE",
"543 312 CURVE SMOOTH",
"543 430 OFFCURVE",
"489 492 OFFCURVE",
"390 492 CURVE SMOOTH",
"324 492 OFFCURVE",
"274 467 OFFCURVE",
"237 417 CURVE",
"240 483 LINE",
"224 492 LINE",
"169 491 OFFCURVE",
"79 477 OFFCURVE",
"29 456 CURVE",
"32 417 LINE",
"40 418 OFFCURVE",
"47 419 OFFCURVE",
"53 419 CURVE SMOOTH",
"80 419 OFFCURVE",
"93 405 OFFCURVE",
"93 377 CURVE SMOOTH",
"93 341 OFFCURVE",
"16 -88 OFFCURVE",
"16 -138 CURVE SMOOTH",
"16 -190 OFFCURVE",
"45 -216 OFFCURVE",
"100 -216 CURVE SMOOTH"
);
},
{
closed = 1;
nodes = (
"222 46 OFFCURVE",
"198 56 OFFCURVE",
"186 66 CURVE",
"221 284 LINE SMOOTH",
"237 383 OFFCURVE",
"283 432 OFFCURVE",
"336 432 CURVE SMOOTH",
"378 432 OFFCURVE",
"398 395 OFFCURVE",
"398 322 CURVE SMOOTH",
"398 190 OFFCURVE",
"361 46 OFFCURVE",
"249 46 CURVE SMOOTH"
);
}
);
width = 574;
}
);
leftKerningGroup = n;
rightKerningGroup = o;
unicode = 0070;
},
{
color = 4;
glyphname = q;
lastChange = "2019-11-26 17:08:59 +0000";
layers = (
{
background = {
anchors = (
{
name = top;
position = "{295, 505}";
}
);
paths = (
{
closed = 1;
nodes = (
"457 474 OFFCURVE",
"446 476 OFFCURVE",
"429 476 CURVE SMOOTH",
"404 476 OFFCURVE",
"387 463 OFFCURVE",
"377 451 CURVE",
"330 473 OFFCURVE",
"291 476 OFFCURVE",
"263 476 CURVE SMOOTH",
"121 476 OFFCURVE",
"40 313 OFFCURVE",
"40 172 CURVE SMOOTH",
"40 69 OFFCURVE",
"66 -7 OFFCURVE",
"168 -7 CURVE SMOOTH",
"235 -7 OFFCURVE",
"288 57 OFFCURVE",
"318 103 CURVE",
"293 -42 OFFCURVE",
"271 -160 OFFCURVE",
"271 -178 CURVE SMOOTH",
"271 -207 OFFCURVE",
"279 -219 OFFCURVE",
"329 -219 CURVE SMOOTH",
"369 -219 OFFCURVE",
"410 -206 OFFCURVE",
"441 -192 CURVE",
"431 -161 LINE",
"422 -163 OFFCURVE",
"398 -167 OFFCURVE",
"380 -167 CURVE SMOOTH",
"367 -167 OFFCURVE",
"360 -162 OFFCURVE",
"360 -143 CURVE SMOOTH",
"360 -140 OFFCURVE",
"360 -135 OFFCURVE",
"361 -130 CURVE SMOOTH",
"457 474 LINE"
);
},
{
closed = 1;
nodes = (
"146 45 OFFCURVE",
"130 101 OFFCURVE",
"130 171 CURVE SMOOTH",
"130 280 OFFCURVE",
"192 431 OFFCURVE",
"286 431 CURVE SMOOTH",
"315 431 OFFCURVE",
"341 419 OFFCURVE",
"361 406 CURVE",
"343 298 LINE SMOOTH",
"317 144 OFFCURVE",
"246 45 OFFCURVE",
"194 45 CURVE SMOOTH",
"194 45 LINE"
);
}
);
};
layerId = "CF479DE4-94A2-4865-8D1E-65EA355866D4";
paths = (
{
closed = 1;
nodes = (
"369 -219 OFFCURVE",
"410 -206 OFFCURVE",
"441 -192 CURVE",
"431 -161 LINE",
"422 -163 OFFCURVE",
"398 -167 OFFCURVE",
"380 -167 CURVE SMOOTH",
"366 -167 OFFCURVE",
"357 -159 OFFCURVE",
"360 -139 CURVE SMOOTH",
"457 474 LINE",
"448 475 OFFCURVE",
"438 476 OFFCURVE",
"429 476 CURVE SMOOTH",
"404 476 OFFCURVE",
"387 463 OFFCURVE",
"377 451 CURVE",
"330 473 OFFCURVE",
"291 476 OFFCURVE",
"263 476 CURVE SMOOTH",
"121 476 OFFCURVE",
"40 313 OFFCURVE",
"40 172 CURVE SMOOTH",
"40 69 OFFCURVE",
"66 -7 OFFCURVE",
"168 -7 CURVE SMOOTH",
"235 -7 OFFCURVE",
"288 57 OFFCURVE",
"318 103 CURVE",
"307 38 OFFCURVE",
"271 -157 OFFCURVE",
"271 -180 CURVE SMOOTH",
"271 -210 OFFCURVE",
"286 -219 OFFCURVE",
"329 -219 CURVE SMOOTH"
);
},
{
closed = 1;
nodes = (
"146 45 OFFCURVE",
"130 101 OFFCURVE",
"130 171 CURVE SMOOTH",
"130 280 OFFCURVE",
"192 431 OFFCURVE",
"286 431 CURVE SMOOTH",
"315 431 OFFCURVE",
"341 419 OFFCURVE",
"361 406 CURVE",
"343 298 LINE SMOOTH",
"317 144 OFFCURVE",
"246 45 OFFCURVE",
"194 45 CURVE SMOOTH"
);
}
);
width = 512;
},
{
background = {
paths = (
{
closed = 1;
nodes = (
"290 -95 OFFCURVE",
"287 -113 OFFCURVE",
"287 -130 CURVE SMOOTH",
"287 -183 OFFCURVE",
"309 -216 OFFCURVE",
"371 -216 CURVE SMOOTH",
"418 -216 OFFCURVE",
"485 -188 OFFCURVE",
"511 -162 CURVE",
"498 -126 LINE",
"480 -136 OFFCURVE",
"464 -142 OFFCURVE",
"452 -142 CURVE SMOOTH",
"438 -142 OFFCURVE",
"430 -134 OFFCURVE",
"430 -118 CURVE SMOOTH",
"430 -110 OFFCURVE",
"439 -56 OFFCURVE",
"441 -45 CURVE SMOOTH",
"445 -22 OFFCURVE",
"524 488 OFFCURVE",
"524 489 CURVE",
"514 490 OFFCURVE",
"503 491 OFFCURVE",
"492 491 CURVE SMOOTH",
"456 491 OFFCURVE",
"429 484 OFFCURVE",
"408 472 CURVE",
"374 484 OFFCURVE",
"341 492 OFFCURVE",
"304 492 CURVE SMOOTH",
"153 492 OFFCURVE",
"32 395 OFFCURVE",
"32 181 CURVE SMOOTH",
"32 49 OFFCURVE",
"108 -11 OFFCURVE",
"191 -11 CURVE SMOOTH",
"244 -11 OFFCURVE",
"282 10 OFFCURVE",
"311 43 CURVE",
"293 -74 LINE"
);
},
{
closed = 1;
nodes = (
"322 135 OFFCURVE",
"287 50 OFFCURVE",
"236 50 CURVE SMOOTH",
"190 50 OFFCURVE",
"176 112 OFFCURVE",
"176 182 CURVE SMOOTH",
"176 358 OFFCURVE",
"247 443 OFFCURVE",
"327 443 CURVE SMOOTH",
"343 443 OFFCURVE",
"359 440 OFFCURVE",
"374 435 CURVE",
"346 265 LINE"
);
}
);
};
layerId = "0FAD76F5-9F58-4721-BF81-08BC6166EF10";
paths = (
{
closed = 1;
nodes = (
"418 -216 OFFCURVE",
"485 -188 OFFCURVE",
"511 -162 CURVE",
"498 -126 LINE",
"480 -136 OFFCURVE",
"464 -142 OFFCURVE",
"453 -142 CURVE SMOOTH",
"436 -142 OFFCURVE",
"428 -131 OFFCURVE",
"430 -116 CURVE SMOOTH",
"524 489 LINE",
"514 490 OFFCURVE",
"503 491 OFFCURVE",
"492 491 CURVE SMOOTH",
"456 491 OFFCURVE",
"429 484 OFFCURVE",
"408 472 CURVE",
"374 484 OFFCURVE",
"341 492 OFFCURVE",
"304 492 CURVE SMOOTH",
"153 492 OFFCURVE",
"32 395 OFFCURVE",
"32 181 CURVE SMOOTH",
"32 49 OFFCURVE",
"108 -11 OFFCURVE",
"191 -11 CURVE SMOOTH",
"244 -11 OFFCURVE",
"282 10 OFFCURVE",
"311 43 CURVE",
"307 16 OFFCURVE",
"287 -110 OFFCURVE",
"287 -139 CURVE SMOOTH",
"287 -185 OFFCURVE",
"312 -216 OFFCURVE",
"371 -216 CURVE SMOOTH"
);
},
{
closed = 1;
nodes = (
"190 50 OFFCURVE",
"176 112 OFFCURVE",
"176 182 CURVE SMOOTH",
"176 358 OFFCURVE",
"247 443 OFFCURVE",
"327 443 CURVE SMOOTH",
"343 443 OFFCURVE",
"359 440 OFFCURVE",
"374 435 CURVE",
"346 265 LINE SMOOTH",
"325 137 OFFCURVE",
"287 50 OFFCURVE",
"236 50 CURVE SMOOTH"
);
}
);
width = 556;
}
);
leftKerningGroup = o;
unicode = 0071;
},
{
color = 1;
glyphname = r;
lastChange = "2019-11-27 00:07:53 +0000";
layers = (
{
anchors = (
{
name = bottom;
position = "{91, 0}";
},
{
name = top;
position = "{258, 505}";
}
);
background = {
anchors = (
{
name = bottom;
position = "{114, 0}";
},
{
name = cedilla;
position = "{95, 0}";
},
{
name = top;
position = "{258, 505}";
}
);
paths = (
{
closed = 1;
nodes = (
"135 0 LINE",
"154 145 LINE SMOOTH",
"178 325 OFFCURVE",
"245 409 OFFCURVE",
"284 409 CURVE SMOOTH",
"296 409 OFFCURVE",
"302 396 OFFCURVE",
"302 380 CURVE SMOOTH",
"302 369 OFFCURVE",
"300 357 OFFCURVE",
"295 345 CURVE",
"298 339 OFFCURVE",
"308 328 OFFCURVE",
"328 328 CURVE SMOOTH",
"373 328 OFFCURVE",
"396 363 OFFCURVE",
"396 398 CURVE SMOOTH",
"396 436 OFFCURVE",
"370 476 OFFCURVE",
"318 476 CURVE SMOOTH",
"269 476 OFFCURVE",
"224 430 OFFCURVE",
"186 354 CURVE",
"201 454 LINE",
"190 473 LINE",
"190 473 OFFCURVE",
"178 476 OFFCURVE",
"164 476 CURVE SMOOTH",
"106 476 OFFCURVE",
"36 445 OFFCURVE",
"36 445 CURVE",
"41 413 LINE",
"53 414 OFFCURVE",
"63 415 OFFCURVE",
"72 415 CURVE SMOOTH",
"93 415 OFFCURVE",
"105 409 OFFCURVE",
"105 386 CURVE SMOOTH",
"105 383 OFFCURVE",
"104 374 OFFCURVE",
"104 370 CURVE",
"47 0 LINE"
);
}
);
};
layerId = "CF479DE4-94A2-4865-8D1E-65EA355866D4";
paths = (
{
closed = 1;
nodes = (
"135 0 LINE",
"154 145 LINE SMOOTH",
"178 325 OFFCURVE",
"245 409 OFFCURVE",
"284 409 CURVE SMOOTH",
"297 409 OFFCURVE",
"303 398 OFFCURVE",
"303 381 CURVE SMOOTH",
"303 368 OFFCURVE",
"300 354 OFFCURVE",
"295 345 CURVE",
"298 339 OFFCURVE",
"308 328 OFFCURVE",
"328 328 CURVE SMOOTH",
"373 328 OFFCURVE",
"396 363 OFFCURVE",
"396 400 CURVE SMOOTH",
"396 438 OFFCURVE",
"367 476 OFFCURVE",
"322 476 CURVE SMOOTH",
"269 476 OFFCURVE",
"224 430 OFFCURVE",
"186 354 CURVE",
"201 454 LINE",
"190 473 LINE",
"181 475 OFFCURVE",
"173 476 OFFCURVE",
"164 476 CURVE SMOOTH",
"115 476 OFFCURVE",
"59 455 OFFCURVE",
"36 445 CURVE",
"41 413 LINE",
"53 414 OFFCURVE",
"63 415 OFFCURVE",
"72 415 CURVE SMOOTH",
"93 415 OFFCURVE",
"105 409 OFFCURVE",
"105 386 CURVE SMOOTH",
"105 363 OFFCURVE",
"50 23 OFFCURVE",
"47 0 CURVE"
);
}
);
width = 376;
},
{
anchors = (
{
name = bottom;
position = "{105, 0}";
},
{
name = top;
position = "{270, 484}";
}
);
background = {
paths = (
{
closed = 1;
nodes = (
"224 492 LINE",
"153 492 OFFCURVE",
"86 480 OFFCURVE",
"29 456 CURVE",
"32 417 LINE",
"40 418 OFFCURVE",
"47 419 OFFCURVE",
"53 419 CURVE SMOOTH",
"80 419 OFFCURVE",
"93 405 OFFCURVE",
"93 376 CURVE SMOOTH",
"93 369 OFFCURVE",
"92 362 OFFCURVE",
"91 354 CURVE SMOOTH",
"34 0 LINE",
"175 0 LINE",
"205 186 LINE SMOOTH",
"220 279 OFFCURVE",
"291 401 OFFCURVE",
"335 401 CURVE SMOOTH",
"354 401 OFFCURVE",
"361 391 OFFCURVE",
"361 374 CURVE SMOOTH",
"361 364 OFFCURVE",
"357 353 OFFCURVE",
"352 347 CURVE",
"370 329 OFFCURVE",
"388 322 OFFCURVE",
"404 322 CURVE SMOOTH",
"446 322 OFFCURVE",
"478 371 OFFCURVE",
"478 416 CURVE SMOOTH",
"478 454 OFFCURVE",
"455 489 OFFCURVE",
"397 489 CURVE SMOOTH",
"322 489 OFFCURVE",
"268 426 OFFCURVE",
"232 352 CURVE",
"252 476 LINE"
);
}
);
};
layerId = "0FAD76F5-9F58-4721-BF81-08BC6166EF10";
paths = (
{
closed = 1;
nodes = (
"175 0 LINE",
"205 186 LINE SMOOTH",
"220 279 OFFCURVE",
"291 401 OFFCURVE",
"335 401 CURVE SMOOTH",
"353 401 OFFCURVE",
"362 389 OFFCURVE",
"362 374 CURVE SMOOTH",
"362 365 OFFCURVE",
"358 353 OFFCURVE",
"352 347 CURVE",
"362 334 OFFCURVE",
"383 322 OFFCURVE",
"404 322 CURVE SMOOTH",
"438 322 OFFCURVE",
"478 360 OFFCURVE",
"478 416 CURVE SMOOTH",
"478 463 OFFCURVE",
"446 489 OFFCURVE",
"397 489 CURVE SMOOTH",
"322 489 OFFCURVE",
"268 426 OFFCURVE",
"232 352 CURVE",
"252 476 LINE",
"224 492 LINE",
"153 492 OFFCURVE",
"86 480 OFFCURVE",
"29 456 CURVE",
"32 417 LINE",
"40 418 OFFCURVE",
"47 419 OFFCURVE",
"53 419 CURVE SMOOTH",
"78 419 OFFCURVE",
"93 406 OFFCURVE",
"93 381 CURVE SMOOTH",
"93 356 OFFCURVE",
"69 216 OFFCURVE",
"34 0 CURVE"
);
}
);
width = 452;
}
);
leftKerningGroup = n;
rightKerningGroup = r;
unicode = 0072;
},
{
color = 1;
glyphname = s;
lastChange = "2019-11-26 17:10:49 +0000";
layers = (
{
anchors = (
{
name = bottom;
position = "{151, 0}";
},
{
name = cedilla;
position = "{137, 0}";
},
{
name = top;
position = "{222, 467}";
}
);
background = {
anchors = (
{
name = bottom;
position = "{152, 0}";
},
{
name = cedilla;
position = "{135, 0}";
},
{
name = top;
position = "{226, 505}";
}
);
paths = (
{
closed = 1;
nodes = (
"252 431 OFFCURVE",
"267 415 OFFCURVE",
"267 389 CURVE SMOOTH",
"267 373 OFFCURVE",
"257 361 OFFCURVE",
"245 352 CURVE",
"254 333 OFFCURVE",
"269 325 OFFCURVE",
"294 325 CURVE SMOOTH",
"324 325 OFFCURVE",
"349 346 OFFCURVE",
"349 387 CURVE SMOOTH",
"349 445 OFFCURVE",
"289 476 OFFCURVE",
"224 476 CURVE SMOOTH",
"147 476 OFFCURVE",
"66 433 OFFCURVE",
"66 334 CURVE SMOOTH",
"66 274 OFFCURVE",
"107 235 OFFCURVE",
"146 201 CURVE SMOOTH",
"182 169 OFFCURVE",
"218 142 OFFCURVE",
"218 108 CURVE SMOOTH",
"218 56 OFFCURVE",
"174 41 OFFCURVE",
"152 41 CURVE SMOOTH",
"83 41 OFFCURVE",
"67 73 OFFCURVE",
"67 113 CURVE SMOOTH",
"67 126 OFFCURVE",
"68 139 OFFCURVE",
"69 149 CURVE",
"33 155 LINE",
"3 32 LINE",
"37 7 OFFCURVE",
"84 -7 OFFCURVE",
"130 -7 CURVE SMOOTH",
"213 -7 OFFCURVE",
"302 42 OFFCURVE",
"302 147 CURVE SMOOTH",
"302 200 OFFCURVE",
"258 236 OFFCURVE",
"217 270 CURVE SMOOTH",
"180 300 OFFCURVE",
"146 329 OFFCURVE",
"146 367 CURVE SMOOTH",
"146 414 OFFCURVE",
"185 431 OFFCURVE",
"212 431 CURVE SMOOTH",
"212 431 LINE"
);
}
);
};
layerId = "CF479DE4-94A2-4865-8D1E-65EA355866D4";
paths = (
{
closed = 1;
nodes = (
"229 -7 OFFCURVE",
"302 56 OFFCURVE",
"302 140 CURVE SMOOTH",
"302 200 OFFCURVE",
"258 236 OFFCURVE",
"217 270 CURVE SMOOTH",
"180 300 OFFCURVE",
"146 329 OFFCURVE",
"146 367 CURVE SMOOTH",
"146 405 OFFCURVE",
"174 431 OFFCURVE",
"212 431 CURVE SMOOTH",
"251 431 OFFCURVE",
"267 416 OFFCURVE",
"267 389 CURVE SMOOTH",
"267 373 OFFCURVE",
"258 360 OFFCURVE",
"245 352 CURVE",
"252 335 OFFCURVE",
"271 325 OFFCURVE",
"292 325 CURVE SMOOTH",
"328 325 OFFCURVE",
"349 351 OFFCURVE",
"349 387 CURVE SMOOTH",
"349 437 OFFCURVE",
"301 476 OFFCURVE",
"224 476 CURVE SMOOTH",
"137 476 OFFCURVE",
"66 425 OFFCURVE",
"66 334 CURVE SMOOTH",
"66 274 OFFCURVE",
"107 235 OFFCURVE",
"146 201 CURVE SMOOTH",
"182 169 OFFCURVE",
"218 142 OFFCURVE",
"218 104 CURVE SMOOTH",
"218 70 OFFCURVE",
"192 41 OFFCURVE",
"147 41 CURVE SMOOTH",
"92 41 OFFCURVE",
"67 65 OFFCURVE",
"67 113 CURVE SMOOTH",
"67 126 OFFCURVE",
"68 139 OFFCURVE",
"69 149 CURVE",
"33 155 LINE",
"3 32 LINE",
"26 13 OFFCURVE",
"81 -7 OFFCURVE",
"132 -7 CURVE SMOOTH"
);
}
);
width = 363;
},
{
anchors = (
{
name = bottom;
position = "{174, 0}";
},
{
name = cedilla;
position = "{190, 0}";
},
{
name = top;
position = "{255, 484}";
}
);
background = {
paths = (
{
closed = 1;
nodes = (
"300 -8 OFFCURVE",
"384 56 OFFCURVE",
"384 161 CURVE SMOOTH",
"384 220 OFFCURVE",
"348 264 OFFCURVE",
"270 294 CURVE SMOOTH",
"198 321 OFFCURVE",
"173 341 OFFCURVE",
"173 371 CURVE SMOOTH",
"173 414 OFFCURVE",
"205 447 OFFCURVE",
"248 447 CURVE SMOOTH",
"282 447 OFFCURVE",
"303 430 OFFCURVE",
"303 405 CURVE SMOOTH",
"303 388 OFFCURVE",
"293 370 OFFCURVE",
"275 354 CURVE",
"290 331 OFFCURVE",
"312 321 OFFCURVE",
"334 321 CURVE SMOOTH",
"387 321 OFFCURVE",
"415 354 OFFCURVE",
"415 391 CURVE SMOOTH",
"415 466 OFFCURVE",
"314 492 OFFCURVE",
"255 492 CURVE SMOOTH",
"124 492 OFFCURVE",
"42 434 OFFCURVE",
"42 336 CURVE SMOOTH",
"42 272 OFFCURVE",
"81 230 OFFCURVE",
"170 198 CURVE SMOOTH",
"224 178 OFFCURVE",
"248 152 OFFCURVE",
"248 118 CURVE SMOOTH",
"248 76 OFFCURVE",
"212 42 OFFCURVE",
"169 42 CURVE SMOOTH",
"146 42 OFFCURVE",
"116 47 OFFCURVE",
"92 75 CURVE",
"90 87 OFFCURVE",
"89 101 OFFCURVE",
"89 115 CURVE SMOOTH",
"89 131 OFFCURVE",
"90 148 OFFCURVE",
"91 160 CURVE",
"36 170 LINE",
"4 45 LINE",
"44 13 OFFCURVE",
"108 -8 OFFCURVE",
"159 -8 CURVE SMOOTH"
);
},
{
closed = 1;
nodes = (
"320 -8 OFFCURVE",
"384 71 OFFCURVE",
"384 161 CURVE SMOOTH",
"384 220 OFFCURVE",
"348 262 OFFCURVE",
"270 293 CURVE SMOOTH",
"198 322 OFFCURVE",
"173 340 OFFCURVE",
"173 376 CURVE SMOOTH",
"173 414 OFFCURVE",
"205 447 OFFCURVE",
"248 447 CURVE SMOOTH",
"284 447 OFFCURVE",
"303 429 OFFCURVE",
"303 404 CURVE SMOOTH",
"303 385 OFFCURVE",
"292 366 OFFCURVE",
"275 354 CURVE",
"287 334 OFFCURVE",
"311 321 OFFCURVE",
"339 321 CURVE SMOOTH",
"384 321 OFFCURVE",
"415 351 OFFCURVE",
"415 391 CURVE SMOOTH",
"415 451 OFFCURVE",
"343 492 OFFCURVE",
"253 492 CURVE SMOOTH",
"114 492 OFFCURVE",
"44 423 OFFCURVE",
"44 340 CURVE SMOOTH",
"44 272 OFFCURVE",
"80 234 OFFCURVE",
"154 204 CURVE SMOOTH",
"224 177 OFFCURVE",
"248 152 OFFCURVE",
"248 118 CURVE SMOOTH",
"248 74 OFFCURVE",
"213 42 OFFCURVE",
"169 42 CURVE SMOOTH",
"119 42 OFFCURVE",
"88 66 OFFCURVE",
"88 111 CURVE SMOOTH",
"88 131 OFFCURVE",
"90 148 OFFCURVE",
"91 160 CURVE",
"36 170 LINE",
"4 45 LINE",
"44 13 OFFCURVE",
"108 -8 OFFCURVE",
"159 -8 CURVE SMOOTH"
);
}
);
};
layerId = "0FAD76F5-9F58-4721-BF81-08BC6166EF10";
paths = (
{
closed = 1;
nodes = (
"320 -8 OFFCURVE",
"384 71 OFFCURVE",
"384 161 CURVE SMOOTH",
"384 220 OFFCURVE",
"348 262 OFFCURVE",
"270 293 CURVE SMOOTH",
"198 322 OFFCURVE",
"173 340 OFFCURVE",
"173 376 CURVE SMOOTH",
"173 414 OFFCURVE",
"205 447 OFFCURVE",
"248 447 CURVE SMOOTH",
"284 447 OFFCURVE",
"303 429 OFFCURVE",
"303 404 CURVE SMOOTH",
"303 385 OFFCURVE",
"292 366 OFFCURVE",
"275 354 CURVE",
"287 334 OFFCURVE",
"311 321 OFFCURVE",
"339 321 CURVE SMOOTH",
"384 321 OFFCURVE",
"415 351 OFFCURVE",
"415 391 CURVE SMOOTH",
"415 451 OFFCURVE",
"343 492 OFFCURVE",
"253 492 CURVE SMOOTH",
"114 492 OFFCURVE",
"44 423 OFFCURVE",
"44 340 CURVE SMOOTH",
"44 272 OFFCURVE",
"80 234 OFFCURVE",
"154 204 CURVE SMOOTH",
"224 177 OFFCURVE",
"248 152 OFFCURVE",
"248 118 CURVE SMOOTH",
"248 74 OFFCURVE",
"213 42 OFFCURVE",
"169 42 CURVE SMOOTH",
"134 42 OFFCURVE",
"105 57 OFFCURVE",
"92 75 CURVE",
"90 87 OFFCURVE",
"89 101 OFFCURVE",
"89 115 CURVE SMOOTH",
"89 131 OFFCURVE",
"90 148 OFFCURVE",
"91 160 CURVE",
"36 170 LINE",
"4 45 LINE",
"44 13 OFFCURVE",
"108 -8 OFFCURVE",
"159 -8 CURVE SMOOTH"
);
}
);
width = 427;
}
);
leftKerningGroup = s;
rightKerningGroup = s;
unicode = 0073;
},
{
color = 4;
glyphname = t;
lastChange = "2019-11-27 02:02:42 +0000";
layers = (
{
anchors = (
{
name = bottom;
position = "{148, 0}";
},
{
name = top;
position = "{189, 549}";
},
{
name = top_right;
position = "{279, 675}";
}
);
background = {
anchors = (
{
name = bottom;
position = "{160, 0}";
},
{
name = cedilla;
position = "{140, 0}";
},
{
name = top;
position = "{193, 600}";
}
);
paths = (
{
closed = 1;
nodes = (
"148 55 OFFCURVE",
"140 70 OFFCURVE",
"140 90 CURVE SMOOTH",
"140 125 OFFCURVE",
"190 413 OFFCURVE",
"189 413 CURVE",
"347 413 LINE",
"358 467 LINE",
"198 467 LINE",
"214 564 LINE",
"174 564 LINE",
"145 507 OFFCURVE",
"123 469 OFFCURVE",
"37 446 CURVE",
"31 413 LINE",
"103 413 LINE",
"59 134 OFFCURVE",
"53 101 OFFCURVE",
"53 75 CURVE SMOOTH",
"53 24 OFFCURVE",
"80 -7 OFFCURVE",
"134 -7 CURVE SMOOTH",
"211 -7 OFFCURVE",
"266 38 OFFCURVE",
"309 72 CURVE",
"285 106 LINE",
"251 83 OFFCURVE",
"209 55 OFFCURVE",
"176 55 CURVE SMOOTH",
"176 55 LINE"
);
}
);
};
layerId = "CF479DE4-94A2-4865-8D1E-65EA355866D4";
paths = (
{
closed = 1;
nodes = (
"211 -7 OFFCURVE",
"266 38 OFFCURVE",
"309 72 CURVE",
"285 106 LINE",
"251 83 OFFCURVE",
"209 55 OFFCURVE",
"176 55 CURVE SMOOTH",
"153 55 OFFCURVE",
"140 66 OFFCURVE",
"140 88 CURVE SMOOTH",
"140 125 OFFCURVE",
"186 393 OFFCURVE",
"189 413 CURVE",
"347 413 LINE",
"358 467 LINE",
"198 467 LINE",
"214 564 LINE",
"174 564 LINE",
"145 507 OFFCURVE",
"123 469 OFFCURVE",
"37 446 CURVE",
"31 413 LINE",
"103 413 LINE",
"100 393 OFFCURVE",
"53 106 OFFCURVE",
"53 75 CURVE SMOOTH",
"53 24 OFFCURVE",
"80 -7 OFFCURVE",
"134 -7 CURVE SMOOTH"
);
}
);
width = 340;
},
{
anchors = (
{
name = bottom;
position = "{145, 0}";
},
{
name = top;
position = "{227, 564}";
},
{
name = top_right;
position = "{299, 695}";
}
);
background = {
paths = (
{
closed = 1;
nodes = (
"48 115 OFFCURVE",
"46 97 OFFCURVE",
"46 88 CURVE SMOOTH",
"46 22 OFFCURVE",
"92 -4 OFFCURVE",
"151 -4 CURVE SMOOTH",
"218 -4 OFFCURVE",
"296 32 OFFCURVE",
"338 72 CURVE",
"314 105 LINE",
"292 91 OFFCURVE",
"251 70 OFFCURVE",
"227 70 CURVE SMOOTH",
"202 70 OFFCURVE",
"190 82 OFFCURVE",
"190 107 CURVE SMOOTH",
"190 123 OFFCURVE",
"202 192 OFFCURVE",
"208 229 CURVE SMOOTH",
"210 242 OFFCURVE",
"237 413 OFFCURVE",
"237 413 CURVE",
"366 413 LINE",
"377 478 LINE",
"249 478 LINE",
"265 584 LINE",
"200 584 LINE",
"160 525 OFFCURVE",
"98 481 OFFCURVE",
"31 457 CURVE",
"24 413 LINE",
"95 413 LINE",
"50 125 LINE"
);
}
);
};
layerId = "0FAD76F5-9F58-4721-BF81-08BC6166EF10";
paths = (
{
closed = 1;
nodes = (
"218 -4 OFFCURVE",
"296 32 OFFCURVE",
"338 72 CURVE",
"314 105 LINE",
"292 91 OFFCURVE",
"251 70 OFFCURVE",
"227 70 CURVE SMOOTH",
"202 70 OFFCURVE",
"190 82 OFFCURVE",
"190 105 CURVE SMOOTH",
"190 127 OFFCURVE",
"233 386 OFFCURVE",
"237 413 CURVE",
"366 413 LINE",
"377 478 LINE",
"249 478 LINE",
"265 584 LINE",
"200 584 LINE",
"160 525 OFFCURVE",
"98 481 OFFCURVE",
"31 457 CURVE",
"24 413 LINE",
"95 413 LINE",
"90 379 OFFCURVE",
"46 120 OFFCURVE",
"46 88 CURVE SMOOTH",
"46 31 OFFCURVE",
"81 -4 OFFCURVE",
"151 -4 CURVE SMOOTH"
);
}
);
width = 351;
}
);
leftKerningGroup = t;
rightKerningGroup = t;
unicode = 0074;
},
{
color = 1;
glyphname = u;
lastChange = "2019-11-29 23:42:28 +0000";
layers = (
{
anchors = (
{
name = ogonek;
position = "{460, 0}";
},
{
name = top;
position = "{296, 467}";
}
);
background = {
anchors = (
{
name = ogonek;
position = "{492, 49}";
},
{
name = top;
position = "{288, 505}";
}
);
paths = (
{
closed = 1;
nodes = (
"191 473 OFFCURVE",
"180 476 OFFCURVE",
"164 476 CURVE SMOOTH",
"107 476 OFFCURVE",
"36 445 OFFCURVE",
"36 445 CURVE",
"41 413 LINE",
"53 414 OFFCURVE",
"63 415 OFFCURVE",
"72 415 CURVE SMOOTH",
"93 415 OFFCURVE",
"105 409 OFFCURVE",
"105 386 CURVE SMOOTH",
"105 382 OFFCURVE",
"103 370 OFFCURVE",
"102 364 CURVE SMOOTH",
"61 126 LINE SMOOTH",
"60 117 OFFCURVE",
"59 108 OFFCURVE",
"59 100 CURVE SMOOTH",
"59 32 OFFCURVE",
"100 -7 OFFCURVE",
"172 -7 CURVE SMOOTH",
"250 -7 OFFCURVE",
"303 61 OFFCURVE",
"333 116 CURVE",
"327 80 OFFCURVE",
"322 54 OFFCURVE",
"322 45 CURVE SMOOTH",
"322 16 OFFCURVE",
"328 -7 OFFCURVE",
"378 -7 CURVE SMOOTH",
"418 -7 OFFCURVE",
"470 30 OFFCURVE",
"492 49 CURVE",
"482 81 LINE",
"477 78 OFFCURVE",
"449 62 OFFCURVE",
"431 62 CURVE SMOOTH",
"417 62 OFFCURVE",
"410 67 OFFCURVE",
"410 79 CURVE SMOOTH",
"410 84 LINE",
"472 474 LINE",
"472 474 OFFCURVE",
"460 476 OFFCURVE",
"443 476 CURVE SMOOTH",
"413 476 OFFCURVE",
"386 467 OFFCURVE",
"386 467 CURVE",
"360 306 LINE SMOOTH",
"341 186 OFFCURVE",
"284 47 OFFCURVE",
"200 47 CURVE SMOOTH",
"170 47 OFFCURVE",
"147 70 OFFCURVE",
"147 116 CURVE SMOOTH",
"147 149 OFFCURVE",
"183 328 OFFCURVE",
"203 454 CURVE",
"191 473 LINE"
);
}
);
};
layerId = "CF479DE4-94A2-4865-8D1E-65EA355866D4";
paths = (
{
closed = 1;
nodes = (
"186 474 OFFCURVE",
"180 476 OFFCURVE",
"164 476 CURVE SMOOTH",
"119 476 OFFCURVE",
"61 456 OFFCURVE",
"36 445 CURVE",
"41 413 LINE",
"53 414 OFFCURVE",
"63 415 OFFCURVE",
"72 415 CURVE SMOOTH",
"97 415 OFFCURVE",
"105 405 OFFCURVE",
"105 388 CURVE SMOOTH",
"105 368 OFFCURVE",
"59 131 OFFCURVE",
"59 101 CURVE SMOOTH",
"59 32 OFFCURVE",
"100 -7 OFFCURVE",
"172 -7 CURVE SMOOTH",
"250 -7 OFFCURVE",
"303 61 OFFCURVE",
"333 116 CURVE",
"327 80 OFFCURVE",
"322 54 OFFCURVE",
"322 42 CURVE SMOOTH",
"322 9 OFFCURVE",
"336 -7 OFFCURVE",
"373 -7 CURVE SMOOTH",
"418 -7 OFFCURVE",
"470 30 OFFCURVE",
"492 49 CURVE",
"482 81 LINE",
"477 78 OFFCURVE",
"449 62 OFFCURVE",
"431 62 CURVE SMOOTH",
"417 62 OFFCURVE",
"410 67 OFFCURVE",
"410 79 CURVE SMOOTH",
"410 91 OFFCURVE",
"469 452 OFFCURVE",
"472 474 CURVE",
"464 475 OFFCURVE",
"454 476 OFFCURVE",
"443 476 CURVE SMOOTH",
"417 476 OFFCURVE",
"396 470 OFFCURVE",
"386 467 CURVE",
"360 306 LINE SMOOTH",
"341 186 OFFCURVE",
"284 47 OFFCURVE",
"201 47 CURVE SMOOTH",
"171 47 OFFCURVE",
"147 68 OFFCURVE",
"147 110 CURVE SMOOTH",
"147 149 OFFCURVE",
"195 405 OFFCURVE",
"204 454 CURVE",
"191 473 LINE"
);
}
);
width = 531;
},
{
anchors = (
{
name = ogonek;
position = "{510, 0}";
},
{
name = top;
position = "{331, 484}";
}
);
background = {
paths = (
{
closed = 1;
nodes = (
"161 492 OFFCURVE",
"78 476 OFFCURVE",
"31 456 CURVE",
"34 417 LINE",
"42 418 OFFCURVE",
"49 419 OFFCURVE",
"55 419 CURVE SMOOTH",
"82 419 OFFCURVE",
"95 405 OFFCURVE",
"95 377 CURVE SMOOTH",
"95 370 OFFCURVE",
"94 362 OFFCURVE",
"93 354 CURVE SMOOTH",
"63 167 OFFCURVE",
"57 132 OFFCURVE",
"57 113 CURVE SMOOTH",
"57 38 OFFCURVE",
"105 -8 OFFCURVE",
"185 -8 CURVE SMOOTH",
"250 -8 OFFCURVE",
"302 25 OFFCURVE",
"343 86 CURVE",
"343 27 OFFCURVE",
"365 -6 OFFCURVE",
"427 -6 CURVE SMOOTH",
"477 -6 OFFCURVE",
"533 23 OFFCURVE",
"567 46 CURVE",
"554 84 LINE",
"536 73 OFFCURVE",
"519 69 OFFCURVE",
"506 69 CURVE SMOOTH",
"492 69 OFFCURVE",
"486 76 OFFCURVE",
"486 92 CURVE SMOOTH",
"486 105 OFFCURVE",
"496 165 OFFCURVE",
"501 197 CURVE SMOOTH",
"548 484 LINE",
"526 487 OFFCURVE",
"506 489 OFFCURVE",
"490 489 CURVE SMOOTH",
"451 489 OFFCURVE",
"426 481 OFFCURVE",
"405 470 CURVE",
"370 265 LINE SMOOTH",
"352 158 OFFCURVE",
"286 60 OFFCURVE",
"241 60 CURVE SMOOTH",
"213 60 OFFCURVE",
"200 80 OFFCURVE",
"200 119 CURVE SMOOTH",
"200 152 OFFCURVE",
"253 474 OFFCURVE",
"253 474 CURVE",
"226 492 LINE"
);
}
);
};
layerId = "0FAD76F5-9F58-4721-BF81-08BC6166EF10";
paths = (
{
closed = 1;
nodes = (
"161 492 OFFCURVE",
"78 476 OFFCURVE",
"31 456 CURVE",
"34 417 LINE",
"42 418 OFFCURVE",
"49 419 OFFCURVE",
"55 419 CURVE SMOOTH",
"81 419 OFFCURVE",
"95 405 OFFCURVE",
"95 380 CURVE SMOOTH",
"95 347 OFFCURVE",
"57 150 OFFCURVE",
"57 111 CURVE SMOOTH",
"57 38 OFFCURVE",
"105 -8 OFFCURVE",
"180 -8 CURVE SMOOTH",
"250 -8 OFFCURVE",
"302 25 OFFCURVE",
"343 86 CURVE",
"343 23 OFFCURVE",
"369 -6 OFFCURVE",
"424 -6 CURVE SMOOTH",
"477 -6 OFFCURVE",
"533 23 OFFCURVE",
"567 46 CURVE",
"554 84 LINE",
"539 75 OFFCURVE",
"521 68 OFFCURVE",
"507 68 CURVE SMOOTH",
"492 68 OFFCURVE",
"486 75 OFFCURVE",
"486 92 CURVE SMOOTH",
"486 113 OFFCURVE",
"540 437 OFFCURVE",
"548 484 CURVE",
"526 487 OFFCURVE",
"506 489 OFFCURVE",
"490 489 CURVE SMOOTH",
"451 489 OFFCURVE",
"426 481 OFFCURVE",
"405 470 CURVE",
"370 265 LINE SMOOTH",
"352 158 OFFCURVE",
"286 60 OFFCURVE",
"237 60 CURVE SMOOTH",
"215 60 OFFCURVE",
"200 77 OFFCURVE",
"200 112 CURVE SMOOTH",
"200 152 OFFCURVE",
"249 449 OFFCURVE",
"253 474 CURVE",
"226 492 LINE"
);
}
);
width = 589;
}
);
leftKerningGroup = u;
rightKerningGroup = u;
unicode = 0075;
},
{
color = 1;
glyphname = v;
lastChange = "2019-11-29 22:23:42 +0000";
layers = (
{
background = {
anchors = (
{
name = top;
position = "{234, 505}";
}
);
paths = (
{
closed = 1;
nodes = (
"280 423 LINE",
"300 423 OFFCURVE",
"324 421 OFFCURVE",
"324 389 CURVE SMOOTH",
"324 378 OFFCURVE",
"322 362 OFFCURVE",
"317 343 CURVE SMOOTH",
"304 293 OFFCURVE",
"234 176 OFFCURVE",
"191 106 CURVE",
"142 474 LINE",
"142 474 OFFCURVE",
"127 476 OFFCURVE",
"115 476 CURVE SMOOTH",
"67 476 OFFCURVE",
"1 445 OFFCURVE",
"1 445 CURVE",
"7 413 LINE",
"41 410 OFFCURVE",
"65 414 OFFCURVE",
"71 366 CURVE SMOOTH",
"120 0 LINE",
"140 -7 OFFCURVE",
"174 -7 OFFCURVE",
"174 -7 CURVE",
"359 280 LINE SMOOTH",
"420 375 OFFCURVE",
"437 454 OFFCURVE",
"437 454 CURVE",
"426 473 LINE",
"411 475 OFFCURVE",
"397 476 OFFCURVE",
"383 476 CURVE SMOOTH",
"344 476 OFFCURVE",
"309 469 OFFCURVE",
"276 460 CURVE",
"276 460 LINE"
);
},
{
closed = 1;
nodes = (
"236 89 OFFCURVE",
"298 185 OFFCURVE",
"359 280 CURVE SMOOTH",
"411 362 OFFCURVE",
"433 432 OFFCURVE",
"437 454 CURVE",
"426 473 LINE",
"411 475 OFFCURVE",
"397 476 OFFCURVE",
"383 476 CURVE SMOOTH",
"344 476 OFFCURVE",
"309 469 OFFCURVE",
"276 460 CURVE",
"280 423 LINE",
"311 424 OFFCURVE",
"324 413 OFFCURVE",
"324 385 CURVE SMOOTH",
"324 367 OFFCURVE",
"320 351 OFFCURVE",
"312 327 CURVE SMOOTH",
"299 289 OFFCURVE",
"235 176 OFFCURVE",
"191 106 CURVE",
"142 474 LINE",
"136 475 OFFCURVE",
"124 476 OFFCURVE",
"115 476 CURVE SMOOTH",
"75 476 OFFCURVE",
"19 453 OFFCURVE",
"1 445 CURVE",
"7 413 LINE",
"55 411 OFFCURVE",
"66 404 OFFCURVE",
"71 366 CURVE SMOOTH",
"120 0 LINE",
"136 -6 OFFCURVE",
"158 -7 OFFCURVE",
"174 -7 CURVE"
);
}
);
};
layerId = "CF479DE4-94A2-4865-8D1E-65EA355866D4";
paths = (
{
closed = 1;
nodes = (
"359 280 LINE SMOOTH",
"411 362 OFFCURVE",
"433 432 OFFCURVE",
"437 454 CURVE",
"426 473 LINE",
"411 475 OFFCURVE",
"397 476 OFFCURVE",
"383 476 CURVE SMOOTH",
"344 476 OFFCURVE",
"309 469 OFFCURVE",
"276 460 CURVE",
"280 423 LINE",
"311 424 OFFCURVE",
"324 413 OFFCURVE",
"324 385 CURVE SMOOTH",
"324 367 OFFCURVE",
"320 351 OFFCURVE",
"312 327 CURVE SMOOTH",
"299 289 OFFCURVE",
"235 176 OFFCURVE",
"191 106 CURVE",
"142 474 LINE",
"136 475 OFFCURVE",
"124 476 OFFCURVE",
"115 476 CURVE SMOOTH",
"75 476 OFFCURVE",
"19 453 OFFCURVE",
"1 445 CURVE",
"7 413 LINE",
"55 411 OFFCURVE",
"66 404 OFFCURVE",
"71 366 CURVE SMOOTH",
"120 0 LINE",
"136 -6 OFFCURVE",
"158 -7 OFFCURVE",
"174 -7 CURVE"
);
}
);
width = 431;
},
{
background = {
paths = (
{
closed = 1;
nodes = (
"214 -7 LINE",
"417 280 LINE SMOOTH",
"476 364 OFFCURVE",
"492 437 OFFCURVE",
"496 462 CURVE",
"479 488 LINE",
"470 489 OFFCURVE",
"452 490 OFFCURVE",
"439 490 CURVE SMOOTH",
"402 490 OFFCURVE",
"349 484 OFFCURVE",
"316 474 CURVE",
"320 437 LINE",
"353 437 OFFCURVE",
"376 432 OFFCURVE",
"376 399 CURVE SMOOTH",
"376 361 OFFCURVE",
"346 305 OFFCURVE",
"334 286 CURVE SMOOTH",
"236 134 LINE",
"189 488 LINE",
"176 489 OFFCURVE",
"164 489 OFFCURVE",
"151 489 CURVE SMOOTH",
"90 489 OFFCURVE",
"29 478 OFFCURVE",
"-1 459 CURVE",
"5 427 LINE",
"36 427 OFFCURVE",
"59 414 OFFCURVE",
"66 366 CURVE SMOOTH",
"115 0 LINE",
"137 -6 OFFCURVE",
"171 -7 OFFCURVE",
"203 -7 CURVE SMOOTH"
);
}
);
};
layerId = "0FAD76F5-9F58-4721-BF81-08BC6166EF10";
paths = (
{
closed = 1;
nodes = (
"417 280 LINE SMOOTH",
"476 364 OFFCURVE",
"492 437 OFFCURVE",
"496 462 CURVE",
"479 488 LINE",
"470 489 OFFCURVE",
"452 490 OFFCURVE",
"439 490 CURVE SMOOTH",
"402 490 OFFCURVE",
"349 484 OFFCURVE",
"316 474 CURVE",
"320 437 LINE",
"353 437 OFFCURVE",
"376 432 OFFCURVE",
"376 399 CURVE SMOOTH",
"376 361 OFFCURVE",
"346 305 OFFCURVE",
"334 286 CURVE SMOOTH",
"301 235 OFFCURVE",
"269 185 OFFCURVE",
"236 134 CURVE",
"189 488 LINE",
"176 489 OFFCURVE",
"164 489 OFFCURVE",
"151 489 CURVE SMOOTH",
"90 489 OFFCURVE",
"31 478 OFFCURVE",
"-1 459 CURVE",
"5 427 LINE",
"36 427 OFFCURVE",
"59 414 OFFCURVE",
"66 366 CURVE SMOOTH",
"115 0 LINE",
"141 -6 OFFCURVE",
"187 -8 OFFCURVE",
"214 -7 CURVE"
);
}
);
width = 491;
}
);
leftKerningGroup = v;
rightKerningGroup = v;
unicode = 0076;
},
